<?xml version="1.0" encoding="utf-8" standalone="no"?>
<!DOCTYPE svg PUBLIC "-//W3C//DTD SVG 1.1//EN"
  "http://www.w3.org/Graphics/SVG/1.1/DTD/svg11.dtd">
<svg xmlns:xlink="http://www.w3.org/1999/xlink" width="420.578pt" height="276.026125pt" viewBox="0 0 420.578 276.026125" xmlns="http://www.w3.org/2000/svg" version="1.1">
 <metadata>
  <rdf:RDF xmlns:dc="http://purl.org/dc/elements/1.1/" xmlns:cc="http://creativecommons.org/ns#" xmlns:rdf="http://www.w3.org/1999/02/22-rdf-syntax-ns#">
   <cc:Work>
    <dc:type rdf:resource="http://purl.org/dc/dcmitype/StillImage"/>
    <dc:date>2024-03-18T12:36:37.557031</dc:date>
    <dc:format>image/svg+xml</dc:format>
    <dc:creator>
     <cc:Agent>
      <dc:title>Matplotlib v3.8.0, https://matplotlib.org/</dc:title>
     </cc:Agent>
    </dc:creator>
   </cc:Work>
  </rdf:RDF>
 </metadata>
 <defs>
  <style type="text/css">*{stroke-linejoin: round; stroke-linecap: butt}</style>
 </defs>
 <g id="figure_1">
  <g id="patch_1">
   <path d="M 0 276.026125 
L 420.578 276.026125 
L 420.578 0 
L 0 0 
L 0 276.026125 
z
" style="fill: none"/>
  </g>
  <g id="axes_1">
   <g id="patch_2">
    <path d="M 34.5625 236.248 
L 297.4905 236.248 
L 297.4905 7.2 
L 34.5625 7.2 
L 34.5625 236.248 
z
" style="fill: none"/>
   </g>
   <g id="matplotlib.axis_1">
    <g id="xtick_1">
     <g id="line2d_1">
      <defs>
       <path id="mc5a8da637e" d="M 0 0 
L 0 3.5 
" style="stroke: #000000; stroke-width: 0.8"/>
      </defs>
      <g>
       <use xlink:href="#mc5a8da637e" x="34.5625" y="236.248" style="stroke: #000000; stroke-width: 0.8"/>
      </g>
     </g>
     <g id="text_1">
      <!-- 0.0 -->
      <g transform="translate(26.610938 250.846437) scale(0.1 -0.1)">
       <defs>
        <path id="DejaVuSans-30" d="M 2034 4250 
Q 1547 4250 1301 3770 
Q 1056 3291 1056 2328 
Q 1056 1369 1301 889 
Q 1547 409 2034 409 
Q 2525 409 2770 889 
Q 3016 1369 3016 2328 
Q 3016 3291 2770 3770 
Q 2525 4250 2034 4250 
z
M 2034 4750 
Q 2819 4750 3233 4129 
Q 3647 3509 3647 2328 
Q 3647 1150 3233 529 
Q 2819 -91 2034 -91 
Q 1250 -91 836 529 
Q 422 1150 422 2328 
Q 422 3509 836 4129 
Q 1250 4750 2034 4750 
z
" transform="scale(0.015625)"/>
        <path id="DejaVuSans-2e" d="M 684 794 
L 1344 794 
L 1344 0 
L 684 0 
L 684 794 
z
" transform="scale(0.015625)"/>
       </defs>
       <use xlink:href="#DejaVuSans-30"/>
       <use xlink:href="#DejaVuSans-2e" x="63.623047"/>
       <use xlink:href="#DejaVuSans-30" x="95.410156"/>
      </g>
     </g>
    </g>
    <g id="xtick_2">
     <g id="line2d_2">
      <g>
       <use xlink:href="#mc5a8da637e" x="87.1481" y="236.248" style="stroke: #000000; stroke-width: 0.8"/>
      </g>
     </g>
     <g id="text_2">
      <!-- 0.2 -->
      <g transform="translate(79.196537 250.846437) scale(0.1 -0.1)">
       <defs>
        <path id="DejaVuSans-32" d="M 1228 531 
L 3431 531 
L 3431 0 
L 469 0 
L 469 531 
Q 828 903 1448 1529 
Q 2069 2156 2228 2338 
Q 2531 2678 2651 2914 
Q 2772 3150 2772 3378 
Q 2772 3750 2511 3984 
Q 2250 4219 1831 4219 
Q 1534 4219 1204 4116 
Q 875 4013 500 3803 
L 500 4441 
Q 881 4594 1212 4672 
Q 1544 4750 1819 4750 
Q 2544 4750 2975 4387 
Q 3406 4025 3406 3419 
Q 3406 3131 3298 2873 
Q 3191 2616 2906 2266 
Q 2828 2175 2409 1742 
Q 1991 1309 1228 531 
z
" transform="scale(0.015625)"/>
       </defs>
       <use xlink:href="#DejaVuSans-30"/>
       <use xlink:href="#DejaVuSans-2e" x="63.623047"/>
       <use xlink:href="#DejaVuSans-32" x="95.410156"/>
      </g>
     </g>
    </g>
    <g id="xtick_3">
     <g id="line2d_3">
      <g>
       <use xlink:href="#mc5a8da637e" x="139.7337" y="236.248" style="stroke: #000000; stroke-width: 0.8"/>
      </g>
     </g>
     <g id="text_3">
      <!-- 0.4 -->
      <g transform="translate(131.782137 250.846437) scale(0.1 -0.1)">
       <defs>
        <path id="DejaVuSans-34" d="M 2419 4116 
L 825 1625 
L 2419 1625 
L 2419 4116 
z
M 2253 4666 
L 3047 4666 
L 3047 1625 
L 3713 1625 
L 3713 1100 
L 3047 1100 
L 3047 0 
L 2419 0 
L 2419 1100 
L 313 1100 
L 313 1709 
L 2253 4666 
z
" transform="scale(0.015625)"/>
       </defs>
       <use xlink:href="#DejaVuSans-30"/>
       <use xlink:href="#DejaVuSans-2e" x="63.623047"/>
       <use xlink:href="#DejaVuSans-34" x="95.410156"/>
      </g>
     </g>
    </g>
    <g id="xtick_4">
     <g id="line2d_4">
      <g>
       <use xlink:href="#mc5a8da637e" x="192.3193" y="236.248" style="stroke: #000000; stroke-width: 0.8"/>
      </g>
     </g>
     <g id="text_4">
      <!-- 0.6 -->
      <g transform="translate(184.367737 250.846437) scale(0.1 -0.1)">
       <defs>
        <path id="DejaVuSans-36" d="M 2113 2584 
Q 1688 2584 1439 2293 
Q 1191 2003 1191 1497 
Q 1191 994 1439 701 
Q 1688 409 2113 409 
Q 2538 409 2786 701 
Q 3034 994 3034 1497 
Q 3034 2003 2786 2293 
Q 2538 2584 2113 2584 
z
M 3366 4563 
L 3366 3988 
Q 3128 4100 2886 4159 
Q 2644 4219 2406 4219 
Q 1781 4219 1451 3797 
Q 1122 3375 1075 2522 
Q 1259 2794 1537 2939 
Q 1816 3084 2150 3084 
Q 2853 3084 3261 2657 
Q 3669 2231 3669 1497 
Q 3669 778 3244 343 
Q 2819 -91 2113 -91 
Q 1303 -91 875 529 
Q 447 1150 447 2328 
Q 447 3434 972 4092 
Q 1497 4750 2381 4750 
Q 2619 4750 2861 4703 
Q 3103 4656 3366 4563 
z
" transform="scale(0.015625)"/>
       </defs>
       <use xlink:href="#DejaVuSans-30"/>
       <use xlink:href="#DejaVuSans-2e" x="63.623047"/>
       <use xlink:href="#DejaVuSans-36" x="95.410156"/>
      </g>
     </g>
    </g>
    <g id="xtick_5">
     <g id="line2d_5">
      <g>
       <use xlink:href="#mc5a8da637e" x="244.9049" y="236.248" style="stroke: #000000; stroke-width: 0.8"/>
      </g>
     </g>
     <g id="text_5">
      <!-- 0.8 -->
      <g transform="translate(236.953337 250.846437) scale(0.1 -0.1)">
       <defs>
        <path id="DejaVuSans-38" d="M 2034 2216 
Q 1584 2216 1326 1975 
Q 1069 1734 1069 1313 
Q 1069 891 1326 650 
Q 1584 409 2034 409 
Q 2484 409 2743 651 
Q 3003 894 3003 1313 
Q 3003 1734 2745 1975 
Q 2488 2216 2034 2216 
z
M 1403 2484 
Q 997 2584 770 2862 
Q 544 3141 544 3541 
Q 544 4100 942 4425 
Q 1341 4750 2034 4750 
Q 2731 4750 3128 4425 
Q 3525 4100 3525 3541 
Q 3525 3141 3298 2862 
Q 3072 2584 2669 2484 
Q 3125 2378 3379 2068 
Q 3634 1759 3634 1313 
Q 3634 634 3220 271 
Q 2806 -91 2034 -91 
Q 1263 -91 848 271 
Q 434 634 434 1313 
Q 434 1759 690 2068 
Q 947 2378 1403 2484 
z
M 1172 3481 
Q 1172 3119 1398 2916 
Q 1625 2713 2034 2713 
Q 2441 2713 2670 2916 
Q 2900 3119 2900 3481 
Q 2900 3844 2670 4047 
Q 2441 4250 2034 4250 
Q 1625 4250 1398 4047 
Q 1172 3844 1172 3481 
z
" transform="scale(0.015625)"/>
       </defs>
       <use xlink:href="#DejaVuSans-30"/>
       <use xlink:href="#DejaVuSans-2e" x="63.623047"/>
       <use xlink:href="#DejaVuSans-38" x="95.410156"/>
      </g>
     </g>
    </g>
    <g id="xtick_6">
     <g id="line2d_6">
      <g>
       <use xlink:href="#mc5a8da637e" x="297.4905" y="236.248" style="stroke: #000000; stroke-width: 0.8"/>
      </g>
     </g>
     <g id="text_6">
      <!-- 1.0 -->
      <g transform="translate(289.538937 250.846437) scale(0.1 -0.1)">
       <defs>
        <path id="DejaVuSans-31" d="M 794 531 
L 1825 531 
L 1825 4091 
L 703 3866 
L 703 4441 
L 1819 4666 
L 2450 4666 
L 2450 531 
L 3481 531 
L 3481 0 
L 794 0 
L 794 531 
z
" transform="scale(0.015625)"/>
       </defs>
       <use xlink:href="#DejaVuSans-31"/>
       <use xlink:href="#DejaVuSans-2e" x="63.623047"/>
       <use xlink:href="#DejaVuSans-30" x="95.410156"/>
      </g>
     </g>
    </g>
    <g id="text_7">
     <!-- $E_\mathrm{c}^\mathrm{EP}$ proportion $a_8$ -->
     <g transform="translate(123.2765 265.926125) scale(0.1 -0.1)">
      <defs>
       <path id="DejaVuSans-Oblique-45" d="M 1081 4666 
L 4031 4666 
L 3928 4134 
L 1606 4134 
L 1338 2753 
L 3566 2753 
L 3463 2222 
L 1234 2222 
L 909 531 
L 3284 531 
L 3181 0 
L 172 0 
L 1081 4666 
z
" transform="scale(0.015625)"/>
       <path id="DejaVuSans-45" d="M 628 4666 
L 3578 4666 
L 3578 4134 
L 1259 4134 
L 1259 2753 
L 3481 2753 
L 3481 2222 
L 1259 2222 
L 1259 531 
L 3634 531 
L 3634 0 
L 628 0 
L 628 4666 
z
" transform="scale(0.015625)"/>
       <path id="DejaVuSans-50" d="M 1259 4147 
L 1259 2394 
L 2053 2394 
Q 2494 2394 2734 2622 
Q 2975 2850 2975 3272 
Q 2975 3691 2734 3919 
Q 2494 4147 2053 4147 
L 1259 4147 
z
M 628 4666 
L 2053 4666 
Q 2838 4666 3239 4311 
Q 3641 3956 3641 3272 
Q 3641 2581 3239 2228 
Q 2838 1875 2053 1875 
L 1259 1875 
L 1259 0 
L 628 0 
L 628 4666 
z
" transform="scale(0.015625)"/>
       <path id="DejaVuSans-63" d="M 3122 3366 
L 3122 2828 
Q 2878 2963 2633 3030 
Q 2388 3097 2138 3097 
Q 1578 3097 1268 2742 
Q 959 2388 959 1747 
Q 959 1106 1268 751 
Q 1578 397 2138 397 
Q 2388 397 2633 464 
Q 2878 531 3122 666 
L 3122 134 
Q 2881 22 2623 -34 
Q 2366 -91 2075 -91 
Q 1284 -91 818 406 
Q 353 903 353 1747 
Q 353 2603 823 3093 
Q 1294 3584 2113 3584 
Q 2378 3584 2631 3529 
Q 2884 3475 3122 3366 
z
" transform="scale(0.015625)"/>
       <path id="DejaVuSans-20" transform="scale(0.015625)"/>
       <path id="DejaVuSans-70" d="M 1159 525 
L 1159 -1331 
L 581 -1331 
L 581 3500 
L 1159 3500 
L 1159 2969 
Q 1341 3281 1617 3432 
Q 1894 3584 2278 3584 
Q 2916 3584 3314 3078 
Q 3713 2572 3713 1747 
Q 3713 922 3314 415 
Q 2916 -91 2278 -91 
Q 1894 -91 1617 61 
Q 1341 213 1159 525 
z
M 3116 1747 
Q 3116 2381 2855 2742 
Q 2594 3103 2138 3103 
Q 1681 3103 1420 2742 
Q 1159 2381 1159 1747 
Q 1159 1113 1420 752 
Q 1681 391 2138 391 
Q 2594 391 2855 752 
Q 3116 1113 3116 1747 
z
" transform="scale(0.015625)"/>
       <path id="DejaVuSans-72" d="M 2631 2963 
Q 2534 3019 2420 3045 
Q 2306 3072 2169 3072 
Q 1681 3072 1420 2755 
Q 1159 2438 1159 1844 
L 1159 0 
L 581 0 
L 581 3500 
L 1159 3500 
L 1159 2956 
Q 1341 3275 1631 3429 
Q 1922 3584 2338 3584 
Q 2397 3584 2469 3576 
Q 2541 3569 2628 3553 
L 2631 2963 
z
" transform="scale(0.015625)"/>
       <path id="DejaVuSans-6f" d="M 1959 3097 
Q 1497 3097 1228 2736 
Q 959 2375 959 1747 
Q 959 1119 1226 758 
Q 1494 397 1959 397 
Q 2419 397 2687 759 
Q 2956 1122 2956 1747 
Q 2956 2369 2687 2733 
Q 2419 3097 1959 3097 
z
M 1959 3584 
Q 2709 3584 3137 3096 
Q 3566 2609 3566 1747 
Q 3566 888 3137 398 
Q 2709 -91 1959 -91 
Q 1206 -91 779 398 
Q 353 888 353 1747 
Q 353 2609 779 3096 
Q 1206 3584 1959 3584 
z
" transform="scale(0.015625)"/>
       <path id="DejaVuSans-74" d="M 1172 4494 
L 1172 3500 
L 2356 3500 
L 2356 3053 
L 1172 3053 
L 1172 1153 
Q 1172 725 1289 603 
Q 1406 481 1766 481 
L 2356 481 
L 2356 0 
L 1766 0 
Q 1100 0 847 248 
Q 594 497 594 1153 
L 594 3053 
L 172 3053 
L 172 3500 
L 594 3500 
L 594 4494 
L 1172 4494 
z
" transform="scale(0.015625)"/>
       <path id="DejaVuSans-69" d="M 603 3500 
L 1178 3500 
L 1178 0 
L 603 0 
L 603 3500 
z
M 603 4863 
L 1178 4863 
L 1178 4134 
L 603 4134 
L 603 4863 
z
" transform="scale(0.015625)"/>
       <path id="DejaVuSans-6e" d="M 3513 2113 
L 3513 0 
L 2938 0 
L 2938 2094 
Q 2938 2591 2744 2837 
Q 2550 3084 2163 3084 
Q 1697 3084 1428 2787 
Q 1159 2491 1159 1978 
L 1159 0 
L 581 0 
L 581 3500 
L 1159 3500 
L 1159 2956 
Q 1366 3272 1645 3428 
Q 1925 3584 2291 3584 
Q 2894 3584 3203 3211 
Q 3513 2838 3513 2113 
z
" transform="scale(0.015625)"/>
       <path id="DejaVuSans-Oblique-61" d="M 3438 1997 
L 3047 0 
L 2472 0 
L 2578 531 
Q 2325 219 2001 64 
Q 1678 -91 1281 -91 
Q 834 -91 548 182 
Q 263 456 263 884 
Q 263 1497 752 1853 
Q 1241 2209 2100 2209 
L 2900 2209 
L 2931 2363 
Q 2938 2388 2941 2417 
Q 2944 2447 2944 2509 
Q 2944 2788 2717 2942 
Q 2491 3097 2081 3097 
Q 1800 3097 1504 3025 
Q 1209 2953 897 2809 
L 997 3341 
Q 1322 3463 1633 3523 
Q 1944 3584 2234 3584 
Q 2853 3584 3176 3315 
Q 3500 3047 3500 2534 
Q 3500 2431 3484 2292 
Q 3469 2153 3438 1997 
z
M 2816 1759 
L 2241 1759 
Q 1534 1759 1195 1570 
Q 856 1381 856 984 
Q 856 709 1029 553 
Q 1203 397 1509 397 
Q 1978 397 2328 733 
Q 2678 1069 2791 1631 
L 2816 1759 
z
" transform="scale(0.015625)"/>
      </defs>
      <use xlink:href="#DejaVuSans-Oblique-45" transform="translate(0 0.684375)"/>
      <use xlink:href="#DejaVuSans-45" transform="translate(70.200365 38.965625) scale(0.7)"/>
      <use xlink:href="#DejaVuSans-50" transform="translate(114.42888 38.965625) scale(0.7)"/>
      <use xlink:href="#DejaVuSans-63" transform="translate(63.183594 -26.659375) scale(0.7)"/>
      <use xlink:href="#DejaVuSans-20" transform="translate(159.375169 0.684375)"/>
      <use xlink:href="#DejaVuSans-70" transform="translate(191.162279 0.684375)"/>
      <use xlink:href="#DejaVuSans-72" transform="translate(254.638841 0.684375)"/>
      <use xlink:href="#DejaVuSans-6f" transform="translate(295.752122 0.684375)"/>
      <use xlink:href="#DejaVuSans-70" transform="translate(356.933763 0.684375)"/>
      <use xlink:href="#DejaVuSans-6f" transform="translate(420.410326 0.684375)"/>
      <use xlink:href="#DejaVuSans-72" transform="translate(481.591966 0.684375)"/>
      <use xlink:href="#DejaVuSans-74" transform="translate(522.705247 0.684375)"/>
      <use xlink:href="#DejaVuSans-69" transform="translate(561.914232 0.684375)"/>
      <use xlink:href="#DejaVuSans-6f" transform="translate(589.697435 0.684375)"/>
      <use xlink:href="#DejaVuSans-6e" transform="translate(650.879076 0.684375)"/>
      <use xlink:href="#DejaVuSans-20" transform="translate(714.257982 0.684375)"/>
      <use xlink:href="#DejaVuSans-Oblique-61" transform="translate(746.045091 0.684375)"/>
      <use xlink:href="#DejaVuSans-38" transform="translate(807.324388 -15.721875) scale(0.7)"/>
     </g>
    </g>
   </g>
   <g id="matplotlib.axis_2">
    <g id="ytick_1">
     <g id="line2d_7">
      <defs>
       <path id="mb03fb7e00c" d="M 0 0 
L -3.5 0 
" style="stroke: #000000; stroke-width: 0.8"/>
      </defs>
      <g>
       <use xlink:href="#mb03fb7e00c" x="34.5625" y="219.887429" style="stroke: #000000; stroke-width: 0.8"/>
      </g>
     </g>
     <g id="text_8">
      <!-- 2 -->
      <g transform="translate(21.2 223.686647) scale(0.1 -0.1)">
       <use xlink:href="#DejaVuSans-32"/>
      </g>
     </g>
    </g>
    <g id="ytick_2">
     <g id="line2d_8">
      <g>
       <use xlink:href="#mb03fb7e00c" x="34.5625" y="187.166286" style="stroke: #000000; stroke-width: 0.8"/>
      </g>
     </g>
     <g id="text_9">
      <!-- 3 -->
      <g transform="translate(21.2 190.965504) scale(0.1 -0.1)">
       <defs>
        <path id="DejaVuSans-33" d="M 2597 2516 
Q 3050 2419 3304 2112 
Q 3559 1806 3559 1356 
Q 3559 666 3084 287 
Q 2609 -91 1734 -91 
Q 1441 -91 1130 -33 
Q 819 25 488 141 
L 488 750 
Q 750 597 1062 519 
Q 1375 441 1716 441 
Q 2309 441 2620 675 
Q 2931 909 2931 1356 
Q 2931 1769 2642 2001 
Q 2353 2234 1838 2234 
L 1294 2234 
L 1294 2753 
L 1863 2753 
Q 2328 2753 2575 2939 
Q 2822 3125 2822 3475 
Q 2822 3834 2567 4026 
Q 2313 4219 1838 4219 
Q 1578 4219 1281 4162 
Q 984 4106 628 3988 
L 628 4550 
Q 988 4650 1302 4700 
Q 1616 4750 1894 4750 
Q 2613 4750 3031 4423 
Q 3450 4097 3450 3541 
Q 3450 3153 3228 2886 
Q 3006 2619 2597 2516 
z
" transform="scale(0.015625)"/>
       </defs>
       <use xlink:href="#DejaVuSans-33"/>
      </g>
     </g>
    </g>
    <g id="ytick_3">
     <g id="line2d_9">
      <g>
       <use xlink:href="#mb03fb7e00c" x="34.5625" y="154.445143" style="stroke: #000000; stroke-width: 0.8"/>
      </g>
     </g>
     <g id="text_10">
      <!-- 4 -->
      <g transform="translate(21.2 158.244362) scale(0.1 -0.1)">
       <use xlink:href="#DejaVuSans-34"/>
      </g>
     </g>
    </g>
    <g id="ytick_4">
     <g id="line2d_10">
      <g>
       <use xlink:href="#mb03fb7e00c" x="34.5625" y="121.724" style="stroke: #000000; stroke-width: 0.8"/>
      </g>
     </g>
     <g id="text_11">
      <!-- 5 -->
      <g transform="translate(21.2 125.523219) scale(0.1 -0.1)">
       <defs>
        <path id="DejaVuSans-35" d="M 691 4666 
L 3169 4666 
L 3169 4134 
L 1269 4134 
L 1269 2991 
Q 1406 3038 1543 3061 
Q 1681 3084 1819 3084 
Q 2600 3084 3056 2656 
Q 3513 2228 3513 1497 
Q 3513 744 3044 326 
Q 2575 -91 1722 -91 
Q 1428 -91 1123 -41 
Q 819 9 494 109 
L 494 744 
Q 775 591 1075 516 
Q 1375 441 1709 441 
Q 2250 441 2565 725 
Q 2881 1009 2881 1497 
Q 2881 1984 2565 2268 
Q 2250 2553 1709 2553 
Q 1456 2553 1204 2497 
Q 953 2441 691 2322 
L 691 4666 
z
" transform="scale(0.015625)"/>
       </defs>
       <use xlink:href="#DejaVuSans-35"/>
      </g>
     </g>
    </g>
    <g id="ytick_5">
     <g id="line2d_11">
      <g>
       <use xlink:href="#mb03fb7e00c" x="34.5625" y="89.002857" style="stroke: #000000; stroke-width: 0.8"/>
      </g>
     </g>
     <g id="text_12">
      <!-- 6 -->
      <g transform="translate(21.2 92.802076) scale(0.1 -0.1)">
       <use xlink:href="#DejaVuSans-36"/>
      </g>
     </g>
    </g>
    <g id="ytick_6">
     <g id="line2d_12">
      <g>
       <use xlink:href="#mb03fb7e00c" x="34.5625" y="56.281714" style="stroke: #000000; stroke-width: 0.8"/>
      </g>
     </g>
     <g id="text_13">
      <!-- 7 -->
      <g transform="translate(21.2 60.080933) scale(0.1 -0.1)">
       <defs>
        <path id="DejaVuSans-37" d="M 525 4666 
L 3525 4666 
L 3525 4397 
L 1831 0 
L 1172 0 
L 2766 4134 
L 525 4134 
L 525 4666 
z
" transform="scale(0.015625)"/>
       </defs>
       <use xlink:href="#DejaVuSans-37"/>
      </g>
     </g>
    </g>
    <g id="ytick_7">
     <g id="line2d_13">
      <g>
       <use xlink:href="#mb03fb7e00c" x="34.5625" y="23.560571" style="stroke: #000000; stroke-width: 0.8"/>
      </g>
     </g>
     <g id="text_14">
      <!-- 8 -->
      <g transform="translate(21.2 27.35979) scale(0.1 -0.1)">
       <use xlink:href="#DejaVuSans-38"/>
      </g>
     </g>
    </g>
    <g id="text_15">
     <!-- WTMAD-2 or MUEPB / kcal mol${}^{-1}$ -->
     <g transform="translate(15.120313 203.424) rotate(-90) scale(0.1 -0.1)">
      <defs>
       <path id="DejaVuSans-57" d="M 213 4666 
L 850 4666 
L 1831 722 
L 2809 4666 
L 3519 4666 
L 4500 722 
L 5478 4666 
L 6119 4666 
L 4947 0 
L 4153 0 
L 3169 4050 
L 2175 0 
L 1381 0 
L 213 4666 
z
" transform="scale(0.015625)"/>
       <path id="DejaVuSans-54" d="M -19 4666 
L 3928 4666 
L 3928 4134 
L 2272 4134 
L 2272 0 
L 1638 0 
L 1638 4134 
L -19 4134 
L -19 4666 
z
" transform="scale(0.015625)"/>
       <path id="DejaVuSans-4d" d="M 628 4666 
L 1569 4666 
L 2759 1491 
L 3956 4666 
L 4897 4666 
L 4897 0 
L 4281 0 
L 4281 4097 
L 3078 897 
L 2444 897 
L 1241 4097 
L 1241 0 
L 628 0 
L 628 4666 
z
" transform="scale(0.015625)"/>
       <path id="DejaVuSans-41" d="M 2188 4044 
L 1331 1722 
L 3047 1722 
L 2188 4044 
z
M 1831 4666 
L 2547 4666 
L 4325 0 
L 3669 0 
L 3244 1197 
L 1141 1197 
L 716 0 
L 50 0 
L 1831 4666 
z
" transform="scale(0.015625)"/>
       <path id="DejaVuSans-44" d="M 1259 4147 
L 1259 519 
L 2022 519 
Q 2988 519 3436 956 
Q 3884 1394 3884 2338 
Q 3884 3275 3436 3711 
Q 2988 4147 2022 4147 
L 1259 4147 
z
M 628 4666 
L 1925 4666 
Q 3281 4666 3915 4102 
Q 4550 3538 4550 2338 
Q 4550 1131 3912 565 
Q 3275 0 1925 0 
L 628 0 
L 628 4666 
z
" transform="scale(0.015625)"/>
       <path id="DejaVuSans-2d" d="M 313 2009 
L 1997 2009 
L 1997 1497 
L 313 1497 
L 313 2009 
z
" transform="scale(0.015625)"/>
       <path id="DejaVuSans-55" d="M 556 4666 
L 1191 4666 
L 1191 1831 
Q 1191 1081 1462 751 
Q 1734 422 2344 422 
Q 2950 422 3222 751 
Q 3494 1081 3494 1831 
L 3494 4666 
L 4128 4666 
L 4128 1753 
Q 4128 841 3676 375 
Q 3225 -91 2344 -91 
Q 1459 -91 1007 375 
Q 556 841 556 1753 
L 556 4666 
z
" transform="scale(0.015625)"/>
       <path id="DejaVuSans-42" d="M 1259 2228 
L 1259 519 
L 2272 519 
Q 2781 519 3026 730 
Q 3272 941 3272 1375 
Q 3272 1813 3026 2020 
Q 2781 2228 2272 2228 
L 1259 2228 
z
M 1259 4147 
L 1259 2741 
L 2194 2741 
Q 2656 2741 2882 2914 
Q 3109 3088 3109 3444 
Q 3109 3797 2882 3972 
Q 2656 4147 2194 4147 
L 1259 4147 
z
M 628 4666 
L 2241 4666 
Q 2963 4666 3353 4366 
Q 3744 4066 3744 3513 
Q 3744 3084 3544 2831 
Q 3344 2578 2956 2516 
Q 3422 2416 3680 2098 
Q 3938 1781 3938 1306 
Q 3938 681 3513 340 
Q 3088 0 2303 0 
L 628 0 
L 628 4666 
z
" transform="scale(0.015625)"/>
       <path id="DejaVuSans-2f" d="M 1625 4666 
L 2156 4666 
L 531 -594 
L 0 -594 
L 1625 4666 
z
" transform="scale(0.015625)"/>
       <path id="DejaVuSans-6b" d="M 581 4863 
L 1159 4863 
L 1159 1991 
L 2875 3500 
L 3609 3500 
L 1753 1863 
L 3688 0 
L 2938 0 
L 1159 1709 
L 1159 0 
L 581 0 
L 581 4863 
z
" transform="scale(0.015625)"/>
       <path id="DejaVuSans-61" d="M 2194 1759 
Q 1497 1759 1228 1600 
Q 959 1441 959 1056 
Q 959 750 1161 570 
Q 1363 391 1709 391 
Q 2188 391 2477 730 
Q 2766 1069 2766 1631 
L 2766 1759 
L 2194 1759 
z
M 3341 1997 
L 3341 0 
L 2766 0 
L 2766 531 
Q 2569 213 2275 61 
Q 1981 -91 1556 -91 
Q 1019 -91 701 211 
Q 384 513 384 1019 
Q 384 1609 779 1909 
Q 1175 2209 1959 2209 
L 2766 2209 
L 2766 2266 
Q 2766 2663 2505 2880 
Q 2244 3097 1772 3097 
Q 1472 3097 1187 3025 
Q 903 2953 641 2809 
L 641 3341 
Q 956 3463 1253 3523 
Q 1550 3584 1831 3584 
Q 2591 3584 2966 3190 
Q 3341 2797 3341 1997 
z
" transform="scale(0.015625)"/>
       <path id="DejaVuSans-6c" d="M 603 4863 
L 1178 4863 
L 1178 0 
L 603 0 
L 603 4863 
z
" transform="scale(0.015625)"/>
       <path id="DejaVuSans-6d" d="M 3328 2828 
Q 3544 3216 3844 3400 
Q 4144 3584 4550 3584 
Q 5097 3584 5394 3201 
Q 5691 2819 5691 2113 
L 5691 0 
L 5113 0 
L 5113 2094 
Q 5113 2597 4934 2840 
Q 4756 3084 4391 3084 
Q 3944 3084 3684 2787 
Q 3425 2491 3425 1978 
L 3425 0 
L 2847 0 
L 2847 2094 
Q 2847 2600 2669 2842 
Q 2491 3084 2119 3084 
Q 1678 3084 1418 2786 
Q 1159 2488 1159 1978 
L 1159 0 
L 581 0 
L 581 3500 
L 1159 3500 
L 1159 2956 
Q 1356 3278 1631 3431 
Q 1906 3584 2284 3584 
Q 2666 3584 2933 3390 
Q 3200 3197 3328 2828 
z
" transform="scale(0.015625)"/>
       <path id="DejaVuSans-2212" d="M 678 2272 
L 4684 2272 
L 4684 1741 
L 678 1741 
L 678 2272 
z
" transform="scale(0.015625)"/>
      </defs>
      <use xlink:href="#DejaVuSans-57" transform="translate(0 0.684375)"/>
      <use xlink:href="#DejaVuSans-54" transform="translate(98.876953 0.684375)"/>
      <use xlink:href="#DejaVuSans-4d" transform="translate(159.960938 0.684375)"/>
      <use xlink:href="#DejaVuSans-41" transform="translate(246.240234 0.684375)"/>
      <use xlink:href="#DejaVuSans-44" transform="translate(314.648438 0.684375)"/>
      <use xlink:href="#DejaVuSans-2d" transform="translate(391.650391 0.684375)"/>
      <use xlink:href="#DejaVuSans-32" transform="translate(427.734375 0.684375)"/>
      <use xlink:href="#DejaVuSans-20" transform="translate(491.357422 0.684375)"/>
      <use xlink:href="#DejaVuSans-6f" transform="translate(523.144531 0.684375)"/>
      <use xlink:href="#DejaVuSans-72" transform="translate(584.326172 0.684375)"/>
      <use xlink:href="#DejaVuSans-20" transform="translate(625.439453 0.684375)"/>
      <use xlink:href="#DejaVuSans-4d" transform="translate(657.226562 0.684375)"/>
      <use xlink:href="#DejaVuSans-55" transform="translate(743.505859 0.684375)"/>
      <use xlink:href="#DejaVuSans-45" transform="translate(816.699219 0.684375)"/>
      <use xlink:href="#DejaVuSans-50" transform="translate(879.882812 0.684375)"/>
      <use xlink:href="#DejaVuSans-42" transform="translate(940.185547 0.684375)"/>
      <use xlink:href="#DejaVuSans-20" transform="translate(1008.789062 0.684375)"/>
      <use xlink:href="#DejaVuSans-2f" transform="translate(1040.576172 0.684375)"/>
      <use xlink:href="#DejaVuSans-20" transform="translate(1074.267578 0.684375)"/>
      <use xlink:href="#DejaVuSans-6b" transform="translate(1106.054688 0.684375)"/>
      <use xlink:href="#DejaVuSans-63" transform="translate(1163.964844 0.684375)"/>
      <use xlink:href="#DejaVuSans-61" transform="translate(1218.945312 0.684375)"/>
      <use xlink:href="#DejaVuSans-6c" transform="translate(1280.224609 0.684375)"/>
      <use xlink:href="#DejaVuSans-20" transform="translate(1308.007812 0.684375)"/>
      <use xlink:href="#DejaVuSans-6d" transform="translate(1339.794922 0.684375)"/>
      <use xlink:href="#DejaVuSans-6f" transform="translate(1437.207031 0.684375)"/>
      <use xlink:href="#DejaVuSans-6c" transform="translate(1498.388672 0.684375)"/>
      <use xlink:href="#DejaVuSans-2212" transform="translate(1527.128906 38.965625) scale(0.7)"/>
      <use xlink:href="#DejaVuSans-31" transform="translate(1585.78125 38.965625) scale(0.7)"/>
     </g>
    </g>
   </g>
   <g id="line2d_14">
    <path d="M 34.5625 154.380111 
L 41.1357 167.975596 
L 47.7089 167.85212 
L 54.2821 167.72734 
L 60.8553 167.583902 
L 67.4285 167.434852 
L 74.0017 167.191994 
L 80.5749 166.876934 
L 87.1481 184.248461 
L 93.7213 184.312264 
L 100.2945 184.328894 
L 106.8677 184.268267 
L 113.4409 184.147596 
L 120.0141 183.975238 
L 126.5873 183.739355 
L 133.1605 183.476958 
L 139.7337 188.784843 
L 146.3069 188.70588 
L 152.8801 189.475412 
L 159.4533 191.155635 
L 166.0265 193.182498 
L 172.5997 195.104266 
L 179.1729 196.032976 
L 185.7461 201.429275 
L 192.3193 208.357669 
L 198.8925 210.006102 
L 205.4657 210.702805 
L 212.0389 210.419989 
L 218.6121 209.987335 
L 225.1853 209.258977 
L 231.7585 209.133818 
L 238.3317 209.480806 
L 244.9049 208.810442 
L 251.4781 208.203559 
L 258.0513 207.422428 
L 264.6245 209.979294 
L 271.1977 211.646204 
L 277.7709 210.945782 
L 284.3441 209.9566 
L 290.9173 208.778994 
L 297.4905 208.130317 
" clip-path="url(#p1a54f58e23)" style="fill: none; stroke: #1f77b4; stroke-width: 1.5; stroke-linecap: square"/>
   </g>
   <g id="line2d_15">
    <path d="M 61.584784 -1 
L 67.4285 10.82687 
L 74.0017 24.524518 
L 80.5749 38.39859 
L 87.1481 1.625744 
L 93.7213 16.610962 
L 100.2945 31.967321 
L 106.8677 47.661911 
L 113.4409 63.54242 
L 120.0141 79.581124 
L 126.5873 95.845904 
L 133.1605 112.087633 
L 139.7337 115.952374 
L 146.3069 132.987614 
L 152.8801 144.850622 
L 159.4533 154.241078 
L 166.0265 167.19701 
L 172.5997 180.691218 
L 179.1729 195.460552 
L 185.7461 196.405054 
L 192.3193 179.587752 
L 198.8925 165.626915 
L 205.4657 149.684364 
L 212.0389 136.485358 
L 218.6121 123.191366 
L 225.1853 110.4806 
L 231.7585 96.543503 
L 238.3317 78.807452 
L 244.9049 65.899603 
L 251.4781 51.168957 
L 258.0513 37.805542 
L 264.6245 14.945912 
L 268.350738 -1 
" clip-path="url(#p1a54f58e23)" style="fill: none; stroke-dasharray: 5.55,2.4; stroke-dashoffset: 0; stroke: #ff7f0e; stroke-width: 1.5"/>
   </g>
   <g id="line2d_16">
    <path d="M 34.5625 173.376748 
L 41.1357 176.547192 
L 47.7089 177.405137 
L 54.2821 177.783333 
L 60.8553 178.119965 
L 67.4285 178.411394 
L 74.0017 178.833505 
L 80.5749 179.396827 
L 87.1481 173.742107 
L 93.7213 173.911556 
L 100.2945 174.203256 
L 106.8677 174.601984 
L 113.4409 175.042635 
L 120.0141 175.517768 
L 126.5873 175.97969 
L 133.1605 176.923151 
L 139.7337 167.855501 
L 146.3069 168.222076 
L 152.8801 176.428887 
L 159.4533 183.271683 
L 166.0265 182.374441 
L 172.5997 181.528893 
L 179.1729 183.13986 
L 185.7461 202.590136 
L 192.3193 233.193756 
L 198.8925 235.408857 
L 205.4657 235.184171 
L 212.0389 234.244953 
L 218.6121 232.82807 
L 225.1853 230.158516 
L 231.7585 229.81253 
L 238.3317 219.978591 
L 244.9049 215.728762 
L 251.4781 214.644267 
L 258.0513 210.957465 
L 264.6245 213.888318 
L 271.1977 210.08675 
L 277.7709 206.107168 
L 284.3441 201.620613 
L 290.9173 198.14446 
L 297.4905 194.19694 
" clip-path="url(#p1a54f58e23)" style="fill: none; stroke-dasharray: 5.55,2.4; stroke-dashoffset: 0; stroke: #2ca02c; stroke-width: 1.5"/>
   </g>
   <g id="line2d_17">
    <path d="M 34.5625 109.753282 
L 41.1357 98.425637 
L 47.7089 99.896062 
L 54.2821 100.898398 
L 60.8553 101.930516 
L 67.4285 102.998948 
L 74.0017 104.05196 
L 80.5749 105.070459 
L 87.1481 84.027843 
L 93.7213 85.952176 
L 100.2945 87.894512 
L 106.8677 89.86744 
L 113.4409 91.859017 
L 120.0141 93.876915 
L 126.5873 95.957971 
L 133.1605 97.811875 
L 139.7337 93.773592 
L 146.3069 95.932179 
L 152.8801 93.47845 
L 159.4533 90.061283 
L 166.0265 88.704349 
L 172.5997 87.259586 
L 179.1729 86.862061 
L 185.7461 75.598643 
L 192.3193 50.408119 
L 198.8925 46.099983 
L 205.4657 45.980819 
L 212.0389 49.815223 
L 218.6121 53.979366 
L 225.1853 60.284059 
L 231.7585 62.08726 
L 238.3317 62.467152 
L 244.9049 68.584449 
L 251.4781 71.737379 
L 258.0513 77.243901 
L 264.6245 67.224686 
L 271.1977 60.930769 
L 277.7709 67.506203 
L 284.3441 76.028735 
L 290.9173 82.562525 
L 297.4905 88.418272 
" clip-path="url(#p1a54f58e23)" style="fill: none; stroke-dasharray: 5.55,2.4; stroke-dashoffset: 0; stroke: #d62728; stroke-width: 1.5"/>
   </g>
   <g id="line2d_18">
    <path d="M 34.5625 210.166425 
L 41.1357 206.25249 
L 47.7089 207.102398 
L 54.2821 207.960076 
L 60.8553 208.827517 
L 67.4285 209.709301 
L 74.0017 210.584142 
L 80.5749 211.464191 
L 87.1481 207.347531 
L 93.7213 208.326396 
L 100.2945 209.299326 
L 106.8677 210.278121 
L 113.4409 211.274978 
L 120.0141 212.291023 
L 126.5873 213.312945 
L 133.1605 214.390991 
L 139.7337 212.996938 
L 146.3069 214.04913 
L 152.8801 216.446641 
L 159.4533 219.139575 
L 166.0265 218.581739 
L 172.5997 218.737294 
L 179.1729 220.52378 
L 185.7461 217.350323 
L 192.3193 225.810626 
L 198.8925 226.088832 
L 205.4657 226.161624 
L 212.0389 227.193972 
L 218.6121 228.204867 
L 225.1853 228.550365 
L 231.7585 229.841942 
L 238.3317 233.81037 
L 244.9049 234.290255 
L 251.4781 234.827874 
L 258.0513 235.381317 
L 264.6245 235.737714 
L 271.1977 236.01243 
L 277.7709 236.167076 
L 284.3441 236.360221 
L 290.9173 236.409768 
L 297.4905 236.450342 
" clip-path="url(#p1a54f58e23)" style="fill: none; stroke-dasharray: 1.5,2.475; stroke-dashoffset: 0; stroke: #9467bd; stroke-width: 1.5"/>
   </g>
   <g id="line2d_19">
    <path d="M 34.5625 129.621256 
L 41.1357 128.347302 
L 47.7089 128.862491 
L 54.2821 129.381456 
L 60.8553 129.904315 
L 67.4285 130.431408 
L 74.0017 130.976351 
L 80.5749 131.526497 
L 87.1481 127.853863 
L 93.7213 128.58989 
L 100.2945 129.348729 
L 106.8677 130.126779 
L 113.4409 130.910957 
L 120.0141 131.703077 
L 126.5873 132.509916 
L 133.1605 133.302722 
L 139.7337 132.359267 
L 146.3069 133.157151 
L 152.8801 132.967511 
L 159.4533 132.585263 
L 166.0265 132.495204 
L 172.5997 132.218231 
L 179.1729 131.463545 
L 185.7461 123.780297 
L 192.3193 124.584139 
L 198.8925 124.376714 
L 205.4657 125.225116 
L 212.0389 123.32207 
L 218.6121 121.751262 
L 225.1853 119.718816 
L 231.7585 118.15959 
L 238.3317 119.125459 
L 244.9049 117.070368 
L 251.4781 117.027038 
L 258.0513 115.330104 
L 264.6245 116.893454 
L 271.1977 122.716728 
L 277.7709 120.58576 
L 284.3441 118.391346 
L 290.9173 116.839376 
L 297.4905 114.564289 
" clip-path="url(#p1a54f58e23)" style="fill: none; stroke-dasharray: 1.5,2.475; stroke-dashoffset: 0; stroke: #8c564b; stroke-width: 1.5"/>
   </g>
   <g id="line2d_20">
    <path d="M 34.5625 132.823078 
L 41.1357 133.401194 
L 47.7089 135.302562 
L 54.2821 137.114126 
L 60.8553 138.919087 
L 67.4285 140.729251 
L 74.0017 142.551908 
L 80.5749 144.369275 
L 87.1481 144.547326 
L 93.7213 146.787286 
L 100.2945 149.063343 
L 106.8677 151.357912 
L 113.4409 153.653742 
L 120.0141 155.952151 
L 126.5873 158.255956 
L 133.1605 160.558339 
L 139.7337 162.135148 
L 146.3069 164.609752 
L 152.8801 166.93383 
L 159.4533 169.17412 
L 166.0265 171.411681 
L 172.5997 173.691627 
L 179.1729 176.043259 
L 185.7461 177.775368 
L 192.3193 179.281633 
L 198.8925 178.055178 
L 205.4657 176.551846 
L 212.0389 175.071427 
L 218.6121 173.547195 
L 225.1853 171.999036 
L 231.7585 170.371433 
L 238.3317 168.101911 
L 244.9049 166.417064 
L 251.4781 164.687484 
L 258.0513 162.915413 
L 264.6245 160.64783 
L 271.1977 157.733831 
L 277.7709 154.4734 
L 284.3441 151.180748 
L 290.9173 147.860197 
L 297.4905 144.52975 
" clip-path="url(#p1a54f58e23)" style="fill: none; stroke: #000000; stroke-width: 1.5; stroke-linecap: square"/>
   </g>
   <g id="line2d_21">
    <path d="M 191.514214 277.026125 
L 191.514214 -1 
" clip-path="url(#p1a54f58e23)" style="fill: none; stroke-dasharray: 6.4,1.6,1,1.6; stroke-dashoffset: 0; stroke: #000000"/>
   </g>
   <g id="patch_3">
    <path d="M 34.5625 236.248 
L 34.5625 7.2 
" style="fill: none; stroke: #000000; stroke-width: 0.8; stroke-linejoin: miter; stroke-linecap: square"/>
   </g>
   <g id="patch_4">
    <path d="M 297.4905 236.248 
L 297.4905 7.2 
" style="fill: none; stroke: #000000; stroke-width: 0.8; stroke-linejoin: miter; stroke-linecap: square"/>
   </g>
   <g id="patch_5">
    <path d="M 34.5625 236.248 
L 297.4905 236.248 
" style="fill: none; stroke: #000000; stroke-width: 0.8; stroke-linejoin: miter; stroke-linecap: square"/>
   </g>
   <g id="patch_6">
    <path d="M 34.5625 7.2 
L 297.4905 7.2 
" style="fill: none; stroke: #000000; stroke-width: 0.8; stroke-linejoin: miter; stroke-linecap: square"/>
   </g>
   <g id="legend_1">
    <g id="patch_7">
     <path d="M 304.4905 191.242235 
L 411.378 191.242235 
Q 413.378 191.242235 413.378 189.242235 
L 413.378 87.49536 
Q 413.378 85.49536 411.378 85.49536 
L 304.4905 85.49536 
Q 302.4905 85.49536 302.4905 87.49536 
L 302.4905 189.242235 
Q 302.4905 191.242235 304.4905 191.242235 
z
" style="fill: #ffffff; opacity: 0.8; stroke: #cccccc; stroke-linejoin: miter"/>
    </g>
    <g id="line2d_22">
     <path d="M 306.4905 93.593797 
L 316.4905 93.593797 
L 326.4905 93.593797 
" style="fill: none; stroke: #1f77b4; stroke-width: 1.5; stroke-linecap: square"/>
    </g>
    <g id="text_16">
     <!-- GMTKN55 -->
     <g transform="translate(334.4905 97.093797) scale(0.1 -0.1)">
      <defs>
       <path id="DejaVuSans-47" d="M 3809 666 
L 3809 1919 
L 2778 1919 
L 2778 2438 
L 4434 2438 
L 4434 434 
Q 4069 175 3628 42 
Q 3188 -91 2688 -91 
Q 1594 -91 976 548 
Q 359 1188 359 2328 
Q 359 3472 976 4111 
Q 1594 4750 2688 4750 
Q 3144 4750 3555 4637 
Q 3966 4525 4313 4306 
L 4313 3634 
Q 3963 3931 3569 4081 
Q 3175 4231 2741 4231 
Q 1884 4231 1454 3753 
Q 1025 3275 1025 2328 
Q 1025 1384 1454 906 
Q 1884 428 2741 428 
Q 3075 428 3337 486 
Q 3600 544 3809 666 
z
" transform="scale(0.015625)"/>
       <path id="DejaVuSans-4b" d="M 628 4666 
L 1259 4666 
L 1259 2694 
L 3353 4666 
L 4166 4666 
L 1850 2491 
L 4331 0 
L 3500 0 
L 1259 2247 
L 1259 0 
L 628 0 
L 628 4666 
z
" transform="scale(0.015625)"/>
       <path id="DejaVuSans-4e" d="M 628 4666 
L 1478 4666 
L 3547 763 
L 3547 4666 
L 4159 4666 
L 4159 0 
L 3309 0 
L 1241 3903 
L 1241 0 
L 628 0 
L 628 4666 
z
" transform="scale(0.015625)"/>
      </defs>
      <use xlink:href="#DejaVuSans-47"/>
      <use xlink:href="#DejaVuSans-4d" x="77.490234"/>
      <use xlink:href="#DejaVuSans-54" x="163.769531"/>
      <use xlink:href="#DejaVuSans-4b" x="224.853516"/>
      <use xlink:href="#DejaVuSans-4e" x="290.429688"/>
      <use xlink:href="#DejaVuSans-35" x="365.234375"/>
      <use xlink:href="#DejaVuSans-35" x="428.857422"/>
     </g>
    </g>
    <g id="line2d_23">
     <path d="M 306.4905 108.271923 
L 316.4905 108.271923 
L 326.4905 108.271923 
" style="fill: none; stroke-dasharray: 5.55,2.4; stroke-dashoffset: 0; stroke: #ff7f0e; stroke-width: 1.5"/>
    </g>
    <g id="text_17">
     <!-- MR-MGM-BE4 -->
     <g transform="translate(334.4905 111.771923) scale(0.1 -0.1)">
      <defs>
       <path id="DejaVuSans-52" d="M 2841 2188 
Q 3044 2119 3236 1894 
Q 3428 1669 3622 1275 
L 4263 0 
L 3584 0 
L 2988 1197 
Q 2756 1666 2539 1819 
Q 2322 1972 1947 1972 
L 1259 1972 
L 1259 0 
L 628 0 
L 628 4666 
L 2053 4666 
Q 2853 4666 3247 4331 
Q 3641 3997 3641 3322 
Q 3641 2881 3436 2590 
Q 3231 2300 2841 2188 
z
M 1259 4147 
L 1259 2491 
L 2053 2491 
Q 2509 2491 2742 2702 
Q 2975 2913 2975 3322 
Q 2975 3731 2742 3939 
Q 2509 4147 2053 4147 
L 1259 4147 
z
" transform="scale(0.015625)"/>
      </defs>
      <use xlink:href="#DejaVuSans-4d"/>
      <use xlink:href="#DejaVuSans-52" x="86.279297"/>
      <use xlink:href="#DejaVuSans-2d" x="151.761719"/>
      <use xlink:href="#DejaVuSans-4d" x="187.845703"/>
      <use xlink:href="#DejaVuSans-47" x="274.125"/>
      <use xlink:href="#DejaVuSans-4d" x="351.615234"/>
      <use xlink:href="#DejaVuSans-2d" x="437.894531"/>
      <use xlink:href="#DejaVuSans-42" x="470.353516"/>
      <use xlink:href="#DejaVuSans-45" x="538.957031"/>
      <use xlink:href="#DejaVuSans-34" x="602.140625"/>
     </g>
    </g>
    <g id="line2d_24">
     <path d="M 306.4905 122.950047 
L 316.4905 122.950047 
L 326.4905 122.950047 
" style="fill: none; stroke-dasharray: 5.55,2.4; stroke-dashoffset: 0; stroke: #2ca02c; stroke-width: 1.5"/>
    </g>
    <g id="text_18">
     <!-- MR-MGN-BE17 -->
     <g transform="translate(334.4905 126.450047) scale(0.1 -0.1)">
      <use xlink:href="#DejaVuSans-4d"/>
      <use xlink:href="#DejaVuSans-52" x="86.279297"/>
      <use xlink:href="#DejaVuSans-2d" x="151.761719"/>
      <use xlink:href="#DejaVuSans-4d" x="187.845703"/>
      <use xlink:href="#DejaVuSans-47" x="274.125"/>
      <use xlink:href="#DejaVuSans-4e" x="351.615234"/>
      <use xlink:href="#DejaVuSans-2d" x="426.419922"/>
      <use xlink:href="#DejaVuSans-42" x="458.878906"/>
      <use xlink:href="#DejaVuSans-45" x="527.482422"/>
      <use xlink:href="#DejaVuSans-31" x="590.666016"/>
      <use xlink:href="#DejaVuSans-37" x="654.289062"/>
     </g>
    </g>
    <g id="line2d_25">
     <path d="M 306.4905 137.628173 
L 316.4905 137.628173 
L 326.4905 137.628173 
" style="fill: none; stroke-dasharray: 5.55,2.4; stroke-dashoffset: 0; stroke: #d62728; stroke-width: 1.5"/>
    </g>
    <g id="text_19">
     <!-- MR-TM-BE13 -->
     <g transform="translate(334.4905 141.128173) scale(0.1 -0.1)">
      <use xlink:href="#DejaVuSans-4d"/>
      <use xlink:href="#DejaVuSans-52" x="86.279297"/>
      <use xlink:href="#DejaVuSans-2d" x="151.761719"/>
      <use xlink:href="#DejaVuSans-54" x="178.720703"/>
      <use xlink:href="#DejaVuSans-4d" x="239.804688"/>
      <use xlink:href="#DejaVuSans-2d" x="326.083984"/>
      <use xlink:href="#DejaVuSans-42" x="358.542969"/>
      <use xlink:href="#DejaVuSans-45" x="427.146484"/>
      <use xlink:href="#DejaVuSans-31" x="490.330078"/>
      <use xlink:href="#DejaVuSans-33" x="553.953125"/>
     </g>
    </g>
    <g id="line2d_26">
     <path d="M 306.4905 152.306297 
L 316.4905 152.306297 
L 326.4905 152.306297 
" style="fill: none; stroke-dasharray: 1.5,2.475; stroke-dashoffset: 0; stroke: #9467bd; stroke-width: 1.5"/>
    </g>
    <g id="text_20">
     <!-- SR-MGM-BE9 -->
     <g transform="translate(334.4905 155.806297) scale(0.1 -0.1)">
      <defs>
       <path id="DejaVuSans-53" d="M 3425 4513 
L 3425 3897 
Q 3066 4069 2747 4153 
Q 2428 4238 2131 4238 
Q 1616 4238 1336 4038 
Q 1056 3838 1056 3469 
Q 1056 3159 1242 3001 
Q 1428 2844 1947 2747 
L 2328 2669 
Q 3034 2534 3370 2195 
Q 3706 1856 3706 1288 
Q 3706 609 3251 259 
Q 2797 -91 1919 -91 
Q 1588 -91 1214 -16 
Q 841 59 441 206 
L 441 856 
Q 825 641 1194 531 
Q 1563 422 1919 422 
Q 2459 422 2753 634 
Q 3047 847 3047 1241 
Q 3047 1584 2836 1778 
Q 2625 1972 2144 2069 
L 1759 2144 
Q 1053 2284 737 2584 
Q 422 2884 422 3419 
Q 422 4038 858 4394 
Q 1294 4750 2059 4750 
Q 2388 4750 2728 4690 
Q 3069 4631 3425 4513 
z
" transform="scale(0.015625)"/>
       <path id="DejaVuSans-39" d="M 703 97 
L 703 672 
Q 941 559 1184 500 
Q 1428 441 1663 441 
Q 2288 441 2617 861 
Q 2947 1281 2994 2138 
Q 2813 1869 2534 1725 
Q 2256 1581 1919 1581 
Q 1219 1581 811 2004 
Q 403 2428 403 3163 
Q 403 3881 828 4315 
Q 1253 4750 1959 4750 
Q 2769 4750 3195 4129 
Q 3622 3509 3622 2328 
Q 3622 1225 3098 567 
Q 2575 -91 1691 -91 
Q 1453 -91 1209 -44 
Q 966 3 703 97 
z
M 1959 2075 
Q 2384 2075 2632 2365 
Q 2881 2656 2881 3163 
Q 2881 3666 2632 3958 
Q 2384 4250 1959 4250 
Q 1534 4250 1286 3958 
Q 1038 3666 1038 3163 
Q 1038 2656 1286 2365 
Q 1534 2075 1959 2075 
z
" transform="scale(0.015625)"/>
      </defs>
      <use xlink:href="#DejaVuSans-53"/>
      <use xlink:href="#DejaVuSans-52" x="63.476562"/>
      <use xlink:href="#DejaVuSans-2d" x="128.958984"/>
      <use xlink:href="#DejaVuSans-4d" x="165.042969"/>
      <use xlink:href="#DejaVuSans-47" x="251.322266"/>
      <use xlink:href="#DejaVuSans-4d" x="328.8125"/>
      <use xlink:href="#DejaVuSans-2d" x="415.091797"/>
      <use xlink:href="#DejaVuSans-42" x="447.550781"/>
      <use xlink:href="#DejaVuSans-45" x="516.154297"/>
      <use xlink:href="#DejaVuSans-39" x="579.337891"/>
     </g>
    </g>
    <g id="line2d_27">
     <path d="M 306.4905 166.984422 
L 316.4905 166.984422 
L 326.4905 166.984422 
" style="fill: none; stroke-dasharray: 1.5,2.475; stroke-dashoffset: 0; stroke: #8c564b; stroke-width: 1.5"/>
    </g>
    <g id="text_21">
     <!-- SR-TM-BE17 -->
     <g transform="translate(334.4905 170.484422) scale(0.1 -0.1)">
      <use xlink:href="#DejaVuSans-53"/>
      <use xlink:href="#DejaVuSans-52" x="63.476562"/>
      <use xlink:href="#DejaVuSans-2d" x="128.958984"/>
      <use xlink:href="#DejaVuSans-54" x="155.917969"/>
      <use xlink:href="#DejaVuSans-4d" x="217.001953"/>
      <use xlink:href="#DejaVuSans-2d" x="303.28125"/>
      <use xlink:href="#DejaVuSans-42" x="335.740234"/>
      <use xlink:href="#DejaVuSans-45" x="404.34375"/>
      <use xlink:href="#DejaVuSans-31" x="467.527344"/>
      <use xlink:href="#DejaVuSans-37" x="531.150391"/>
     </g>
    </g>
    <g id="line2d_28">
     <path d="M 306.4905 181.662547 
L 316.4905 181.662547 
L 326.4905 181.662547 
" style="fill: none; stroke: #000000; stroke-width: 1.5; stroke-linecap: square"/>
    </g>
    <g id="text_22">
     <!-- Weighted Error -->
     <g transform="translate(334.4905 185.162547) scale(0.1 -0.1)">
      <defs>
       <path id="DejaVuSans-65" d="M 3597 1894 
L 3597 1613 
L 953 1613 
Q 991 1019 1311 708 
Q 1631 397 2203 397 
Q 2534 397 2845 478 
Q 3156 559 3463 722 
L 3463 178 
Q 3153 47 2828 -22 
Q 2503 -91 2169 -91 
Q 1331 -91 842 396 
Q 353 884 353 1716 
Q 353 2575 817 3079 
Q 1281 3584 2069 3584 
Q 2775 3584 3186 3129 
Q 3597 2675 3597 1894 
z
M 3022 2063 
Q 3016 2534 2758 2815 
Q 2500 3097 2075 3097 
Q 1594 3097 1305 2825 
Q 1016 2553 972 2059 
L 3022 2063 
z
" transform="scale(0.015625)"/>
       <path id="DejaVuSans-67" d="M 2906 1791 
Q 2906 2416 2648 2759 
Q 2391 3103 1925 3103 
Q 1463 3103 1205 2759 
Q 947 2416 947 1791 
Q 947 1169 1205 825 
Q 1463 481 1925 481 
Q 2391 481 2648 825 
Q 2906 1169 2906 1791 
z
M 3481 434 
Q 3481 -459 3084 -895 
Q 2688 -1331 1869 -1331 
Q 1566 -1331 1297 -1286 
Q 1028 -1241 775 -1147 
L 775 -588 
Q 1028 -725 1275 -790 
Q 1522 -856 1778 -856 
Q 2344 -856 2625 -561 
Q 2906 -266 2906 331 
L 2906 616 
Q 2728 306 2450 153 
Q 2172 0 1784 0 
Q 1141 0 747 490 
Q 353 981 353 1791 
Q 353 2603 747 3093 
Q 1141 3584 1784 3584 
Q 2172 3584 2450 3431 
Q 2728 3278 2906 2969 
L 2906 3500 
L 3481 3500 
L 3481 434 
z
" transform="scale(0.015625)"/>
       <path id="DejaVuSans-68" d="M 3513 2113 
L 3513 0 
L 2938 0 
L 2938 2094 
Q 2938 2591 2744 2837 
Q 2550 3084 2163 3084 
Q 1697 3084 1428 2787 
Q 1159 2491 1159 1978 
L 1159 0 
L 581 0 
L 581 4863 
L 1159 4863 
L 1159 2956 
Q 1366 3272 1645 3428 
Q 1925 3584 2291 3584 
Q 2894 3584 3203 3211 
Q 3513 2838 3513 2113 
z
" transform="scale(0.015625)"/>
       <path id="DejaVuSans-64" d="M 2906 2969 
L 2906 4863 
L 3481 4863 
L 3481 0 
L 2906 0 
L 2906 525 
Q 2725 213 2448 61 
Q 2172 -91 1784 -91 
Q 1150 -91 751 415 
Q 353 922 353 1747 
Q 353 2572 751 3078 
Q 1150 3584 1784 3584 
Q 2172 3584 2448 3432 
Q 2725 3281 2906 2969 
z
M 947 1747 
Q 947 1113 1208 752 
Q 1469 391 1925 391 
Q 2381 391 2643 752 
Q 2906 1113 2906 1747 
Q 2906 2381 2643 2742 
Q 2381 3103 1925 3103 
Q 1469 3103 1208 2742 
Q 947 2381 947 1747 
z
" transform="scale(0.015625)"/>
      </defs>
      <use xlink:href="#DejaVuSans-57"/>
      <use xlink:href="#DejaVuSans-65" x="93.001953"/>
      <use xlink:href="#DejaVuSans-69" x="154.525391"/>
      <use xlink:href="#DejaVuSans-67" x="182.308594"/>
      <use xlink:href="#DejaVuSans-68" x="245.785156"/>
      <use xlink:href="#DejaVuSans-74" x="309.164062"/>
      <use xlink:href="#DejaVuSans-65" x="348.373047"/>
      <use xlink:href="#DejaVuSans-64" x="409.896484"/>
      <use xlink:href="#DejaVuSans-20" x="473.373047"/>
      <use xlink:href="#DejaVuSans-45" x="505.160156"/>
      <use xlink:href="#DejaVuSans-72" x="568.34375"/>
      <use xlink:href="#DejaVuSans-72" x="607.707031"/>
      <use xlink:href="#DejaVuSans-6f" x="646.570312"/>
      <use xlink:href="#DejaVuSans-72" x="707.751953"/>
     </g>
    </g>
   </g>
  </g>
 </g>
 <defs>
  <clipPath id="p1a54f58e23">
   <rect x="34.5625" y="7.2" width="262.928" height="229.048"/>
  </clipPath>
 </defs>
</svg>
