<?xml version="1.0" encoding="utf-8" standalone="no"?>
<!DOCTYPE svg PUBLIC "-//W3C//DTD SVG 1.1//EN"
  "http://www.w3.org/Graphics/SVG/1.1/DTD/svg11.dtd">
<svg xmlns:xlink="http://www.w3.org/1999/xlink" width="604.12pt" height="289.2435pt" viewBox="0 0 604.12 289.2435" xmlns="http://www.w3.org/2000/svg" version="1.1">
 <metadata>
  <rdf:RDF xmlns:dc="http://purl.org/dc/elements/1.1/" xmlns:cc="http://creativecommons.org/ns#" xmlns:rdf="http://www.w3.org/1999/02/22-rdf-syntax-ns#">
   <cc:Work>
    <dc:type rdf:resource="http://purl.org/dc/dcmitype/StillImage"/>
    <dc:date>2024-03-18T12:36:37.197394</dc:date>
    <dc:format>image/svg+xml</dc:format>
    <dc:creator>
     <cc:Agent>
      <dc:title>Matplotlib v3.8.0, https://matplotlib.org/</dc:title>
     </cc:Agent>
    </dc:creator>
   </cc:Work>
  </rdf:RDF>
 </metadata>
 <defs>
  <style type="text/css">*{stroke-linejoin: round; stroke-linecap: butt}</style>
 </defs>
 <g id="figure_1">
  <g id="patch_1">
   <path d="M 0 289.2435 
L 604.12 289.2435 
L 604.12 0 
L 0 0 
L 0 289.2435 
z
" style="fill: none"/>
  </g>
  <g id="axes_1">
   <g id="patch_2">
    <path d="M 47.158 228.6755 
L 264.7565 228.6755 
L 264.7565 35.7555 
L 47.158 35.7555 
L 47.158 228.6755 
z
" style="fill: none"/>
   </g>
   <g id="matplotlib.axis_1">
    <g id="xtick_1">
     <g id="line2d_1">
      <defs>
       <path id="m8c7af60bd0" d="M 0 0 
L 0 3.5 
" style="stroke: #000000; stroke-width: 0.8"/>
      </defs>
      <g>
       <use xlink:href="#m8c7af60bd0" x="63.896346" y="228.6755" style="stroke: #000000; stroke-width: 0.8"/>
      </g>
     </g>
     <g id="text_1">
      <!-- 0.4 -->
      <g transform="translate(55.944784 243.273937) scale(0.1 -0.1)">
       <defs>
        <path id="DejaVuSans-30" d="M 2034 4250 
Q 1547 4250 1301 3770 
Q 1056 3291 1056 2328 
Q 1056 1369 1301 889 
Q 1547 409 2034 409 
Q 2525 409 2770 889 
Q 3016 1369 3016 2328 
Q 3016 3291 2770 3770 
Q 2525 4250 2034 4250 
z
M 2034 4750 
Q 2819 4750 3233 4129 
Q 3647 3509 3647 2328 
Q 3647 1150 3233 529 
Q 2819 -91 2034 -91 
Q 1250 -91 836 529 
Q 422 1150 422 2328 
Q 422 3509 836 4129 
Q 1250 4750 2034 4750 
z
" transform="scale(0.015625)"/>
        <path id="DejaVuSans-2e" d="M 684 794 
L 1344 794 
L 1344 0 
L 684 0 
L 684 794 
z
" transform="scale(0.015625)"/>
        <path id="DejaVuSans-34" d="M 2419 4116 
L 825 1625 
L 2419 1625 
L 2419 4116 
z
M 2253 4666 
L 3047 4666 
L 3047 1625 
L 3713 1625 
L 3713 1100 
L 3047 1100 
L 3047 0 
L 2419 0 
L 2419 1100 
L 313 1100 
L 313 1709 
L 2253 4666 
z
" transform="scale(0.015625)"/>
       </defs>
       <use xlink:href="#DejaVuSans-30"/>
       <use xlink:href="#DejaVuSans-2e" x="63.623047"/>
       <use xlink:href="#DejaVuSans-34" x="95.410156"/>
      </g>
     </g>
    </g>
    <g id="xtick_2">
     <g id="line2d_2">
      <g>
       <use xlink:href="#m8c7af60bd0" x="97.373038" y="228.6755" style="stroke: #000000; stroke-width: 0.8"/>
      </g>
     </g>
     <g id="text_2">
      <!-- 0.5 -->
      <g transform="translate(89.421476 243.273937) scale(0.1 -0.1)">
       <defs>
        <path id="DejaVuSans-35" d="M 691 4666 
L 3169 4666 
L 3169 4134 
L 1269 4134 
L 1269 2991 
Q 1406 3038 1543 3061 
Q 1681 3084 1819 3084 
Q 2600 3084 3056 2656 
Q 3513 2228 3513 1497 
Q 3513 744 3044 326 
Q 2575 -91 1722 -91 
Q 1428 -91 1123 -41 
Q 819 9 494 109 
L 494 744 
Q 775 591 1075 516 
Q 1375 441 1709 441 
Q 2250 441 2565 725 
Q 2881 1009 2881 1497 
Q 2881 1984 2565 2268 
Q 2250 2553 1709 2553 
Q 1456 2553 1204 2497 
Q 953 2441 691 2322 
L 691 4666 
z
" transform="scale(0.015625)"/>
       </defs>
       <use xlink:href="#DejaVuSans-30"/>
       <use xlink:href="#DejaVuSans-2e" x="63.623047"/>
       <use xlink:href="#DejaVuSans-35" x="95.410156"/>
      </g>
     </g>
    </g>
    <g id="xtick_3">
     <g id="line2d_3">
      <g>
       <use xlink:href="#m8c7af60bd0" x="130.849731" y="228.6755" style="stroke: #000000; stroke-width: 0.8"/>
      </g>
     </g>
     <g id="text_3">
      <!-- 0.6 -->
      <g transform="translate(122.898168 243.273937) scale(0.1 -0.1)">
       <defs>
        <path id="DejaVuSans-36" d="M 2113 2584 
Q 1688 2584 1439 2293 
Q 1191 2003 1191 1497 
Q 1191 994 1439 701 
Q 1688 409 2113 409 
Q 2538 409 2786 701 
Q 3034 994 3034 1497 
Q 3034 2003 2786 2293 
Q 2538 2584 2113 2584 
z
M 3366 4563 
L 3366 3988 
Q 3128 4100 2886 4159 
Q 2644 4219 2406 4219 
Q 1781 4219 1451 3797 
Q 1122 3375 1075 2522 
Q 1259 2794 1537 2939 
Q 1816 3084 2150 3084 
Q 2853 3084 3261 2657 
Q 3669 2231 3669 1497 
Q 3669 778 3244 343 
Q 2819 -91 2113 -91 
Q 1303 -91 875 529 
Q 447 1150 447 2328 
Q 447 3434 972 4092 
Q 1497 4750 2381 4750 
Q 2619 4750 2861 4703 
Q 3103 4656 3366 4563 
z
" transform="scale(0.015625)"/>
       </defs>
       <use xlink:href="#DejaVuSans-30"/>
       <use xlink:href="#DejaVuSans-2e" x="63.623047"/>
       <use xlink:href="#DejaVuSans-36" x="95.410156"/>
      </g>
     </g>
    </g>
    <g id="xtick_4">
     <g id="line2d_4">
      <g>
       <use xlink:href="#m8c7af60bd0" x="164.326423" y="228.6755" style="stroke: #000000; stroke-width: 0.8"/>
      </g>
     </g>
     <g id="text_4">
      <!-- 0.7 -->
      <g transform="translate(156.374861 243.273937) scale(0.1 -0.1)">
       <defs>
        <path id="DejaVuSans-37" d="M 525 4666 
L 3525 4666 
L 3525 4397 
L 1831 0 
L 1172 0 
L 2766 4134 
L 525 4134 
L 525 4666 
z
" transform="scale(0.015625)"/>
       </defs>
       <use xlink:href="#DejaVuSans-30"/>
       <use xlink:href="#DejaVuSans-2e" x="63.623047"/>
       <use xlink:href="#DejaVuSans-37" x="95.410156"/>
      </g>
     </g>
    </g>
    <g id="xtick_5">
     <g id="line2d_5">
      <g>
       <use xlink:href="#m8c7af60bd0" x="197.803115" y="228.6755" style="stroke: #000000; stroke-width: 0.8"/>
      </g>
     </g>
     <g id="text_5">
      <!-- 0.8 -->
      <g transform="translate(189.851553 243.273937) scale(0.1 -0.1)">
       <defs>
        <path id="DejaVuSans-38" d="M 2034 2216 
Q 1584 2216 1326 1975 
Q 1069 1734 1069 1313 
Q 1069 891 1326 650 
Q 1584 409 2034 409 
Q 2484 409 2743 651 
Q 3003 894 3003 1313 
Q 3003 1734 2745 1975 
Q 2488 2216 2034 2216 
z
M 1403 2484 
Q 997 2584 770 2862 
Q 544 3141 544 3541 
Q 544 4100 942 4425 
Q 1341 4750 2034 4750 
Q 2731 4750 3128 4425 
Q 3525 4100 3525 3541 
Q 3525 3141 3298 2862 
Q 3072 2584 2669 2484 
Q 3125 2378 3379 2068 
Q 3634 1759 3634 1313 
Q 3634 634 3220 271 
Q 2806 -91 2034 -91 
Q 1263 -91 848 271 
Q 434 634 434 1313 
Q 434 1759 690 2068 
Q 947 2378 1403 2484 
z
M 1172 3481 
Q 1172 3119 1398 2916 
Q 1625 2713 2034 2713 
Q 2441 2713 2670 2916 
Q 2900 3119 2900 3481 
Q 2900 3844 2670 4047 
Q 2441 4250 2034 4250 
Q 1625 4250 1398 4047 
Q 1172 3844 1172 3481 
z
" transform="scale(0.015625)"/>
       </defs>
       <use xlink:href="#DejaVuSans-30"/>
       <use xlink:href="#DejaVuSans-2e" x="63.623047"/>
       <use xlink:href="#DejaVuSans-38" x="95.410156"/>
      </g>
     </g>
    </g>
    <g id="xtick_6">
     <g id="line2d_6">
      <g>
       <use xlink:href="#m8c7af60bd0" x="231.279808" y="228.6755" style="stroke: #000000; stroke-width: 0.8"/>
      </g>
     </g>
     <g id="text_6">
      <!-- 0.9 -->
      <g transform="translate(223.328245 243.273937) scale(0.1 -0.1)">
       <defs>
        <path id="DejaVuSans-39" d="M 703 97 
L 703 672 
Q 941 559 1184 500 
Q 1428 441 1663 441 
Q 2288 441 2617 861 
Q 2947 1281 2994 2138 
Q 2813 1869 2534 1725 
Q 2256 1581 1919 1581 
Q 1219 1581 811 2004 
Q 403 2428 403 3163 
Q 403 3881 828 4315 
Q 1253 4750 1959 4750 
Q 2769 4750 3195 4129 
Q 3622 3509 3622 2328 
Q 3622 1225 3098 567 
Q 2575 -91 1691 -91 
Q 1453 -91 1209 -44 
Q 966 3 703 97 
z
M 1959 2075 
Q 2384 2075 2632 2365 
Q 2881 2656 2881 3163 
Q 2881 3666 2632 3958 
Q 2384 4250 1959 4250 
Q 1534 4250 1286 3958 
Q 1038 3666 1038 3163 
Q 1038 2656 1286 2365 
Q 1534 2075 1959 2075 
z
" transform="scale(0.015625)"/>
       </defs>
       <use xlink:href="#DejaVuSans-30"/>
       <use xlink:href="#DejaVuSans-2e" x="63.623047"/>
       <use xlink:href="#DejaVuSans-39" x="95.410156"/>
      </g>
     </g>
    </g>
    <g id="xtick_7">
     <g id="line2d_7">
      <g>
       <use xlink:href="#m8c7af60bd0" x="264.7565" y="228.6755" style="stroke: #000000; stroke-width: 0.8"/>
      </g>
     </g>
     <g id="text_7">
      <!-- 1.0 -->
      <g transform="translate(256.804937 243.273937) scale(0.1 -0.1)">
       <defs>
        <path id="DejaVuSans-31" d="M 794 531 
L 1825 531 
L 1825 4091 
L 703 3866 
L 703 4441 
L 1819 4666 
L 2450 4666 
L 2450 531 
L 3481 531 
L 3481 0 
L 794 0 
L 794 531 
z
" transform="scale(0.015625)"/>
       </defs>
       <use xlink:href="#DejaVuSans-31"/>
       <use xlink:href="#DejaVuSans-2e" x="63.623047"/>
       <use xlink:href="#DejaVuSans-30" x="95.410156"/>
      </g>
     </g>
    </g>
   </g>
   <g id="matplotlib.axis_2">
    <g id="ytick_1">
     <g id="line2d_8">
      <defs>
       <path id="m274687de29" d="M 0 0 
L -3.5 0 
" style="stroke: #000000; stroke-width: 0.8"/>
      </defs>
      <g>
       <use xlink:href="#m274687de29" x="47.158" y="214.8955" style="stroke: #000000; stroke-width: 0.8"/>
      </g>
     </g>
     <g id="text_8">
      <!-- 2 -->
      <g transform="translate(33.7955 218.694719) scale(0.1 -0.1)">
       <defs>
        <path id="DejaVuSans-32" d="M 1228 531 
L 3431 531 
L 3431 0 
L 469 0 
L 469 531 
Q 828 903 1448 1529 
Q 2069 2156 2228 2338 
Q 2531 2678 2651 2914 
Q 2772 3150 2772 3378 
Q 2772 3750 2511 3984 
Q 2250 4219 1831 4219 
Q 1534 4219 1204 4116 
Q 875 4013 500 3803 
L 500 4441 
Q 881 4594 1212 4672 
Q 1544 4750 1819 4750 
Q 2544 4750 2975 4387 
Q 3406 4025 3406 3419 
Q 3406 3131 3298 2873 
Q 3191 2616 2906 2266 
Q 2828 2175 2409 1742 
Q 1991 1309 1228 531 
z
" transform="scale(0.015625)"/>
       </defs>
       <use xlink:href="#DejaVuSans-32"/>
      </g>
     </g>
    </g>
    <g id="ytick_2">
     <g id="line2d_9">
      <g>
       <use xlink:href="#m274687de29" x="47.158" y="187.3355" style="stroke: #000000; stroke-width: 0.8"/>
      </g>
     </g>
     <g id="text_9">
      <!-- 3 -->
      <g transform="translate(33.7955 191.134719) scale(0.1 -0.1)">
       <defs>
        <path id="DejaVuSans-33" d="M 2597 2516 
Q 3050 2419 3304 2112 
Q 3559 1806 3559 1356 
Q 3559 666 3084 287 
Q 2609 -91 1734 -91 
Q 1441 -91 1130 -33 
Q 819 25 488 141 
L 488 750 
Q 750 597 1062 519 
Q 1375 441 1716 441 
Q 2309 441 2620 675 
Q 2931 909 2931 1356 
Q 2931 1769 2642 2001 
Q 2353 2234 1838 2234 
L 1294 2234 
L 1294 2753 
L 1863 2753 
Q 2328 2753 2575 2939 
Q 2822 3125 2822 3475 
Q 2822 3834 2567 4026 
Q 2313 4219 1838 4219 
Q 1578 4219 1281 4162 
Q 984 4106 628 3988 
L 628 4550 
Q 988 4650 1302 4700 
Q 1616 4750 1894 4750 
Q 2613 4750 3031 4423 
Q 3450 4097 3450 3541 
Q 3450 3153 3228 2886 
Q 3006 2619 2597 2516 
z
" transform="scale(0.015625)"/>
       </defs>
       <use xlink:href="#DejaVuSans-33"/>
      </g>
     </g>
    </g>
    <g id="ytick_3">
     <g id="line2d_10">
      <g>
       <use xlink:href="#m274687de29" x="47.158" y="159.7755" style="stroke: #000000; stroke-width: 0.8"/>
      </g>
     </g>
     <g id="text_10">
      <!-- 4 -->
      <g transform="translate(33.7955 163.574719) scale(0.1 -0.1)">
       <use xlink:href="#DejaVuSans-34"/>
      </g>
     </g>
    </g>
    <g id="ytick_4">
     <g id="line2d_11">
      <g>
       <use xlink:href="#m274687de29" x="47.158" y="132.2155" style="stroke: #000000; stroke-width: 0.8"/>
      </g>
     </g>
     <g id="text_11">
      <!-- 5 -->
      <g transform="translate(33.7955 136.014719) scale(0.1 -0.1)">
       <use xlink:href="#DejaVuSans-35"/>
      </g>
     </g>
    </g>
    <g id="ytick_5">
     <g id="line2d_12">
      <g>
       <use xlink:href="#m274687de29" x="47.158" y="104.6555" style="stroke: #000000; stroke-width: 0.8"/>
      </g>
     </g>
     <g id="text_12">
      <!-- 6 -->
      <g transform="translate(33.7955 108.454719) scale(0.1 -0.1)">
       <use xlink:href="#DejaVuSans-36"/>
      </g>
     </g>
    </g>
    <g id="ytick_6">
     <g id="line2d_13">
      <g>
       <use xlink:href="#m274687de29" x="47.158" y="77.0955" style="stroke: #000000; stroke-width: 0.8"/>
      </g>
     </g>
     <g id="text_13">
      <!-- 7 -->
      <g transform="translate(33.7955 80.894719) scale(0.1 -0.1)">
       <use xlink:href="#DejaVuSans-37"/>
      </g>
     </g>
    </g>
    <g id="ytick_7">
     <g id="line2d_14">
      <g>
       <use xlink:href="#m274687de29" x="47.158" y="49.5355" style="stroke: #000000; stroke-width: 0.8"/>
      </g>
     </g>
     <g id="text_14">
      <!-- 8 -->
      <g transform="translate(33.7955 53.334719) scale(0.1 -0.1)">
       <use xlink:href="#DejaVuSans-38"/>
      </g>
     </g>
    </g>
   </g>
   <g id="line2d_15">
    <path d="M 19.549555 -1 
L 22.050481 2.133702 
L 30.419654 12.357269 
L 38.788827 22.756264 
L 47.158 32.962906 
L 55.527173 43.281203 
L 63.896346 53.526384 
L 72.265519 63.515973 
L 80.634692 73.718038 
L 89.003865 83.925521 
L 97.373038 94.013637 
L 105.742212 104.052272 
L 114.111385 113.830219 
L 122.480558 123.819641 
L 130.849731 133.623139 
L 139.218904 143.203232 
L 147.588077 152.671612 
L 155.95725 161.812875 
L 164.326423 170.592177 
L 172.695596 178.792828 
L 181.064769 186.612498 
L 189.433942 193.749833 
L 197.803115 200.457542 
L 206.172288 206.576117 
L 214.541462 211.460816 
L 222.910635 214.577657 
L 231.279808 215.336835 
L 239.648981 213.893775 
L 248.018154 210.342868 
L 256.387327 205.143464 
L 264.7565 198.775019 
" clip-path="url(#pacd022e159)" style="fill: none; stroke: #1f77b4; stroke-width: 1.5; stroke-linecap: square"/>
   </g>
   <g id="line2d_16">
    <path d="M 109.454406 -1 
L 114.111385 40.49155 
L 122.480558 41.359271 
L 130.849731 40.061561 
L 139.218904 88.899721 
L 147.588077 87.562592 
L 155.95725 91.938098 
L 164.326423 101.08789 
L 172.695596 112.352565 
L 181.064769 112.228713 
L 189.433942 124.609249 
L 197.803115 127.395502 
L 206.172288 124.046775 
L 214.541462 112.975746 
L 222.910635 107.317933 
L 231.057072 -1 
" clip-path="url(#pacd022e159)" style="fill: none; stroke-dasharray: 5.55,2.4; stroke-dashoffset: 0; stroke: #ff7f0e; stroke-width: 1.5"/>
   </g>
   <g id="line2d_17">
    <path d="M 6.522482 -1 
L 13.681308 18.652443 
L 22.050481 19.272771 
L 30.419654 39.664591 
L 38.788827 43.631835 
L 47.158 54.587787 
L 55.527173 62.892756 
L 63.896346 68.270254 
L 72.265519 82.324599 
L 80.634692 98.033016 
L 89.003865 99.28913 
L 97.373038 112.086885 
L 105.742212 119.501774 
L 114.111385 135.163286 
L 122.480558 137.541389 
L 130.849731 148.518507 
L 139.218904 160.340967 
L 147.588077 164.685337 
L 155.95725 173.991495 
L 164.326423 179.053614 
L 172.695596 184.74391 
L 181.064769 190.606776 
L 189.433942 195.75147 
L 197.803115 207.893322 
L 206.172288 211.77972 
L 214.541462 212.461552 
L 222.910635 215.005434 
L 231.279808 202.023484 
L 239.648981 194.530934 
L 248.018154 197.517085 
L 256.387327 196.727503 
L 264.7565 188.884235 
" clip-path="url(#pacd022e159)" style="fill: none; stroke-dasharray: 5.55,2.4; stroke-dashoffset: 0; stroke: #2ca02c; stroke-width: 1.5"/>
   </g>
   <g id="line2d_18">
    <path d="M -1 66.88901 
L 5.312135 67.203887 
L 13.681308 71.886622 
L 22.050481 73.973412 
L 30.419654 78.848921 
L 38.788827 79.052502 
L 47.158 84.572054 
L 55.527173 83.398466 
L 63.896346 89.03984 
L 72.265519 92.168266 
L 80.634692 97.106933 
L 89.003865 98.657237 
L 97.373038 98.855926 
L 105.742212 98.810624 
L 114.111385 96.867296 
L 122.480558 94.72285 
L 130.849731 95.997142 
L 139.218904 91.296232 
L 147.588077 87.179812 
L 155.95725 81.087707 
L 164.326423 72.499649 
L 172.695596 58.998564 
L 181.064769 52.793443 
L 189.433942 36.140275 
L 197.803115 35.348252 
L 206.172288 14.976351 
L 214.541462 4.241274 
L 221.615529 -1 
" clip-path="url(#pacd022e159)" style="fill: none; stroke-dasharray: 5.55,2.4; stroke-dashoffset: 0; stroke: #d62728; stroke-width: 1.5"/>
   </g>
   <g id="line2d_19">
    <path d="M -1 151.379899 
L 5.312135 149.914649 
L 13.681308 156.584727 
L 22.050481 158.484866 
L 30.419654 165.774208 
L 38.788827 166.464948 
L 47.158 174.784167 
L 55.527173 174.195671 
L 63.896346 176.813772 
L 72.265519 185.046491 
L 80.634692 186.508528 
L 89.003865 190.472991 
L 97.373038 190.728978 
L 105.742212 191.287294 
L 114.111385 199.765904 
L 122.480558 203.735225 
L 130.849731 203.88259 
L 139.218904 208.901612 
L 147.588077 210.947489 
L 155.95725 214.118625 
L 164.326423 218.975279 
L 172.695596 222.446807 
L 181.064769 223.222383 
L 189.433942 225.546304 
L 197.803115 225.86858 
L 206.172288 227.293767 
L 214.541462 226.952124 
L 222.910635 226.678576 
L 231.279808 227.05763 
L 239.648981 227.612487 
L 248.018154 227.32817 
L 256.387327 226.935267 
L 264.7565 227.212961 
" clip-path="url(#pacd022e159)" style="fill: none; stroke-dasharray: 1.5,2.475; stroke-dashoffset: 0; stroke: #9467bd; stroke-width: 1.5"/>
   </g>
   <g id="line2d_20">
    <path d="M -1 94.001109 
L 5.312135 94.745579 
L 13.681308 100.436432 
L 22.050481 100.679663 
L 30.419654 105.554535 
L 38.788827 107.394351 
L 47.158 110.641381 
L 55.527173 113.939865 
L 63.896346 114.440241 
L 72.265519 119.955634 
L 80.634692 123.635384 
L 89.003865 124.990475 
L 97.373038 128.090094 
L 105.742212 129.29145 
L 114.111385 134.22987 
L 122.480558 134.454519 
L 130.849731 135.772775 
L 139.218904 139.084992 
L 147.588077 139.591137 
L 155.95725 141.391506 
L 164.326423 142.332378 
L 172.695596 139.331882 
L 181.064769 137.235232 
L 189.433942 131.09707 
L 197.803115 131.042404 
L 206.172288 123.544421 
L 214.541462 119.142747 
L 222.910635 116.243889 
L 231.279808 103.823247 
L 239.648981 98.597842 
L 248.018154 97.161959 
L 256.387327 95.424076 
L 264.7565 90.51989 
" clip-path="url(#pacd022e159)" style="fill: none; stroke-dasharray: 1.5,2.475; stroke-dashoffset: 0; stroke: #8c564b; stroke-width: 1.5"/>
   </g>
   <g id="line2d_21">
    <path d="M 11.548518 -1 
L 13.681308 4.93143 
L 22.050481 6.665164 
L 30.419654 25.555139 
L 38.788827 29.049053 
L 47.158 43.861011 
L 55.527173 48.440423 
L 63.896346 53.087448 
L 72.265519 72.299762 
L 80.634692 81.592243 
L 89.003865 86.619177 
L 97.373038 93.160372 
L 105.742212 98.091591 
L 114.111385 114.023486 
L 122.480558 119.199954 
L 130.849731 124.950972 
L 139.218904 136.590671 
L 147.588077 141.053025 
L 155.95725 146.449067 
L 164.326423 151.636947 
L 172.695596 155.677776 
L 181.064769 158.951218 
L 189.433942 161.725333 
L 197.803115 166.174911 
L 206.172288 165.790521 
L 214.541462 165.017458 
L 222.910635 164.924267 
L 231.279808 146.078418 
L 239.648981 140.56797 
L 248.018154 135.774808 
L 256.387327 131.73081 
L 264.7565 122.421755 
" clip-path="url(#pacd022e159)" style="fill: none; stroke: #000000; stroke-width: 1.5; stroke-linecap: square"/>
   </g>
   <g id="line2d_22">
    <path d="M 229.809846 270.0155 
L 229.809846 -1 
" clip-path="url(#pacd022e159)" style="fill: none; stroke-dasharray: 6.4,1.6,1,1.6; stroke-dashoffset: 0; stroke: #000000"/>
   </g>
   <g id="patch_3">
    <path d="M 47.158 228.6755 
L 47.158 35.7555 
" style="fill: none; stroke: #000000; stroke-width: 0.8; stroke-linejoin: miter; stroke-linecap: square"/>
   </g>
   <g id="patch_4">
    <path d="M 264.7565 228.6755 
L 264.7565 35.7555 
" style="fill: none; stroke: #000000; stroke-width: 0.8; stroke-linejoin: miter; stroke-linecap: square"/>
   </g>
   <g id="patch_5">
    <path d="M 47.158 228.6755 
L 264.7565 228.6755 
" style="fill: none; stroke: #000000; stroke-width: 0.8; stroke-linejoin: miter; stroke-linecap: square"/>
   </g>
   <g id="patch_6">
    <path d="M 47.158 35.7555 
L 264.7565 35.7555 
" style="fill: none; stroke: #000000; stroke-width: 0.8; stroke-linejoin: miter; stroke-linecap: square"/>
   </g>
   <g id="text_15">
    <!-- XYG6+1/cr -->
    <g transform="translate(123.083813 16.318125) scale(0.12 -0.12)">
     <defs>
      <path id="DejaVuSans-58" d="M 403 4666 
L 1081 4666 
L 2241 2931 
L 3406 4666 
L 4084 4666 
L 2584 2425 
L 4184 0 
L 3506 0 
L 2194 1984 
L 872 0 
L 191 0 
L 1856 2491 
L 403 4666 
z
" transform="scale(0.015625)"/>
      <path id="DejaVuSans-59" d="M -13 4666 
L 666 4666 
L 1959 2747 
L 3244 4666 
L 3922 4666 
L 2272 2222 
L 2272 0 
L 1638 0 
L 1638 2222 
L -13 4666 
z
" transform="scale(0.015625)"/>
      <path id="DejaVuSans-47" d="M 3809 666 
L 3809 1919 
L 2778 1919 
L 2778 2438 
L 4434 2438 
L 4434 434 
Q 4069 175 3628 42 
Q 3188 -91 2688 -91 
Q 1594 -91 976 548 
Q 359 1188 359 2328 
Q 359 3472 976 4111 
Q 1594 4750 2688 4750 
Q 3144 4750 3555 4637 
Q 3966 4525 4313 4306 
L 4313 3634 
Q 3963 3931 3569 4081 
Q 3175 4231 2741 4231 
Q 1884 4231 1454 3753 
Q 1025 3275 1025 2328 
Q 1025 1384 1454 906 
Q 1884 428 2741 428 
Q 3075 428 3337 486 
Q 3600 544 3809 666 
z
" transform="scale(0.015625)"/>
      <path id="DejaVuSans-2b" d="M 2944 4013 
L 2944 2272 
L 4684 2272 
L 4684 1741 
L 2944 1741 
L 2944 0 
L 2419 0 
L 2419 1741 
L 678 1741 
L 678 2272 
L 2419 2272 
L 2419 4013 
L 2944 4013 
z
" transform="scale(0.015625)"/>
      <path id="DejaVuSans-2f" d="M 1625 4666 
L 2156 4666 
L 531 -594 
L 0 -594 
L 1625 4666 
z
" transform="scale(0.015625)"/>
      <path id="DejaVuSans-63" d="M 3122 3366 
L 3122 2828 
Q 2878 2963 2633 3030 
Q 2388 3097 2138 3097 
Q 1578 3097 1268 2742 
Q 959 2388 959 1747 
Q 959 1106 1268 751 
Q 1578 397 2138 397 
Q 2388 397 2633 464 
Q 2878 531 3122 666 
L 3122 134 
Q 2881 22 2623 -34 
Q 2366 -91 2075 -91 
Q 1284 -91 818 406 
Q 353 903 353 1747 
Q 353 2603 823 3093 
Q 1294 3584 2113 3584 
Q 2378 3584 2631 3529 
Q 2884 3475 3122 3366 
z
" transform="scale(0.015625)"/>
      <path id="DejaVuSans-72" d="M 2631 2963 
Q 2534 3019 2420 3045 
Q 2306 3072 2169 3072 
Q 1681 3072 1420 2755 
Q 1159 2438 1159 1844 
L 1159 0 
L 581 0 
L 581 3500 
L 1159 3500 
L 1159 2956 
Q 1341 3275 1631 3429 
Q 1922 3584 2338 3584 
Q 2397 3584 2469 3576 
Q 2541 3569 2628 3553 
L 2631 2963 
z
" transform="scale(0.015625)"/>
     </defs>
     <use xlink:href="#DejaVuSans-58"/>
     <use xlink:href="#DejaVuSans-59" x="68.505859"/>
     <use xlink:href="#DejaVuSans-47" x="129.589844"/>
     <use xlink:href="#DejaVuSans-36" x="207.080078"/>
     <use xlink:href="#DejaVuSans-2b" x="270.703125"/>
     <use xlink:href="#DejaVuSans-31" x="354.492188"/>
     <use xlink:href="#DejaVuSans-2f" x="418.115234"/>
     <use xlink:href="#DejaVuSans-63" x="451.806641"/>
     <use xlink:href="#DejaVuSans-72" x="506.787109"/>
    </g>
    <!-- GMTKN55 -->
    <g transform="translate(126.408188 29.7555) scale(0.12 -0.12)">
     <defs>
      <path id="DejaVuSans-4d" d="M 628 4666 
L 1569 4666 
L 2759 1491 
L 3956 4666 
L 4897 4666 
L 4897 0 
L 4281 0 
L 4281 4097 
L 3078 897 
L 2444 897 
L 1241 4097 
L 1241 0 
L 628 0 
L 628 4666 
z
" transform="scale(0.015625)"/>
      <path id="DejaVuSans-54" d="M -19 4666 
L 3928 4666 
L 3928 4134 
L 2272 4134 
L 2272 0 
L 1638 0 
L 1638 4134 
L -19 4134 
L -19 4666 
z
" transform="scale(0.015625)"/>
      <path id="DejaVuSans-4b" d="M 628 4666 
L 1259 4666 
L 1259 2694 
L 3353 4666 
L 4166 4666 
L 1850 2491 
L 4331 0 
L 3500 0 
L 1259 2247 
L 1259 0 
L 628 0 
L 628 4666 
z
" transform="scale(0.015625)"/>
      <path id="DejaVuSans-4e" d="M 628 4666 
L 1478 4666 
L 3547 763 
L 3547 4666 
L 4159 4666 
L 4159 0 
L 3309 0 
L 1241 3903 
L 1241 0 
L 628 0 
L 628 4666 
z
" transform="scale(0.015625)"/>
     </defs>
     <use xlink:href="#DejaVuSans-47"/>
     <use xlink:href="#DejaVuSans-4d" x="77.490234"/>
     <use xlink:href="#DejaVuSans-54" x="163.769531"/>
     <use xlink:href="#DejaVuSans-4b" x="224.853516"/>
     <use xlink:href="#DejaVuSans-4e" x="290.429688"/>
     <use xlink:href="#DejaVuSans-35" x="365.234375"/>
     <use xlink:href="#DejaVuSans-35" x="428.857422"/>
    </g>
   </g>
  </g>
  <g id="axes_2">
   <g id="patch_7">
    <path d="M 264.7565 228.6755 
L 482.355 228.6755 
L 482.355 35.7555 
L 264.7565 35.7555 
L 264.7565 228.6755 
z
" style="fill: none"/>
   </g>
   <g id="matplotlib.axis_3">
    <g id="xtick_8">
     <g id="line2d_23">
      <g>
       <use xlink:href="#m8c7af60bd0" x="281.494846" y="228.6755" style="stroke: #000000; stroke-width: 0.8"/>
      </g>
     </g>
     <g id="text_16">
      <!-- 0.4 -->
      <g transform="translate(273.543284 243.273937) scale(0.1 -0.1)">
       <use xlink:href="#DejaVuSans-30"/>
       <use xlink:href="#DejaVuSans-2e" x="63.623047"/>
       <use xlink:href="#DejaVuSans-34" x="95.410156"/>
      </g>
     </g>
    </g>
    <g id="xtick_9">
     <g id="line2d_24">
      <g>
       <use xlink:href="#m8c7af60bd0" x="314.971538" y="228.6755" style="stroke: #000000; stroke-width: 0.8"/>
      </g>
     </g>
     <g id="text_17">
      <!-- 0.5 -->
      <g transform="translate(307.019976 243.273937) scale(0.1 -0.1)">
       <use xlink:href="#DejaVuSans-30"/>
       <use xlink:href="#DejaVuSans-2e" x="63.623047"/>
       <use xlink:href="#DejaVuSans-35" x="95.410156"/>
      </g>
     </g>
    </g>
    <g id="xtick_10">
     <g id="line2d_25">
      <g>
       <use xlink:href="#m8c7af60bd0" x="348.448231" y="228.6755" style="stroke: #000000; stroke-width: 0.8"/>
      </g>
     </g>
     <g id="text_18">
      <!-- 0.6 -->
      <g transform="translate(340.496668 243.273937) scale(0.1 -0.1)">
       <use xlink:href="#DejaVuSans-30"/>
       <use xlink:href="#DejaVuSans-2e" x="63.623047"/>
       <use xlink:href="#DejaVuSans-36" x="95.410156"/>
      </g>
     </g>
    </g>
    <g id="xtick_11">
     <g id="line2d_26">
      <g>
       <use xlink:href="#m8c7af60bd0" x="381.924923" y="228.6755" style="stroke: #000000; stroke-width: 0.8"/>
      </g>
     </g>
     <g id="text_19">
      <!-- 0.7 -->
      <g transform="translate(373.973361 243.273937) scale(0.1 -0.1)">
       <use xlink:href="#DejaVuSans-30"/>
       <use xlink:href="#DejaVuSans-2e" x="63.623047"/>
       <use xlink:href="#DejaVuSans-37" x="95.410156"/>
      </g>
     </g>
    </g>
    <g id="xtick_12">
     <g id="line2d_27">
      <g>
       <use xlink:href="#m8c7af60bd0" x="415.401615" y="228.6755" style="stroke: #000000; stroke-width: 0.8"/>
      </g>
     </g>
     <g id="text_20">
      <!-- 0.8 -->
      <g transform="translate(407.450053 243.273937) scale(0.1 -0.1)">
       <use xlink:href="#DejaVuSans-30"/>
       <use xlink:href="#DejaVuSans-2e" x="63.623047"/>
       <use xlink:href="#DejaVuSans-38" x="95.410156"/>
      </g>
     </g>
    </g>
    <g id="xtick_13">
     <g id="line2d_28">
      <g>
       <use xlink:href="#m8c7af60bd0" x="448.878308" y="228.6755" style="stroke: #000000; stroke-width: 0.8"/>
      </g>
     </g>
     <g id="text_21">
      <!-- 0.9 -->
      <g transform="translate(440.926745 243.273937) scale(0.1 -0.1)">
       <use xlink:href="#DejaVuSans-30"/>
       <use xlink:href="#DejaVuSans-2e" x="63.623047"/>
       <use xlink:href="#DejaVuSans-39" x="95.410156"/>
      </g>
     </g>
    </g>
    <g id="xtick_14">
     <g id="line2d_29">
      <g>
       <use xlink:href="#m8c7af60bd0" x="482.355" y="228.6755" style="stroke: #000000; stroke-width: 0.8"/>
      </g>
     </g>
     <g id="text_22">
      <!-- 1.0 -->
      <g transform="translate(474.403437 243.273937) scale(0.1 -0.1)">
       <use xlink:href="#DejaVuSans-31"/>
       <use xlink:href="#DejaVuSans-2e" x="63.623047"/>
       <use xlink:href="#DejaVuSans-30" x="95.410156"/>
      </g>
     </g>
    </g>
   </g>
   <g id="matplotlib.axis_4">
    <g id="ytick_8">
     <g id="line2d_30">
      <g>
       <use xlink:href="#m274687de29" x="264.7565" y="214.8955" style="stroke: #000000; stroke-width: 0.8"/>
      </g>
     </g>
    </g>
    <g id="ytick_9">
     <g id="line2d_31">
      <g>
       <use xlink:href="#m274687de29" x="264.7565" y="187.3355" style="stroke: #000000; stroke-width: 0.8"/>
      </g>
     </g>
    </g>
    <g id="ytick_10">
     <g id="line2d_32">
      <g>
       <use xlink:href="#m274687de29" x="264.7565" y="159.7755" style="stroke: #000000; stroke-width: 0.8"/>
      </g>
     </g>
    </g>
    <g id="ytick_11">
     <g id="line2d_33">
      <g>
       <use xlink:href="#m274687de29" x="264.7565" y="132.2155" style="stroke: #000000; stroke-width: 0.8"/>
      </g>
     </g>
    </g>
    <g id="ytick_12">
     <g id="line2d_34">
      <g>
       <use xlink:href="#m274687de29" x="264.7565" y="104.6555" style="stroke: #000000; stroke-width: 0.8"/>
      </g>
     </g>
    </g>
    <g id="ytick_13">
     <g id="line2d_35">
      <g>
       <use xlink:href="#m274687de29" x="264.7565" y="77.0955" style="stroke: #000000; stroke-width: 0.8"/>
      </g>
     </g>
    </g>
    <g id="ytick_14">
     <g id="line2d_36">
      <g>
       <use xlink:href="#m274687de29" x="264.7565" y="49.5355" style="stroke: #000000; stroke-width: 0.8"/>
      </g>
     </g>
    </g>
   </g>
   <g id="line2d_37">
    <path d="M 246.13112 -1 
L 248.018154 1.454838 
L 256.387327 11.314424 
L 264.7565 21.772718 
L 273.125673 31.357951 
L 281.494846 45.927432 
L 289.864019 56.071935 
L 298.233192 65.947466 
L 306.602365 75.495683 
L 314.971538 84.613577 
L 323.340712 96.668114 
L 331.709885 106.140805 
L 340.079058 115.166939 
L 348.448231 123.623314 
L 356.817404 136.70737 
L 365.186577 145.427002 
L 373.55575 155.710547 
L 381.924923 166.168534 
L 390.294096 173.652229 
L 398.663269 183.64122 
L 407.032442 190.273379 
L 415.401615 195.631605 
L 423.770788 199.491796 
L 432.139962 204.611315 
L 440.509135 206.977196 
L 448.878308 207.135753 
L 457.247481 204.638913 
L 465.616654 201.873616 
L 473.985827 196.853754 
L 482.355 192.278182 
" clip-path="url(#p220c24f45e)" style="fill: none; stroke: #1f77b4; stroke-width: 1.5; stroke-linecap: square"/>
   </g>
   <g id="line2d_38">
    <path d="M 147.588077 103.831378 
L 155.95725 108.486649 
L 164.326423 113.134734 
L 172.695596 117.966026 
L 181.064769 122.589457 
L 189.433942 127.519146 
L 197.803115 132.339945 
L 206.172288 136.760012 
L 214.541462 141.133128 
L 222.910635 145.775196 
L 231.279808 150.450654 
L 239.648981 154.844059 
L 248.018154 159.279576 
L 256.387327 163.600717 
L 264.7565 168.610288 
L 273.125673 172.89597 
L 281.494846 176.871819 
L 289.864019 181.272045 
L 298.233192 185.686402 
L 306.602365 190.056192 
L 314.971538 194.197683 
L 323.340712 200.128441 
L 331.709885 204.435443 
L 340.079058 208.692182 
L 348.448231 210.453589 
L 356.817404 197.429889 
L 365.186577 197.558549 
L 373.55575 195.179131 
L 381.924923 187.763065 
L 390.294096 187.856407 
L 398.663269 180.570449 
L 407.032442 181.867657 
L 415.401615 183.510355 
L 423.770788 184.835653 
L 432.139962 180.844055 
L 440.509135 180.06723 
L 448.878308 179.344379 
L 457.247481 181.452427 
L 465.616654 180.647078 
L 473.985827 182.182534 
L 482.355 177.028538 
" clip-path="url(#p220c24f45e)" style="fill: none; stroke-dasharray: 5.55,2.4; stroke-dashoffset: 0; stroke: #ff7f0e; stroke-width: 1.5"/>
   </g>
   <g id="line2d_39">
    <path d="M 155.941359 -1 
L 155.95725 -0.97164 
L 164.326423 11.499994 
L 172.695596 25.354145 
L 181.064769 41.977793 
L 189.433942 53.29329 
L 197.803115 64.790435 
L 206.172288 83.167662 
L 214.541462 89.94261 
L 222.910635 102.946249 
L 231.279808 113.762481 
L 239.648981 127.766306 
L 248.018154 133.088771 
L 256.387327 145.28251 
L 264.7565 149.31747 
L 273.125673 158.054033 
L 281.494846 149.487231 
L 289.864019 158.051542 
L 298.233192 166.073445 
L 306.602365 174.459401 
L 314.971538 183.978574 
L 323.340712 186.535032 
L 331.709885 195.880403 
L 340.079058 204.497476 
L 348.448231 209.726615 
L 356.817404 215.432045 
L 365.186577 220.143545 
L 373.55575 223.610062 
L 381.924923 227.977604 
L 390.294096 229.192231 
L 398.663269 230.722683 
L 407.032442 229.134914 
L 415.401615 226.930521 
L 423.770788 224.661823 
L 432.139962 226.037912 
L 440.509135 224.110771 
L 448.878308 222.304764 
L 457.247481 216.061476 
L 465.616654 214.474159 
L 473.985827 208.247753 
L 482.355 195.842035 
" clip-path="url(#p220c24f45e)" style="fill: none; stroke-dasharray: 5.55,2.4; stroke-dashoffset: 0; stroke: #2ca02c; stroke-width: 1.5"/>
   </g>
   <g id="line2d_40">
    <path d="M 147.588077 104.165691 
L 155.95725 109.838689 
L 164.326423 116.667117 
L 172.695596 121.631137 
L 181.064769 128.032206 
L 189.433942 131.538858 
L 197.803115 136.711384 
L 206.172288 145.409656 
L 214.541462 127.881519 
L 222.910635 133.401849 
L 231.279808 138.860215 
L 239.648981 147.492965 
L 248.018154 135.559002 
L 256.387327 144.579543 
L 264.7565 143.357214 
L 273.125673 148.380736 
L 281.494846 126.256196 
L 289.864019 129.029731 
L 298.233192 131.718094 
L 306.602365 134.697399 
L 314.971538 138.29081 
L 323.340712 129.204479 
L 331.709885 132.423066 
L 340.079058 135.971618 
L 348.448231 138.408634 
L 356.817404 124.642458 
L 365.186577 124.613435 
L 373.55575 118.457757 
L 381.924923 109.606589 
L 390.294096 108.733146 
L 398.663269 89.973203 
L 407.032442 88.97569 
L 415.401615 87.790335 
L 423.770788 85.343085 
L 432.139962 69.293731 
L 440.509135 59.167866 
L 448.878308 53.137784 
L 457.247481 52.43755 
L 465.616654 45.89671 
L 473.985827 43.573195 
L 482.355 37.512412 
" clip-path="url(#p220c24f45e)" style="fill: none; stroke-dasharray: 5.55,2.4; stroke-dashoffset: 0; stroke: #d62728; stroke-width: 1.5"/>
   </g>
   <g id="line2d_41">
    <path d="M 147.588077 173.663423 
L 155.95725 175.759892 
L 164.326423 179.497976 
L 172.695596 181.833563 
L 181.064769 183.138853 
L 189.433942 186.243926 
L 197.803115 189.455152 
L 206.172288 188.341584 
L 214.541462 196.554451 
L 222.910635 198.574412 
L 231.279808 201.2061 
L 239.648981 200.920112 
L 248.018154 203.808966 
L 256.387327 203.478268 
L 264.7565 206.308449 
L 273.125673 205.811971 
L 281.494846 202.846167 
L 289.864019 205.270214 
L 298.233192 208.364545 
L 306.602365 211.446861 
L 314.971538 212.947321 
L 323.340712 199.263567 
L 331.709885 201.158815 
L 340.079058 202.599259 
L 348.448231 206.994982 
L 356.817404 204.686585 
L 365.186577 210.305226 
L 373.55575 208.425263 
L 381.924923 210.852811 
L 390.294096 216.011456 
L 398.663269 208.145387 
L 407.032442 211.35943 
L 415.401615 214.791456 
L 423.770788 218.671928 
L 432.139962 222.416579 
L 440.509135 213.584175 
L 448.878308 217.726967 
L 457.247481 220.567773 
L 465.616654 224.602679 
L 473.985827 227.52027 
L 482.355 226.36606 
" clip-path="url(#p220c24f45e)" style="fill: none; stroke-dasharray: 1.5,2.475; stroke-dashoffset: 0; stroke: #9467bd; stroke-width: 1.5"/>
   </g>
   <g id="line2d_42">
    <path d="M 147.588077 65.262738 
L 155.95725 68.017706 
L 164.326423 69.966122 
L 172.695596 72.830789 
L 181.064769 75.473469 
L 189.433942 78.642864 
L 197.803115 80.963386 
L 206.172288 83.399711 
L 214.541462 96.998933 
L 222.910635 99.461628 
L 231.279808 101.405693 
L 239.648981 102.661847 
L 248.018154 112.75436 
L 256.387327 113.886828 
L 264.7565 117.825444 
L 273.125673 118.867911 
L 281.494846 124.382528 
L 289.864019 125.648857 
L 298.233192 126.864601 
L 306.602365 127.981351 
L 314.971538 127.096072 
L 323.340712 128.634253 
L 331.709885 127.233235 
L 340.079058 125.57398 
L 348.448231 124.802567 
L 356.817404 134.466978 
L 365.186577 134.419417 
L 373.55575 137.688741 
L 381.924923 141.355121 
L 390.294096 139.256771 
L 398.663269 144.582732 
L 407.032442 142.463215 
L 415.401615 140.052384 
L 423.770788 137.017373 
L 432.139962 135.729649 
L 440.509135 133.832753 
L 448.878308 130.97968 
L 457.247481 128.937725 
L 465.616654 124.627013 
L 473.985827 121.148217 
L 482.355 119.364836 
" clip-path="url(#p220c24f45e)" style="fill: none; stroke-dasharray: 1.5,2.475; stroke-dashoffset: 0; stroke: #8c564b; stroke-width: 1.5"/>
   </g>
   <g id="line2d_43">
    <path d="M 163.328965 -1 
L 164.326423 -0.003726 
L 172.695596 8.24691 
L 181.064769 16.545333 
L 189.433942 24.571554 
L 197.803115 32.525066 
L 206.172288 40.682741 
L 214.541462 47.295751 
L 222.910635 55.121792 
L 231.279808 62.696499 
L 239.648981 70.36713 
L 248.018154 76.561294 
L 256.387327 83.979836 
L 264.7565 90.476132 
L 273.125673 96.978451 
L 281.494846 101.533105 
L 289.864019 108.294345 
L 298.233192 114.922114 
L 306.602365 121.438622 
L 314.971538 127.518737 
L 323.340712 132.220643 
L 331.709885 138.401733 
L 340.079058 144.276403 
L 348.448231 149.516693 
L 356.817404 154.013747 
L 365.186577 159.031831 
L 373.55575 163.462964 
L 381.924923 167.514302 
L 390.294096 171.270924 
L 398.663269 173.072397 
L 407.032442 176.167557 
L 415.401615 178.603298 
L 423.770788 180.086295 
L 432.139962 180.393883 
L 440.509135 179.132792 
L 448.878308 178.243121 
L 457.247481 176.696342 
L 465.616654 174.165979 
L 473.985827 170.979717 
L 482.355 166.138869 
" clip-path="url(#p220c24f45e)" style="fill: none; stroke: #000000; stroke-width: 1.5; stroke-linecap: square"/>
   </g>
   <g id="line2d_44">
    <path d="M 432.657511 270.0155 
L 432.657511 -1 
" clip-path="url(#p220c24f45e)" style="fill: none; stroke-dasharray: 6.4,1.6,1,1.6; stroke-dashoffset: 0; stroke: #000000"/>
   </g>
   <g id="patch_8">
    <path d="M 264.7565 228.6755 
L 264.7565 35.7555 
" style="fill: none; stroke: #000000; stroke-width: 0.8; stroke-linejoin: miter; stroke-linecap: square"/>
   </g>
   <g id="patch_9">
    <path d="M 482.355 228.6755 
L 482.355 35.7555 
" style="fill: none; stroke: #000000; stroke-width: 0.8; stroke-linejoin: miter; stroke-linecap: square"/>
   </g>
   <g id="patch_10">
    <path d="M 264.7565 228.6755 
L 482.355 228.6755 
" style="fill: none; stroke: #000000; stroke-width: 0.8; stroke-linejoin: miter; stroke-linecap: square"/>
   </g>
   <g id="patch_11">
    <path d="M 264.7565 35.7555 
L 482.355 35.7555 
" style="fill: none; stroke: #000000; stroke-width: 0.8; stroke-linejoin: miter; stroke-linecap: square"/>
   </g>
   <g id="text_23">
    <!-- XYG6+1/cr -->
    <g transform="translate(340.682312 16.318125) scale(0.12 -0.12)">
     <use xlink:href="#DejaVuSans-58"/>
     <use xlink:href="#DejaVuSans-59" x="68.505859"/>
     <use xlink:href="#DejaVuSans-47" x="129.589844"/>
     <use xlink:href="#DejaVuSans-36" x="207.080078"/>
     <use xlink:href="#DejaVuSans-2b" x="270.703125"/>
     <use xlink:href="#DejaVuSans-31" x="354.492188"/>
     <use xlink:href="#DejaVuSans-2f" x="418.115234"/>
     <use xlink:href="#DejaVuSans-63" x="451.806641"/>
     <use xlink:href="#DejaVuSans-72" x="506.787109"/>
    </g>
    <!-- GMTKN55 $\cup$ Minnesota 2015 -->
    <g transform="translate(287.63575 29.7555) scale(0.12 -0.12)">
     <defs>
      <path id="DejaVuSans-20" transform="scale(0.015625)"/>
      <path id="DejaVuSans-222a" d="M 825 1856 
L 825 3706 
L 1363 3706 
L 1363 1934 
Q 1363 1172 1594 842 
Q 1825 513 2344 513 
Q 2859 513 3090 842 
Q 3322 1172 3322 1934 
L 3322 3706 
L 3859 3706 
L 3859 1856 
Q 3859 931 3476 465 
Q 3094 0 2344 0 
Q 1591 0 1208 465 
Q 825 931 825 1856 
z
" transform="scale(0.015625)"/>
      <path id="DejaVuSans-69" d="M 603 3500 
L 1178 3500 
L 1178 0 
L 603 0 
L 603 3500 
z
M 603 4863 
L 1178 4863 
L 1178 4134 
L 603 4134 
L 603 4863 
z
" transform="scale(0.015625)"/>
      <path id="DejaVuSans-6e" d="M 3513 2113 
L 3513 0 
L 2938 0 
L 2938 2094 
Q 2938 2591 2744 2837 
Q 2550 3084 2163 3084 
Q 1697 3084 1428 2787 
Q 1159 2491 1159 1978 
L 1159 0 
L 581 0 
L 581 3500 
L 1159 3500 
L 1159 2956 
Q 1366 3272 1645 3428 
Q 1925 3584 2291 3584 
Q 2894 3584 3203 3211 
Q 3513 2838 3513 2113 
z
" transform="scale(0.015625)"/>
      <path id="DejaVuSans-65" d="M 3597 1894 
L 3597 1613 
L 953 1613 
Q 991 1019 1311 708 
Q 1631 397 2203 397 
Q 2534 397 2845 478 
Q 3156 559 3463 722 
L 3463 178 
Q 3153 47 2828 -22 
Q 2503 -91 2169 -91 
Q 1331 -91 842 396 
Q 353 884 353 1716 
Q 353 2575 817 3079 
Q 1281 3584 2069 3584 
Q 2775 3584 3186 3129 
Q 3597 2675 3597 1894 
z
M 3022 2063 
Q 3016 2534 2758 2815 
Q 2500 3097 2075 3097 
Q 1594 3097 1305 2825 
Q 1016 2553 972 2059 
L 3022 2063 
z
" transform="scale(0.015625)"/>
      <path id="DejaVuSans-73" d="M 2834 3397 
L 2834 2853 
Q 2591 2978 2328 3040 
Q 2066 3103 1784 3103 
Q 1356 3103 1142 2972 
Q 928 2841 928 2578 
Q 928 2378 1081 2264 
Q 1234 2150 1697 2047 
L 1894 2003 
Q 2506 1872 2764 1633 
Q 3022 1394 3022 966 
Q 3022 478 2636 193 
Q 2250 -91 1575 -91 
Q 1294 -91 989 -36 
Q 684 19 347 128 
L 347 722 
Q 666 556 975 473 
Q 1284 391 1588 391 
Q 1994 391 2212 530 
Q 2431 669 2431 922 
Q 2431 1156 2273 1281 
Q 2116 1406 1581 1522 
L 1381 1569 
Q 847 1681 609 1914 
Q 372 2147 372 2553 
Q 372 3047 722 3315 
Q 1072 3584 1716 3584 
Q 2034 3584 2315 3537 
Q 2597 3491 2834 3397 
z
" transform="scale(0.015625)"/>
      <path id="DejaVuSans-6f" d="M 1959 3097 
Q 1497 3097 1228 2736 
Q 959 2375 959 1747 
Q 959 1119 1226 758 
Q 1494 397 1959 397 
Q 2419 397 2687 759 
Q 2956 1122 2956 1747 
Q 2956 2369 2687 2733 
Q 2419 3097 1959 3097 
z
M 1959 3584 
Q 2709 3584 3137 3096 
Q 3566 2609 3566 1747 
Q 3566 888 3137 398 
Q 2709 -91 1959 -91 
Q 1206 -91 779 398 
Q 353 888 353 1747 
Q 353 2609 779 3096 
Q 1206 3584 1959 3584 
z
" transform="scale(0.015625)"/>
      <path id="DejaVuSans-74" d="M 1172 4494 
L 1172 3500 
L 2356 3500 
L 2356 3053 
L 1172 3053 
L 1172 1153 
Q 1172 725 1289 603 
Q 1406 481 1766 481 
L 2356 481 
L 2356 0 
L 1766 0 
Q 1100 0 847 248 
Q 594 497 594 1153 
L 594 3053 
L 172 3053 
L 172 3500 
L 594 3500 
L 594 4494 
L 1172 4494 
z
" transform="scale(0.015625)"/>
      <path id="DejaVuSans-61" d="M 2194 1759 
Q 1497 1759 1228 1600 
Q 959 1441 959 1056 
Q 959 750 1161 570 
Q 1363 391 1709 391 
Q 2188 391 2477 730 
Q 2766 1069 2766 1631 
L 2766 1759 
L 2194 1759 
z
M 3341 1997 
L 3341 0 
L 2766 0 
L 2766 531 
Q 2569 213 2275 61 
Q 1981 -91 1556 -91 
Q 1019 -91 701 211 
Q 384 513 384 1019 
Q 384 1609 779 1909 
Q 1175 2209 1959 2209 
L 2766 2209 
L 2766 2266 
Q 2766 2663 2505 2880 
Q 2244 3097 1772 3097 
Q 1472 3097 1187 3025 
Q 903 2953 641 2809 
L 641 3341 
Q 956 3463 1253 3523 
Q 1550 3584 1831 3584 
Q 2591 3584 2966 3190 
Q 3341 2797 3341 1997 
z
" transform="scale(0.015625)"/>
     </defs>
     <use xlink:href="#DejaVuSans-47" transform="translate(0 0.015625)"/>
     <use xlink:href="#DejaVuSans-4d" transform="translate(77.490234 0.015625)"/>
     <use xlink:href="#DejaVuSans-54" transform="translate(163.769531 0.015625)"/>
     <use xlink:href="#DejaVuSans-4b" transform="translate(224.853516 0.015625)"/>
     <use xlink:href="#DejaVuSans-4e" transform="translate(290.429688 0.015625)"/>
     <use xlink:href="#DejaVuSans-35" transform="translate(365.234375 0.015625)"/>
     <use xlink:href="#DejaVuSans-35" transform="translate(428.857422 0.015625)"/>
     <use xlink:href="#DejaVuSans-20" transform="translate(492.480469 0.015625)"/>
     <use xlink:href="#DejaVuSans-222a" transform="translate(524.267578 0.015625)"/>
     <use xlink:href="#DejaVuSans-20" transform="translate(597.460938 0.015625)"/>
     <use xlink:href="#DejaVuSans-4d" transform="translate(629.248047 0.015625)"/>
     <use xlink:href="#DejaVuSans-69" transform="translate(715.527344 0.015625)"/>
     <use xlink:href="#DejaVuSans-6e" transform="translate(743.310547 0.015625)"/>
     <use xlink:href="#DejaVuSans-6e" transform="translate(806.689453 0.015625)"/>
     <use xlink:href="#DejaVuSans-65" transform="translate(870.068359 0.015625)"/>
     <use xlink:href="#DejaVuSans-73" transform="translate(931.591797 0.015625)"/>
     <use xlink:href="#DejaVuSans-6f" transform="translate(983.691406 0.015625)"/>
     <use xlink:href="#DejaVuSans-74" transform="translate(1044.873047 0.015625)"/>
     <use xlink:href="#DejaVuSans-61" transform="translate(1084.082031 0.015625)"/>
     <use xlink:href="#DejaVuSans-20" transform="translate(1145.361328 0.015625)"/>
     <use xlink:href="#DejaVuSans-32" transform="translate(1177.148438 0.015625)"/>
     <use xlink:href="#DejaVuSans-30" transform="translate(1240.771484 0.015625)"/>
     <use xlink:href="#DejaVuSans-31" transform="translate(1304.394531 0.015625)"/>
     <use xlink:href="#DejaVuSans-35" transform="translate(1368.017578 0.015625)"/>
    </g>
   </g>
  </g>
  <g id="text_24">
   <!-- $E_\mathrm{x}^\mathrm{exact}$ coefficient $c_\mathrm{x}$ -->
   <g transform="translate(192 278.6835) scale(0.12 -0.12)">
    <defs>
     <path id="DejaVuSans-Oblique-45" d="M 1081 4666 
L 4031 4666 
L 3928 4134 
L 1606 4134 
L 1338 2753 
L 3566 2753 
L 3463 2222 
L 1234 2222 
L 909 531 
L 3284 531 
L 3181 0 
L 172 0 
L 1081 4666 
z
" transform="scale(0.015625)"/>
     <path id="DejaVuSans-78" d="M 3513 3500 
L 2247 1797 
L 3578 0 
L 2900 0 
L 1881 1375 
L 863 0 
L 184 0 
L 1544 1831 
L 300 3500 
L 978 3500 
L 1906 2253 
L 2834 3500 
L 3513 3500 
z
" transform="scale(0.015625)"/>
     <path id="DejaVuSans-66" d="M 2375 4863 
L 2375 4384 
L 1825 4384 
Q 1516 4384 1395 4259 
Q 1275 4134 1275 3809 
L 1275 3500 
L 2222 3500 
L 2222 3053 
L 1275 3053 
L 1275 0 
L 697 0 
L 697 3053 
L 147 3053 
L 147 3500 
L 697 3500 
L 697 3744 
Q 697 4328 969 4595 
Q 1241 4863 1831 4863 
L 2375 4863 
z
" transform="scale(0.015625)"/>
     <path id="DejaVuSans-Oblique-63" d="M 3431 3366 
L 3316 2797 
Q 3109 2947 2876 3022 
Q 2644 3097 2394 3097 
Q 2119 3097 1870 3000 
Q 1622 2903 1453 2725 
Q 1184 2453 1037 2087 
Q 891 1722 891 1331 
Q 891 859 1127 628 
Q 1363 397 1844 397 
Q 2081 397 2348 469 
Q 2616 541 2906 684 
L 2797 116 
Q 2547 13 2283 -39 
Q 2019 -91 1741 -91 
Q 1044 -91 669 257 
Q 294 606 294 1253 
Q 294 1797 489 2255 
Q 684 2713 1069 3078 
Q 1331 3328 1684 3456 
Q 2038 3584 2456 3584 
Q 2700 3584 2940 3529 
Q 3181 3475 3431 3366 
z
" transform="scale(0.015625)"/>
    </defs>
    <use xlink:href="#DejaVuSans-Oblique-45" transform="translate(0 0.565625)"/>
    <use xlink:href="#DejaVuSans-65" transform="translate(70.200365 38.846875) scale(0.7)"/>
    <use xlink:href="#DejaVuSans-78" transform="translate(113.266771 38.846875) scale(0.7)"/>
    <use xlink:href="#DejaVuSans-61" transform="translate(154.692552 38.846875) scale(0.7)"/>
    <use xlink:href="#DejaVuSans-63" transform="translate(197.58806 38.846875) scale(0.7)"/>
    <use xlink:href="#DejaVuSans-74" transform="translate(236.074388 38.846875) scale(0.7)"/>
    <use xlink:href="#DejaVuSans-78" transform="translate(63.183594 -26.778125) scale(0.7)"/>
    <use xlink:href="#DejaVuSans-20" transform="translate(266.255052 0.565625)"/>
    <use xlink:href="#DejaVuSans-63" transform="translate(298.042161 0.565625)"/>
    <use xlink:href="#DejaVuSans-6f" transform="translate(353.02263 0.565625)"/>
    <use xlink:href="#DejaVuSans-65" transform="translate(414.204271 0.565625)"/>
    <use xlink:href="#DejaVuSans-66" transform="translate(475.727708 0.565625)"/>
    <use xlink:href="#DejaVuSans-66" transform="translate(510.932786 0.565625)"/>
    <use xlink:href="#DejaVuSans-69" transform="translate(546.137865 0.565625)"/>
    <use xlink:href="#DejaVuSans-63" transform="translate(573.921068 0.565625)"/>
    <use xlink:href="#DejaVuSans-69" transform="translate(628.901536 0.565625)"/>
    <use xlink:href="#DejaVuSans-65" transform="translate(656.68474 0.565625)"/>
    <use xlink:href="#DejaVuSans-6e" transform="translate(718.208177 0.565625)"/>
    <use xlink:href="#DejaVuSans-74" transform="translate(781.587083 0.565625)"/>
    <use xlink:href="#DejaVuSans-20" transform="translate(820.796068 0.565625)"/>
    <use xlink:href="#DejaVuSans-Oblique-63" transform="translate(852.583177 0.565625)"/>
    <use xlink:href="#DejaVuSans-78" transform="translate(907.563646 -15.840625) scale(0.7)"/>
   </g>
  </g>
  <g id="text_25">
   <!-- WTMAD-2 or MUEPB / kcal mol${}^{-1}$ -->
   <g transform="translate(16.704375 238.9635) rotate(-90) scale(0.12 -0.12)">
    <defs>
     <path id="DejaVuSans-57" d="M 213 4666 
L 850 4666 
L 1831 722 
L 2809 4666 
L 3519 4666 
L 4500 722 
L 5478 4666 
L 6119 4666 
L 4947 0 
L 4153 0 
L 3169 4050 
L 2175 0 
L 1381 0 
L 213 4666 
z
" transform="scale(0.015625)"/>
     <path id="DejaVuSans-41" d="M 2188 4044 
L 1331 1722 
L 3047 1722 
L 2188 4044 
z
M 1831 4666 
L 2547 4666 
L 4325 0 
L 3669 0 
L 3244 1197 
L 1141 1197 
L 716 0 
L 50 0 
L 1831 4666 
z
" transform="scale(0.015625)"/>
     <path id="DejaVuSans-44" d="M 1259 4147 
L 1259 519 
L 2022 519 
Q 2988 519 3436 956 
Q 3884 1394 3884 2338 
Q 3884 3275 3436 3711 
Q 2988 4147 2022 4147 
L 1259 4147 
z
M 628 4666 
L 1925 4666 
Q 3281 4666 3915 4102 
Q 4550 3538 4550 2338 
Q 4550 1131 3912 565 
Q 3275 0 1925 0 
L 628 0 
L 628 4666 
z
" transform="scale(0.015625)"/>
     <path id="DejaVuSans-2d" d="M 313 2009 
L 1997 2009 
L 1997 1497 
L 313 1497 
L 313 2009 
z
" transform="scale(0.015625)"/>
     <path id="DejaVuSans-55" d="M 556 4666 
L 1191 4666 
L 1191 1831 
Q 1191 1081 1462 751 
Q 1734 422 2344 422 
Q 2950 422 3222 751 
Q 3494 1081 3494 1831 
L 3494 4666 
L 4128 4666 
L 4128 1753 
Q 4128 841 3676 375 
Q 3225 -91 2344 -91 
Q 1459 -91 1007 375 
Q 556 841 556 1753 
L 556 4666 
z
" transform="scale(0.015625)"/>
     <path id="DejaVuSans-45" d="M 628 4666 
L 3578 4666 
L 3578 4134 
L 1259 4134 
L 1259 2753 
L 3481 2753 
L 3481 2222 
L 1259 2222 
L 1259 531 
L 3634 531 
L 3634 0 
L 628 0 
L 628 4666 
z
" transform="scale(0.015625)"/>
     <path id="DejaVuSans-50" d="M 1259 4147 
L 1259 2394 
L 2053 2394 
Q 2494 2394 2734 2622 
Q 2975 2850 2975 3272 
Q 2975 3691 2734 3919 
Q 2494 4147 2053 4147 
L 1259 4147 
z
M 628 4666 
L 2053 4666 
Q 2838 4666 3239 4311 
Q 3641 3956 3641 3272 
Q 3641 2581 3239 2228 
Q 2838 1875 2053 1875 
L 1259 1875 
L 1259 0 
L 628 0 
L 628 4666 
z
" transform="scale(0.015625)"/>
     <path id="DejaVuSans-42" d="M 1259 2228 
L 1259 519 
L 2272 519 
Q 2781 519 3026 730 
Q 3272 941 3272 1375 
Q 3272 1813 3026 2020 
Q 2781 2228 2272 2228 
L 1259 2228 
z
M 1259 4147 
L 1259 2741 
L 2194 2741 
Q 2656 2741 2882 2914 
Q 3109 3088 3109 3444 
Q 3109 3797 2882 3972 
Q 2656 4147 2194 4147 
L 1259 4147 
z
M 628 4666 
L 2241 4666 
Q 2963 4666 3353 4366 
Q 3744 4066 3744 3513 
Q 3744 3084 3544 2831 
Q 3344 2578 2956 2516 
Q 3422 2416 3680 2098 
Q 3938 1781 3938 1306 
Q 3938 681 3513 340 
Q 3088 0 2303 0 
L 628 0 
L 628 4666 
z
" transform="scale(0.015625)"/>
     <path id="DejaVuSans-6b" d="M 581 4863 
L 1159 4863 
L 1159 1991 
L 2875 3500 
L 3609 3500 
L 1753 1863 
L 3688 0 
L 2938 0 
L 1159 1709 
L 1159 0 
L 581 0 
L 581 4863 
z
" transform="scale(0.015625)"/>
     <path id="DejaVuSans-6c" d="M 603 4863 
L 1178 4863 
L 1178 0 
L 603 0 
L 603 4863 
z
" transform="scale(0.015625)"/>
     <path id="DejaVuSans-6d" d="M 3328 2828 
Q 3544 3216 3844 3400 
Q 4144 3584 4550 3584 
Q 5097 3584 5394 3201 
Q 5691 2819 5691 2113 
L 5691 0 
L 5113 0 
L 5113 2094 
Q 5113 2597 4934 2840 
Q 4756 3084 4391 3084 
Q 3944 3084 3684 2787 
Q 3425 2491 3425 1978 
L 3425 0 
L 2847 0 
L 2847 2094 
Q 2847 2600 2669 2842 
Q 2491 3084 2119 3084 
Q 1678 3084 1418 2786 
Q 1159 2488 1159 1978 
L 1159 0 
L 581 0 
L 581 3500 
L 1159 3500 
L 1159 2956 
Q 1356 3278 1631 3431 
Q 1906 3584 2284 3584 
Q 2666 3584 2933 3390 
Q 3200 3197 3328 2828 
z
" transform="scale(0.015625)"/>
     <path id="DejaVuSans-2212" d="M 678 2272 
L 4684 2272 
L 4684 1741 
L 678 1741 
L 678 2272 
z
" transform="scale(0.015625)"/>
    </defs>
    <use xlink:href="#DejaVuSans-57" transform="translate(0 0.684375)"/>
    <use xlink:href="#DejaVuSans-54" transform="translate(98.876953 0.684375)"/>
    <use xlink:href="#DejaVuSans-4d" transform="translate(159.960938 0.684375)"/>
    <use xlink:href="#DejaVuSans-41" transform="translate(246.240234 0.684375)"/>
    <use xlink:href="#DejaVuSans-44" transform="translate(314.648438 0.684375)"/>
    <use xlink:href="#DejaVuSans-2d" transform="translate(391.650391 0.684375)"/>
    <use xlink:href="#DejaVuSans-32" transform="translate(427.734375 0.684375)"/>
    <use xlink:href="#DejaVuSans-20" transform="translate(491.357422 0.684375)"/>
    <use xlink:href="#DejaVuSans-6f" transform="translate(523.144531 0.684375)"/>
    <use xlink:href="#DejaVuSans-72" transform="translate(584.326172 0.684375)"/>
    <use xlink:href="#DejaVuSans-20" transform="translate(625.439453 0.684375)"/>
    <use xlink:href="#DejaVuSans-4d" transform="translate(657.226562 0.684375)"/>
    <use xlink:href="#DejaVuSans-55" transform="translate(743.505859 0.684375)"/>
    <use xlink:href="#DejaVuSans-45" transform="translate(816.699219 0.684375)"/>
    <use xlink:href="#DejaVuSans-50" transform="translate(879.882812 0.684375)"/>
    <use xlink:href="#DejaVuSans-42" transform="translate(940.185547 0.684375)"/>
    <use xlink:href="#DejaVuSans-20" transform="translate(1008.789062 0.684375)"/>
    <use xlink:href="#DejaVuSans-2f" transform="translate(1040.576172 0.684375)"/>
    <use xlink:href="#DejaVuSans-20" transform="translate(1074.267578 0.684375)"/>
    <use xlink:href="#DejaVuSans-6b" transform="translate(1106.054688 0.684375)"/>
    <use xlink:href="#DejaVuSans-63" transform="translate(1163.964844 0.684375)"/>
    <use xlink:href="#DejaVuSans-61" transform="translate(1218.945312 0.684375)"/>
    <use xlink:href="#DejaVuSans-6c" transform="translate(1280.224609 0.684375)"/>
    <use xlink:href="#DejaVuSans-20" transform="translate(1308.007812 0.684375)"/>
    <use xlink:href="#DejaVuSans-6d" transform="translate(1339.794922 0.684375)"/>
    <use xlink:href="#DejaVuSans-6f" transform="translate(1437.207031 0.684375)"/>
    <use xlink:href="#DejaVuSans-6c" transform="translate(1498.388672 0.684375)"/>
    <use xlink:href="#DejaVuSans-2212" transform="translate(1527.128906 38.965625) scale(0.7)"/>
    <use xlink:href="#DejaVuSans-31" transform="translate(1585.78125 38.965625) scale(0.7)"/>
   </g>
  </g>
  <g id="legend_1">
   <g id="patch_12">
    <path d="M 488.0325 188.310375 
L 594.92 188.310375 
Q 596.92 188.310375 596.92 186.310375 
L 596.92 84.5635 
Q 596.92 82.5635 594.92 82.5635 
L 488.0325 82.5635 
Q 486.0325 82.5635 486.0325 84.5635 
L 486.0325 186.310375 
Q 486.0325 188.310375 488.0325 188.310375 
z
" style="fill: #ffffff; opacity: 0.8; stroke: #cccccc; stroke-linejoin: miter"/>
   </g>
   <g id="line2d_45">
    <path d="M 490.0325 90.661938 
L 500.0325 90.661938 
L 510.0325 90.661938 
" style="fill: none; stroke: #1f77b4; stroke-width: 1.5; stroke-linecap: square"/>
   </g>
   <g id="text_26">
    <!-- GMTKN55 -->
    <g transform="translate(518.0325 94.161938) scale(0.1 -0.1)">
     <use xlink:href="#DejaVuSans-47"/>
     <use xlink:href="#DejaVuSans-4d" x="77.490234"/>
     <use xlink:href="#DejaVuSans-54" x="163.769531"/>
     <use xlink:href="#DejaVuSans-4b" x="224.853516"/>
     <use xlink:href="#DejaVuSans-4e" x="290.429688"/>
     <use xlink:href="#DejaVuSans-35" x="365.234375"/>
     <use xlink:href="#DejaVuSans-35" x="428.857422"/>
    </g>
   </g>
   <g id="line2d_46">
    <path d="M 490.0325 105.340063 
L 500.0325 105.340063 
L 510.0325 105.340063 
" style="fill: none; stroke-dasharray: 5.55,2.4; stroke-dashoffset: 0; stroke: #ff7f0e; stroke-width: 1.5"/>
   </g>
   <g id="text_27">
    <!-- MR-MGM-BE4 -->
    <g transform="translate(518.0325 108.840063) scale(0.1 -0.1)">
     <defs>
      <path id="DejaVuSans-52" d="M 2841 2188 
Q 3044 2119 3236 1894 
Q 3428 1669 3622 1275 
L 4263 0 
L 3584 0 
L 2988 1197 
Q 2756 1666 2539 1819 
Q 2322 1972 1947 1972 
L 1259 1972 
L 1259 0 
L 628 0 
L 628 4666 
L 2053 4666 
Q 2853 4666 3247 4331 
Q 3641 3997 3641 3322 
Q 3641 2881 3436 2590 
Q 3231 2300 2841 2188 
z
M 1259 4147 
L 1259 2491 
L 2053 2491 
Q 2509 2491 2742 2702 
Q 2975 2913 2975 3322 
Q 2975 3731 2742 3939 
Q 2509 4147 2053 4147 
L 1259 4147 
z
" transform="scale(0.015625)"/>
     </defs>
     <use xlink:href="#DejaVuSans-4d"/>
     <use xlink:href="#DejaVuSans-52" x="86.279297"/>
     <use xlink:href="#DejaVuSans-2d" x="151.761719"/>
     <use xlink:href="#DejaVuSans-4d" x="187.845703"/>
     <use xlink:href="#DejaVuSans-47" x="274.125"/>
     <use xlink:href="#DejaVuSans-4d" x="351.615234"/>
     <use xlink:href="#DejaVuSans-2d" x="437.894531"/>
     <use xlink:href="#DejaVuSans-42" x="470.353516"/>
     <use xlink:href="#DejaVuSans-45" x="538.957031"/>
     <use xlink:href="#DejaVuSans-34" x="602.140625"/>
    </g>
   </g>
   <g id="line2d_47">
    <path d="M 490.0325 120.018188 
L 500.0325 120.018188 
L 510.0325 120.018188 
" style="fill: none; stroke-dasharray: 5.55,2.4; stroke-dashoffset: 0; stroke: #2ca02c; stroke-width: 1.5"/>
   </g>
   <g id="text_28">
    <!-- MR-MGN-BE17 -->
    <g transform="translate(518.0325 123.518188) scale(0.1 -0.1)">
     <use xlink:href="#DejaVuSans-4d"/>
     <use xlink:href="#DejaVuSans-52" x="86.279297"/>
     <use xlink:href="#DejaVuSans-2d" x="151.761719"/>
     <use xlink:href="#DejaVuSans-4d" x="187.845703"/>
     <use xlink:href="#DejaVuSans-47" x="274.125"/>
     <use xlink:href="#DejaVuSans-4e" x="351.615234"/>
     <use xlink:href="#DejaVuSans-2d" x="426.419922"/>
     <use xlink:href="#DejaVuSans-42" x="458.878906"/>
     <use xlink:href="#DejaVuSans-45" x="527.482422"/>
     <use xlink:href="#DejaVuSans-31" x="590.666016"/>
     <use xlink:href="#DejaVuSans-37" x="654.289062"/>
    </g>
   </g>
   <g id="line2d_48">
    <path d="M 490.0325 134.696313 
L 500.0325 134.696313 
L 510.0325 134.696313 
" style="fill: none; stroke-dasharray: 5.55,2.4; stroke-dashoffset: 0; stroke: #d62728; stroke-width: 1.5"/>
   </g>
   <g id="text_29">
    <!-- MR-TM-BE13 -->
    <g transform="translate(518.0325 138.196313) scale(0.1 -0.1)">
     <use xlink:href="#DejaVuSans-4d"/>
     <use xlink:href="#DejaVuSans-52" x="86.279297"/>
     <use xlink:href="#DejaVuSans-2d" x="151.761719"/>
     <use xlink:href="#DejaVuSans-54" x="178.720703"/>
     <use xlink:href="#DejaVuSans-4d" x="239.804688"/>
     <use xlink:href="#DejaVuSans-2d" x="326.083984"/>
     <use xlink:href="#DejaVuSans-42" x="358.542969"/>
     <use xlink:href="#DejaVuSans-45" x="427.146484"/>
     <use xlink:href="#DejaVuSans-31" x="490.330078"/>
     <use xlink:href="#DejaVuSans-33" x="553.953125"/>
    </g>
   </g>
   <g id="line2d_49">
    <path d="M 490.0325 149.374438 
L 500.0325 149.374438 
L 510.0325 149.374438 
" style="fill: none; stroke-dasharray: 1.5,2.475; stroke-dashoffset: 0; stroke: #9467bd; stroke-width: 1.5"/>
   </g>
   <g id="text_30">
    <!-- SR-MGM-BE9 -->
    <g transform="translate(518.0325 152.874438) scale(0.1 -0.1)">
     <defs>
      <path id="DejaVuSans-53" d="M 3425 4513 
L 3425 3897 
Q 3066 4069 2747 4153 
Q 2428 4238 2131 4238 
Q 1616 4238 1336 4038 
Q 1056 3838 1056 3469 
Q 1056 3159 1242 3001 
Q 1428 2844 1947 2747 
L 2328 2669 
Q 3034 2534 3370 2195 
Q 3706 1856 3706 1288 
Q 3706 609 3251 259 
Q 2797 -91 1919 -91 
Q 1588 -91 1214 -16 
Q 841 59 441 206 
L 441 856 
Q 825 641 1194 531 
Q 1563 422 1919 422 
Q 2459 422 2753 634 
Q 3047 847 3047 1241 
Q 3047 1584 2836 1778 
Q 2625 1972 2144 2069 
L 1759 2144 
Q 1053 2284 737 2584 
Q 422 2884 422 3419 
Q 422 4038 858 4394 
Q 1294 4750 2059 4750 
Q 2388 4750 2728 4690 
Q 3069 4631 3425 4513 
z
" transform="scale(0.015625)"/>
     </defs>
     <use xlink:href="#DejaVuSans-53"/>
     <use xlink:href="#DejaVuSans-52" x="63.476562"/>
     <use xlink:href="#DejaVuSans-2d" x="128.958984"/>
     <use xlink:href="#DejaVuSans-4d" x="165.042969"/>
     <use xlink:href="#DejaVuSans-47" x="251.322266"/>
     <use xlink:href="#DejaVuSans-4d" x="328.8125"/>
     <use xlink:href="#DejaVuSans-2d" x="415.091797"/>
     <use xlink:href="#DejaVuSans-42" x="447.550781"/>
     <use xlink:href="#DejaVuSans-45" x="516.154297"/>
     <use xlink:href="#DejaVuSans-39" x="579.337891"/>
    </g>
   </g>
   <g id="line2d_50">
    <path d="M 490.0325 164.052563 
L 500.0325 164.052563 
L 510.0325 164.052563 
" style="fill: none; stroke-dasharray: 1.5,2.475; stroke-dashoffset: 0; stroke: #8c564b; stroke-width: 1.5"/>
   </g>
   <g id="text_31">
    <!-- SR-TM-BE17 -->
    <g transform="translate(518.0325 167.552563) scale(0.1 -0.1)">
     <use xlink:href="#DejaVuSans-53"/>
     <use xlink:href="#DejaVuSans-52" x="63.476562"/>
     <use xlink:href="#DejaVuSans-2d" x="128.958984"/>
     <use xlink:href="#DejaVuSans-54" x="155.917969"/>
     <use xlink:href="#DejaVuSans-4d" x="217.001953"/>
     <use xlink:href="#DejaVuSans-2d" x="303.28125"/>
     <use xlink:href="#DejaVuSans-42" x="335.740234"/>
     <use xlink:href="#DejaVuSans-45" x="404.34375"/>
     <use xlink:href="#DejaVuSans-31" x="467.527344"/>
     <use xlink:href="#DejaVuSans-37" x="531.150391"/>
    </g>
   </g>
   <g id="line2d_51">
    <path d="M 490.0325 178.730688 
L 500.0325 178.730688 
L 510.0325 178.730688 
" style="fill: none; stroke: #000000; stroke-width: 1.5; stroke-linecap: square"/>
   </g>
   <g id="text_32">
    <!-- Weighted Error -->
    <g transform="translate(518.0325 182.230688) scale(0.1 -0.1)">
     <defs>
      <path id="DejaVuSans-67" d="M 2906 1791 
Q 2906 2416 2648 2759 
Q 2391 3103 1925 3103 
Q 1463 3103 1205 2759 
Q 947 2416 947 1791 
Q 947 1169 1205 825 
Q 1463 481 1925 481 
Q 2391 481 2648 825 
Q 2906 1169 2906 1791 
z
M 3481 434 
Q 3481 -459 3084 -895 
Q 2688 -1331 1869 -1331 
Q 1566 -1331 1297 -1286 
Q 1028 -1241 775 -1147 
L 775 -588 
Q 1028 -725 1275 -790 
Q 1522 -856 1778 -856 
Q 2344 -856 2625 -561 
Q 2906 -266 2906 331 
L 2906 616 
Q 2728 306 2450 153 
Q 2172 0 1784 0 
Q 1141 0 747 490 
Q 353 981 353 1791 
Q 353 2603 747 3093 
Q 1141 3584 1784 3584 
Q 2172 3584 2450 3431 
Q 2728 3278 2906 2969 
L 2906 3500 
L 3481 3500 
L 3481 434 
z
" transform="scale(0.015625)"/>
      <path id="DejaVuSans-68" d="M 3513 2113 
L 3513 0 
L 2938 0 
L 2938 2094 
Q 2938 2591 2744 2837 
Q 2550 3084 2163 3084 
Q 1697 3084 1428 2787 
Q 1159 2491 1159 1978 
L 1159 0 
L 581 0 
L 581 4863 
L 1159 4863 
L 1159 2956 
Q 1366 3272 1645 3428 
Q 1925 3584 2291 3584 
Q 2894 3584 3203 3211 
Q 3513 2838 3513 2113 
z
" transform="scale(0.015625)"/>
      <path id="DejaVuSans-64" d="M 2906 2969 
L 2906 4863 
L 3481 4863 
L 3481 0 
L 2906 0 
L 2906 525 
Q 2725 213 2448 61 
Q 2172 -91 1784 -91 
Q 1150 -91 751 415 
Q 353 922 353 1747 
Q 353 2572 751 3078 
Q 1150 3584 1784 3584 
Q 2172 3584 2448 3432 
Q 2725 3281 2906 2969 
z
M 947 1747 
Q 947 1113 1208 752 
Q 1469 391 1925 391 
Q 2381 391 2643 752 
Q 2906 1113 2906 1747 
Q 2906 2381 2643 2742 
Q 2381 3103 1925 3103 
Q 1469 3103 1208 2742 
Q 947 2381 947 1747 
z
" transform="scale(0.015625)"/>
     </defs>
     <use xlink:href="#DejaVuSans-57"/>
     <use xlink:href="#DejaVuSans-65" x="93.001953"/>
     <use xlink:href="#DejaVuSans-69" x="154.525391"/>
     <use xlink:href="#DejaVuSans-67" x="182.308594"/>
     <use xlink:href="#DejaVuSans-68" x="245.785156"/>
     <use xlink:href="#DejaVuSans-74" x="309.164062"/>
     <use xlink:href="#DejaVuSans-65" x="348.373047"/>
     <use xlink:href="#DejaVuSans-64" x="409.896484"/>
     <use xlink:href="#DejaVuSans-20" x="473.373047"/>
     <use xlink:href="#DejaVuSans-45" x="505.160156"/>
     <use xlink:href="#DejaVuSans-72" x="568.34375"/>
     <use xlink:href="#DejaVuSans-72" x="607.707031"/>
     <use xlink:href="#DejaVuSans-6f" x="646.570312"/>
     <use xlink:href="#DejaVuSans-72" x="707.751953"/>
    </g>
   </g>
  </g>
 </g>
 <defs>
  <clipPath id="pacd022e159">
   <rect x="47.158" y="35.7555" width="217.5985" height="192.92"/>
  </clipPath>
  <clipPath id="p220c24f45e">
   <rect x="264.7565" y="35.7555" width="217.5985" height="192.92"/>
  </clipPath>
 </defs>
</svg>
