<?xml version="1.0" encoding="utf-8" standalone="no"?>
<!DOCTYPE svg PUBLIC "-//W3C//DTD SVG 1.1//EN"
  "http://www.w3.org/Graphics/SVG/1.1/DTD/svg11.dtd">
<svg xmlns:xlink="http://www.w3.org/1999/xlink" width="604.12pt" height="431.28pt" viewBox="0 0 604.12 431.28" xmlns="http://www.w3.org/2000/svg" version="1.1">
 <metadata>
  <rdf:RDF xmlns:dc="http://purl.org/dc/elements/1.1/" xmlns:cc="http://creativecommons.org/ns#" xmlns:rdf="http://www.w3.org/1999/02/22-rdf-syntax-ns#">
   <cc:Work>
    <dc:type rdf:resource="http://purl.org/dc/dcmitype/StillImage"/>
    <dc:date>2024-03-18T12:36:36.334954</dc:date>
    <dc:format>image/svg+xml</dc:format>
    <dc:creator>
     <cc:Agent>
      <dc:title>Matplotlib v3.8.0, https://matplotlib.org/</dc:title>
     </cc:Agent>
    </dc:creator>
   </cc:Work>
  </rdf:RDF>
 </metadata>
 <defs>
  <style type="text/css">*{stroke-linejoin: round; stroke-linecap: butt}</style>
 </defs>
 <g id="figure_1">
  <g id="patch_1">
   <path d="M 0 431.28 
L 604.12 431.28 
L 604.12 0 
L 0 0 
L 0 431.28 
z
" style="fill: none"/>
  </g>
  <g id="axes_1">
   <g id="patch_2">
    <path d="M 47.158 189.676 
L 264.7565 189.676 
L 264.7565 7.2 
L 47.158 7.2 
L 47.158 189.676 
z
" style="fill: none"/>
   </g>
   <g id="matplotlib.axis_1"/>
   <g id="matplotlib.axis_2">
    <g id="ytick_1">
     <g id="line2d_1">
      <defs>
       <path id="m829f8f9114" d="M 0 0 
L -3.5 0 
" style="stroke: #000000; stroke-width: 0.8"/>
      </defs>
      <g>
       <use xlink:href="#m829f8f9114" x="47.158" y="176.642" style="stroke: #000000; stroke-width: 0.8"/>
      </g>
     </g>
     <g id="text_1">
      <!-- 2 -->
      <g transform="translate(33.7955 180.441219) scale(0.1 -0.1)">
       <defs>
        <path id="DejaVuSans-32" d="M 1228 531 
L 3431 531 
L 3431 0 
L 469 0 
L 469 531 
Q 828 903 1448 1529 
Q 2069 2156 2228 2338 
Q 2531 2678 2651 2914 
Q 2772 3150 2772 3378 
Q 2772 3750 2511 3984 
Q 2250 4219 1831 4219 
Q 1534 4219 1204 4116 
Q 875 4013 500 3803 
L 500 4441 
Q 881 4594 1212 4672 
Q 1544 4750 1819 4750 
Q 2544 4750 2975 4387 
Q 3406 4025 3406 3419 
Q 3406 3131 3298 2873 
Q 3191 2616 2906 2266 
Q 2828 2175 2409 1742 
Q 1991 1309 1228 531 
z
" transform="scale(0.015625)"/>
       </defs>
       <use xlink:href="#DejaVuSans-32"/>
      </g>
     </g>
    </g>
    <g id="ytick_2">
     <g id="line2d_2">
      <g>
       <use xlink:href="#m829f8f9114" x="47.158" y="150.574" style="stroke: #000000; stroke-width: 0.8"/>
      </g>
     </g>
     <g id="text_2">
      <!-- 3 -->
      <g transform="translate(33.7955 154.373219) scale(0.1 -0.1)">
       <defs>
        <path id="DejaVuSans-33" d="M 2597 2516 
Q 3050 2419 3304 2112 
Q 3559 1806 3559 1356 
Q 3559 666 3084 287 
Q 2609 -91 1734 -91 
Q 1441 -91 1130 -33 
Q 819 25 488 141 
L 488 750 
Q 750 597 1062 519 
Q 1375 441 1716 441 
Q 2309 441 2620 675 
Q 2931 909 2931 1356 
Q 2931 1769 2642 2001 
Q 2353 2234 1838 2234 
L 1294 2234 
L 1294 2753 
L 1863 2753 
Q 2328 2753 2575 2939 
Q 2822 3125 2822 3475 
Q 2822 3834 2567 4026 
Q 2313 4219 1838 4219 
Q 1578 4219 1281 4162 
Q 984 4106 628 3988 
L 628 4550 
Q 988 4650 1302 4700 
Q 1616 4750 1894 4750 
Q 2613 4750 3031 4423 
Q 3450 4097 3450 3541 
Q 3450 3153 3228 2886 
Q 3006 2619 2597 2516 
z
" transform="scale(0.015625)"/>
       </defs>
       <use xlink:href="#DejaVuSans-33"/>
      </g>
     </g>
    </g>
    <g id="ytick_3">
     <g id="line2d_3">
      <g>
       <use xlink:href="#m829f8f9114" x="47.158" y="124.506" style="stroke: #000000; stroke-width: 0.8"/>
      </g>
     </g>
     <g id="text_3">
      <!-- 4 -->
      <g transform="translate(33.7955 128.305219) scale(0.1 -0.1)">
       <defs>
        <path id="DejaVuSans-34" d="M 2419 4116 
L 825 1625 
L 2419 1625 
L 2419 4116 
z
M 2253 4666 
L 3047 4666 
L 3047 1625 
L 3713 1625 
L 3713 1100 
L 3047 1100 
L 3047 0 
L 2419 0 
L 2419 1100 
L 313 1100 
L 313 1709 
L 2253 4666 
z
" transform="scale(0.015625)"/>
       </defs>
       <use xlink:href="#DejaVuSans-34"/>
      </g>
     </g>
    </g>
    <g id="ytick_4">
     <g id="line2d_4">
      <g>
       <use xlink:href="#m829f8f9114" x="47.158" y="98.438" style="stroke: #000000; stroke-width: 0.8"/>
      </g>
     </g>
     <g id="text_4">
      <!-- 5 -->
      <g transform="translate(33.7955 102.237219) scale(0.1 -0.1)">
       <defs>
        <path id="DejaVuSans-35" d="M 691 4666 
L 3169 4666 
L 3169 4134 
L 1269 4134 
L 1269 2991 
Q 1406 3038 1543 3061 
Q 1681 3084 1819 3084 
Q 2600 3084 3056 2656 
Q 3513 2228 3513 1497 
Q 3513 744 3044 326 
Q 2575 -91 1722 -91 
Q 1428 -91 1123 -41 
Q 819 9 494 109 
L 494 744 
Q 775 591 1075 516 
Q 1375 441 1709 441 
Q 2250 441 2565 725 
Q 2881 1009 2881 1497 
Q 2881 1984 2565 2268 
Q 2250 2553 1709 2553 
Q 1456 2553 1204 2497 
Q 953 2441 691 2322 
L 691 4666 
z
" transform="scale(0.015625)"/>
       </defs>
       <use xlink:href="#DejaVuSans-35"/>
      </g>
     </g>
    </g>
    <g id="ytick_5">
     <g id="line2d_5">
      <g>
       <use xlink:href="#m829f8f9114" x="47.158" y="72.37" style="stroke: #000000; stroke-width: 0.8"/>
      </g>
     </g>
     <g id="text_5">
      <!-- 6 -->
      <g transform="translate(33.7955 76.169219) scale(0.1 -0.1)">
       <defs>
        <path id="DejaVuSans-36" d="M 2113 2584 
Q 1688 2584 1439 2293 
Q 1191 2003 1191 1497 
Q 1191 994 1439 701 
Q 1688 409 2113 409 
Q 2538 409 2786 701 
Q 3034 994 3034 1497 
Q 3034 2003 2786 2293 
Q 2538 2584 2113 2584 
z
M 3366 4563 
L 3366 3988 
Q 3128 4100 2886 4159 
Q 2644 4219 2406 4219 
Q 1781 4219 1451 3797 
Q 1122 3375 1075 2522 
Q 1259 2794 1537 2939 
Q 1816 3084 2150 3084 
Q 2853 3084 3261 2657 
Q 3669 2231 3669 1497 
Q 3669 778 3244 343 
Q 2819 -91 2113 -91 
Q 1303 -91 875 529 
Q 447 1150 447 2328 
Q 447 3434 972 4092 
Q 1497 4750 2381 4750 
Q 2619 4750 2861 4703 
Q 3103 4656 3366 4563 
z
" transform="scale(0.015625)"/>
       </defs>
       <use xlink:href="#DejaVuSans-36"/>
      </g>
     </g>
    </g>
    <g id="ytick_6">
     <g id="line2d_6">
      <g>
       <use xlink:href="#m829f8f9114" x="47.158" y="46.302" style="stroke: #000000; stroke-width: 0.8"/>
      </g>
     </g>
     <g id="text_6">
      <!-- 7 -->
      <g transform="translate(33.7955 50.101219) scale(0.1 -0.1)">
       <defs>
        <path id="DejaVuSans-37" d="M 525 4666 
L 3525 4666 
L 3525 4397 
L 1831 0 
L 1172 0 
L 2766 4134 
L 525 4134 
L 525 4666 
z
" transform="scale(0.015625)"/>
       </defs>
       <use xlink:href="#DejaVuSans-37"/>
      </g>
     </g>
    </g>
    <g id="ytick_7">
     <g id="line2d_7">
      <g>
       <use xlink:href="#m829f8f9114" x="47.158" y="20.234" style="stroke: #000000; stroke-width: 0.8"/>
      </g>
     </g>
     <g id="text_7">
      <!-- 8 -->
      <g transform="translate(33.7955 24.033219) scale(0.1 -0.1)">
       <defs>
        <path id="DejaVuSans-38" d="M 2034 2216 
Q 1584 2216 1326 1975 
Q 1069 1734 1069 1313 
Q 1069 891 1326 650 
Q 1584 409 2034 409 
Q 2484 409 2743 651 
Q 3003 894 3003 1313 
Q 3003 1734 2745 1975 
Q 2488 2216 2034 2216 
z
M 1403 2484 
Q 997 2584 770 2862 
Q 544 3141 544 3541 
Q 544 4100 942 4425 
Q 1341 4750 2034 4750 
Q 2731 4750 3128 4425 
Q 3525 4100 3525 3541 
Q 3525 3141 3298 2862 
Q 3072 2584 2669 2484 
Q 3125 2378 3379 2068 
Q 3634 1759 3634 1313 
Q 3634 634 3220 271 
Q 2806 -91 2034 -91 
Q 1263 -91 848 271 
Q 434 634 434 1313 
Q 434 1759 690 2068 
Q 947 2378 1403 2484 
z
M 1172 3481 
Q 1172 3119 1398 2916 
Q 1625 2713 2034 2713 
Q 2441 2713 2670 2916 
Q 2900 3119 2900 3481 
Q 2900 3844 2670 4047 
Q 2441 4250 2034 4250 
Q 1625 4250 1398 4047 
Q 1172 3844 1172 3481 
z
" transform="scale(0.015625)"/>
       </defs>
       <use xlink:href="#DejaVuSans-38"/>
      </g>
     </g>
    </g>
   </g>
   <g id="line2d_8">
    <path d="M 264.7565 155.249103 
L 256.387327 159.57697 
L 248.018154 164.325074 
L 239.648981 166.940668 
L 231.279808 169.302338 
L 222.910635 169.152365 
L 214.541462 166.914564 
L 206.172288 162.072197 
L 197.803115 158.420984 
L 189.433942 153.352833 
L 181.064769 147.079715 
L 172.695596 137.631492 
L 164.326423 130.552938 
L 155.95725 120.661109 
L 147.588077 110.934279 
L 139.218904 102.686696 
L 130.849731 90.310964 
L 122.480558 82.312387 
L 114.111385 73.774896 
L 105.742212 64.815023 
L 97.373038 53.413076 
L 89.003865 44.788791 
L 80.634692 35.75748 
L 72.265519 26.416576 
L 63.896346 16.82126 
L 55.527173 3.040519 
L 51.797348 -1 
" clip-path="url(#p993b1b9e78)" style="fill: none; stroke: #1f77b4; stroke-width: 1.5; stroke-linecap: square"/>
   </g>
   <g id="line2d_9">
    <path d="M 264.7565 140.82502 
L 256.387327 145.699997 
L 248.018154 144.247665 
L 239.648981 145.009416 
L 231.279808 143.015489 
L 222.910635 143.699208 
L 214.541462 144.433979 
L 206.172288 148.209486 
L 197.803115 146.955935 
L 189.433942 145.402166 
L 181.064769 144.175185 
L 172.695596 151.066707 
L 164.326423 150.978418 
L 155.95725 157.993005 
L 147.588077 160.24361 
L 139.218904 160.121914 
L 130.849731 172.440558 
L 122.480558 170.774508 
L 114.111385 166.748214 
L 105.742212 162.674377 
L 97.373038 157.064689 
L 89.003865 153.147404 
L 80.634692 149.014178 
L 72.265519 144.838799 
L 63.896346 140.676785 
L 55.527173 136.916175 
L 47.158 132.862504 
L 38.788827 128.124134 
L 30.419654 124.036923 
L 22.050481 119.841529 
L 13.681308 115.685968 
L 5.312135 111.263622 
L -1 107.952054 
" clip-path="url(#p993b1b9e78)" style="fill: none; stroke-dasharray: 5.55,2.4; stroke-dashoffset: 0; stroke: #ff7f0e; stroke-width: 1.5"/>
   </g>
   <g id="line2d_10">
    <path d="M 264.7565 158.620021 
L 256.387327 170.354138 
L 248.018154 176.243468 
L 239.648981 177.744854 
L 231.279808 183.650152 
L 222.910635 185.358389 
L 214.541462 187.181202 
L 206.172288 185.879609 
L 197.803115 188.025488 
L 189.433942 190.110543 
L 181.064769 191.612356 
L 172.695596 190.164757 
L 164.326423 189.015886 
L 155.95725 184.884787 
L 147.588077 181.605934 
L 139.218904 177.149499 
L 130.849731 171.75294 
L 122.480558 166.806888 
L 114.111385 158.656313 
L 105.742212 149.816867 
L 97.373038 147.398806 
L 89.003865 138.394967 
L 80.634692 130.462996 
L 72.265519 122.875371 
L 63.896346 114.774701 
L 55.527173 122.877728 
L 47.158 114.614131 
L 38.788827 110.797609 
L 30.419654 99.263996 
L 22.050481 94.229669 
L 13.681308 80.983962 
L 5.312135 70.753282 
L -1 61.476719 
" clip-path="url(#p993b1b9e78)" style="fill: none; stroke-dasharray: 5.55,2.4; stroke-dashoffset: 0; stroke: #2ca02c; stroke-width: 1.5"/>
   </g>
   <g id="line2d_11">
    <path d="M 264.7565 8.861799 
L 256.387327 14.594473 
L 248.018154 16.792201 
L 239.648981 22.978943 
L 231.279808 23.641269 
L 222.910635 29.344904 
L 214.541462 38.922591 
L 206.172288 54.10309 
L 197.803115 56.417855 
L 189.433942 57.539039 
L 181.064769 58.48255 
L 172.695596 76.226897 
L 164.326423 77.053055 
L 155.95725 85.425053 
L 147.588077 91.247484 
L 139.218904 91.274935 
L 130.849731 104.29586 
L 122.480558 101.990775 
L 114.111385 98.634329 
L 105.742212 95.589985 
L 97.373038 104.184414 
L 89.003865 100.785538 
L 80.634692 97.967522 
L 72.265519 95.424697 
L 63.896346 92.801312 
L 55.527173 113.728108 
L 47.158 108.976541 
L 38.788827 110.132698 
L 30.419654 101.600497 
L 22.050481 112.888397 
L 13.681308 104.722994 
L 5.312135 99.560124 
L -1 95.62202 
" clip-path="url(#p993b1b9e78)" style="fill: none; stroke-dasharray: 5.55,2.4; stroke-dashoffset: 0; stroke: #d62728; stroke-width: 1.5"/>
   </g>
   <g id="line2d_12">
    <path d="M 264.7565 187.491585 
L 256.387327 188.58331 
L 248.018154 185.823667 
L 239.648981 182.007196 
L 231.279808 179.320181 
L 222.910635 175.401665 
L 214.541462 183.755914 
L 206.172288 180.213986 
L 197.803115 176.543589 
L 189.433942 173.29736 
L 181.064769 170.257314 
L 172.695596 177.697542 
L 164.326423 172.818168 
L 155.95725 170.522038 
L 147.588077 172.300227 
L 139.218904 166.98576 
L 130.849731 169.169187 
L 122.480558 165.011433 
L 114.111385 163.64897 
L 105.742212 161.856324 
L 97.373038 174.799288 
L 89.003865 173.380058 
L 80.634692 170.464608 
L 72.265519 167.537793 
L 63.896346 165.244975 
L 55.527173 168.050221 
L 47.158 168.519821 
L 38.788827 165.842856 
L 30.419654 166.155651 
L 22.050481 163.42319 
L 13.681308 163.693695 
L 5.312135 161.204478 
L -1 159.763474 
" clip-path="url(#p993b1b9e78)" style="fill: none; stroke-dasharray: 1.5,2.475; stroke-dashoffset: 0; stroke: #9467bd; stroke-width: 1.5"/>
   </g>
   <g id="line2d_13">
    <path d="M 264.7565 86.283025 
L 256.387327 87.96986 
L 248.018154 91.260327 
L 239.648981 95.337672 
L 231.279808 97.269083 
L 222.910635 99.9677 
L 214.541462 101.761906 
L 206.172288 102.979917 
L 197.803115 105.850623 
L 189.433942 108.13094 
L 181.064769 110.135714 
L 172.695596 105.098082 
L 164.326423 107.082835 
L 155.95725 103.614939 
L 147.588077 100.522605 
L 139.218904 100.567591 
L 130.849731 91.426377 
L 122.480558 92.156028 
L 114.111385 93.725457 
L 105.742212 95.050628 
L 97.373038 93.595719 
L 89.003865 94.433073 
L 80.634692 93.37678 
L 72.265519 92.226851 
L 63.896346 91.029078 
L 55.527173 85.813002 
L 47.158 84.826971 
L 38.788827 81.101577 
L 30.419654 80.030417 
L 22.050481 70.484276 
L 13.681308 69.296126 
L 5.312135 67.457306 
L -1 65.700463 
" clip-path="url(#p993b1b9e78)" style="fill: none; stroke-dasharray: 1.5,2.475; stroke-dashoffset: 0; stroke: #8c564b; stroke-width: 1.5"/>
   </g>
   <g id="line2d_14">
    <path d="M 264.7565 130.524879 
L 256.387327 135.103661 
L 248.018154 138.11743 
L 239.648981 140.510808 
L 231.279808 141.97385 
L 222.910635 142.815357 
L 214.541462 144.008177 
L 206.172288 143.717241 
L 197.803115 142.314528 
L 189.433942 140.01065 
L 181.064769 137.083051 
L 172.695596 135.379102 
L 164.326423 131.825851 
L 155.95725 127.993838 
L 147.588077 123.802591 
L 139.218904 119.056168 
L 130.849731 114.802568 
L 122.480558 109.845969 
L 114.111385 104.289333 
L 105.742212 98.442865 
L 97.373038 93.995503 
L 89.003865 88.244544 
L 80.634692 82.080817 
L 72.265519 75.811851 
L 63.896346 69.41664 
L 55.527173 65.108559 
L 47.158 58.958252 
L 38.788827 52.813643 
L 30.419654 45.796714 
L 22.050481 39.93788 
L 13.681308 32.682509 
L 5.312135 25.51787 
L -1 19.934913 
" clip-path="url(#p993b1b9e78)" style="fill: none; stroke: #000000; stroke-width: 1.5; stroke-linecap: square"/>
   </g>
   <g id="patch_3">
    <path d="M 47.158 189.676 
L 47.158 7.2 
" style="fill: none; stroke: #000000; stroke-width: 0.8; stroke-linejoin: miter; stroke-linecap: square"/>
   </g>
   <g id="patch_4">
    <path d="M 264.7565 189.676 
L 264.7565 7.2 
" style="fill: none; stroke: #000000; stroke-width: 0.8; stroke-linejoin: miter; stroke-linecap: square"/>
   </g>
   <g id="patch_5">
    <path d="M 47.158 189.676 
L 264.7565 189.676 
" style="fill: none; stroke: #000000; stroke-width: 0.8; stroke-linejoin: miter; stroke-linecap: square"/>
   </g>
   <g id="patch_6">
    <path d="M 47.158 7.2 
L 264.7565 7.2 
" style="fill: none; stroke: #000000; stroke-width: 0.8; stroke-linejoin: miter; stroke-linecap: square"/>
   </g>
   <g id="text_8">
    <!-- XYG6+1/cr -->
    <g transform="translate(123.083813 19.830625) scale(0.12 -0.12)">
     <defs>
      <path id="DejaVuSans-58" d="M 403 4666 
L 1081 4666 
L 2241 2931 
L 3406 4666 
L 4084 4666 
L 2584 2425 
L 4184 0 
L 3506 0 
L 2194 1984 
L 872 0 
L 191 0 
L 1856 2491 
L 403 4666 
z
" transform="scale(0.015625)"/>
      <path id="DejaVuSans-59" d="M -13 4666 
L 666 4666 
L 1959 2747 
L 3244 4666 
L 3922 4666 
L 2272 2222 
L 2272 0 
L 1638 0 
L 1638 2222 
L -13 4666 
z
" transform="scale(0.015625)"/>
      <path id="DejaVuSans-47" d="M 3809 666 
L 3809 1919 
L 2778 1919 
L 2778 2438 
L 4434 2438 
L 4434 434 
Q 4069 175 3628 42 
Q 3188 -91 2688 -91 
Q 1594 -91 976 548 
Q 359 1188 359 2328 
Q 359 3472 976 4111 
Q 1594 4750 2688 4750 
Q 3144 4750 3555 4637 
Q 3966 4525 4313 4306 
L 4313 3634 
Q 3963 3931 3569 4081 
Q 3175 4231 2741 4231 
Q 1884 4231 1454 3753 
Q 1025 3275 1025 2328 
Q 1025 1384 1454 906 
Q 1884 428 2741 428 
Q 3075 428 3337 486 
Q 3600 544 3809 666 
z
" transform="scale(0.015625)"/>
      <path id="DejaVuSans-2b" d="M 2944 4013 
L 2944 2272 
L 4684 2272 
L 4684 1741 
L 2944 1741 
L 2944 0 
L 2419 0 
L 2419 1741 
L 678 1741 
L 678 2272 
L 2419 2272 
L 2419 4013 
L 2944 4013 
z
" transform="scale(0.015625)"/>
      <path id="DejaVuSans-31" d="M 794 531 
L 1825 531 
L 1825 4091 
L 703 3866 
L 703 4441 
L 1819 4666 
L 2450 4666 
L 2450 531 
L 3481 531 
L 3481 0 
L 794 0 
L 794 531 
z
" transform="scale(0.015625)"/>
      <path id="DejaVuSans-2f" d="M 1625 4666 
L 2156 4666 
L 531 -594 
L 0 -594 
L 1625 4666 
z
" transform="scale(0.015625)"/>
      <path id="DejaVuSans-63" d="M 3122 3366 
L 3122 2828 
Q 2878 2963 2633 3030 
Q 2388 3097 2138 3097 
Q 1578 3097 1268 2742 
Q 959 2388 959 1747 
Q 959 1106 1268 751 
Q 1578 397 2138 397 
Q 2388 397 2633 464 
Q 2878 531 3122 666 
L 3122 134 
Q 2881 22 2623 -34 
Q 2366 -91 2075 -91 
Q 1284 -91 818 406 
Q 353 903 353 1747 
Q 353 2603 823 3093 
Q 1294 3584 2113 3584 
Q 2378 3584 2631 3529 
Q 2884 3475 3122 3366 
z
" transform="scale(0.015625)"/>
      <path id="DejaVuSans-72" d="M 2631 2963 
Q 2534 3019 2420 3045 
Q 2306 3072 2169 3072 
Q 1681 3072 1420 2755 
Q 1159 2438 1159 1844 
L 1159 0 
L 581 0 
L 581 3500 
L 1159 3500 
L 1159 2956 
Q 1341 3275 1631 3429 
Q 1922 3584 2338 3584 
Q 2397 3584 2469 3576 
Q 2541 3569 2628 3553 
L 2631 2963 
z
" transform="scale(0.015625)"/>
     </defs>
     <use xlink:href="#DejaVuSans-58"/>
     <use xlink:href="#DejaVuSans-59" x="68.505859"/>
     <use xlink:href="#DejaVuSans-47" x="129.589844"/>
     <use xlink:href="#DejaVuSans-36" x="207.080078"/>
     <use xlink:href="#DejaVuSans-2b" x="270.703125"/>
     <use xlink:href="#DejaVuSans-31" x="354.492188"/>
     <use xlink:href="#DejaVuSans-2f" x="418.115234"/>
     <use xlink:href="#DejaVuSans-63" x="451.806641"/>
     <use xlink:href="#DejaVuSans-72" x="506.787109"/>
    </g>
    <!-- Model -->
    <g transform="translate(137.941313 33.268) scale(0.12 -0.12)">
     <defs>
      <path id="DejaVuSans-4d" d="M 628 4666 
L 1569 4666 
L 2759 1491 
L 3956 4666 
L 4897 4666 
L 4897 0 
L 4281 0 
L 4281 4097 
L 3078 897 
L 2444 897 
L 1241 4097 
L 1241 0 
L 628 0 
L 628 4666 
z
" transform="scale(0.015625)"/>
      <path id="DejaVuSans-6f" d="M 1959 3097 
Q 1497 3097 1228 2736 
Q 959 2375 959 1747 
Q 959 1119 1226 758 
Q 1494 397 1959 397 
Q 2419 397 2687 759 
Q 2956 1122 2956 1747 
Q 2956 2369 2687 2733 
Q 2419 3097 1959 3097 
z
M 1959 3584 
Q 2709 3584 3137 3096 
Q 3566 2609 3566 1747 
Q 3566 888 3137 398 
Q 2709 -91 1959 -91 
Q 1206 -91 779 398 
Q 353 888 353 1747 
Q 353 2609 779 3096 
Q 1206 3584 1959 3584 
z
" transform="scale(0.015625)"/>
      <path id="DejaVuSans-64" d="M 2906 2969 
L 2906 4863 
L 3481 4863 
L 3481 0 
L 2906 0 
L 2906 525 
Q 2725 213 2448 61 
Q 2172 -91 1784 -91 
Q 1150 -91 751 415 
Q 353 922 353 1747 
Q 353 2572 751 3078 
Q 1150 3584 1784 3584 
Q 2172 3584 2448 3432 
Q 2725 3281 2906 2969 
z
M 947 1747 
Q 947 1113 1208 752 
Q 1469 391 1925 391 
Q 2381 391 2643 752 
Q 2906 1113 2906 1747 
Q 2906 2381 2643 2742 
Q 2381 3103 1925 3103 
Q 1469 3103 1208 2742 
Q 947 2381 947 1747 
z
" transform="scale(0.015625)"/>
      <path id="DejaVuSans-65" d="M 3597 1894 
L 3597 1613 
L 953 1613 
Q 991 1019 1311 708 
Q 1631 397 2203 397 
Q 2534 397 2845 478 
Q 3156 559 3463 722 
L 3463 178 
Q 3153 47 2828 -22 
Q 2503 -91 2169 -91 
Q 1331 -91 842 396 
Q 353 884 353 1716 
Q 353 2575 817 3079 
Q 1281 3584 2069 3584 
Q 2775 3584 3186 3129 
Q 3597 2675 3597 1894 
z
M 3022 2063 
Q 3016 2534 2758 2815 
Q 2500 3097 2075 3097 
Q 1594 3097 1305 2825 
Q 1016 2553 972 2059 
L 3022 2063 
z
" transform="scale(0.015625)"/>
      <path id="DejaVuSans-6c" d="M 603 4863 
L 1178 4863 
L 1178 0 
L 603 0 
L 603 4863 
z
" transform="scale(0.015625)"/>
     </defs>
     <use xlink:href="#DejaVuSans-4d"/>
     <use xlink:href="#DejaVuSans-6f" x="86.279297"/>
     <use xlink:href="#DejaVuSans-64" x="147.460938"/>
     <use xlink:href="#DejaVuSans-65" x="210.9375"/>
     <use xlink:href="#DejaVuSans-6c" x="272.460938"/>
    </g>
   </g>
  </g>
  <g id="axes_2">
   <g id="patch_7">
    <path d="M 264.7565 189.676 
L 482.355 189.676 
L 482.355 7.2 
L 264.7565 7.2 
L 264.7565 189.676 
z
" style="fill: none"/>
   </g>
   <g id="matplotlib.axis_3"/>
   <g id="matplotlib.axis_4">
    <g id="ytick_8">
     <g id="line2d_15">
      <g>
       <use xlink:href="#m829f8f9114" x="264.7565" y="176.642" style="stroke: #000000; stroke-width: 0.8"/>
      </g>
     </g>
    </g>
    <g id="ytick_9">
     <g id="line2d_16">
      <g>
       <use xlink:href="#m829f8f9114" x="264.7565" y="150.574" style="stroke: #000000; stroke-width: 0.8"/>
      </g>
     </g>
    </g>
    <g id="ytick_10">
     <g id="line2d_17">
      <g>
       <use xlink:href="#m829f8f9114" x="264.7565" y="124.506" style="stroke: #000000; stroke-width: 0.8"/>
      </g>
     </g>
    </g>
    <g id="ytick_11">
     <g id="line2d_18">
      <g>
       <use xlink:href="#m829f8f9114" x="264.7565" y="98.438" style="stroke: #000000; stroke-width: 0.8"/>
      </g>
     </g>
    </g>
    <g id="ytick_12">
     <g id="line2d_19">
      <g>
       <use xlink:href="#m829f8f9114" x="264.7565" y="72.37" style="stroke: #000000; stroke-width: 0.8"/>
      </g>
     </g>
    </g>
    <g id="ytick_13">
     <g id="line2d_20">
      <g>
       <use xlink:href="#m829f8f9114" x="264.7565" y="46.302" style="stroke: #000000; stroke-width: 0.8"/>
      </g>
     </g>
    </g>
    <g id="ytick_14">
     <g id="line2d_21">
      <g>
       <use xlink:href="#m829f8f9114" x="264.7565" y="20.234" style="stroke: #000000; stroke-width: 0.8"/>
      </g>
     </g>
    </g>
   </g>
   <g id="line2d_22">
    <path d="M 482.355 143.573375 
L 473.985827 149.938299 
L 465.616654 155.534171 
L 457.247481 159.807924 
L 448.878308 162.618968 
L 440.509135 163.716261 
L 432.139962 154.514932 
L 423.770788 153.629256 
L 415.401615 150.955088 
L 407.032442 146.444529 
L 398.663269 139.437867 
L 390.294096 133.370095 
L 381.924923 126.421506 
L 373.55575 118.230853 
L 365.186577 110.376781 
L 356.817404 102.121542 
L 348.448231 90.122192 
L 340.079058 81.64728 
L 331.709885 73.266239 
L 323.340712 62.709129 
L 314.971538 53.918473 
L 306.602365 42.32309 
L 298.233192 33.659714 
L 289.864019 24.504657 
L 281.494846 14.488416 
L 273.125673 4.728828 
L 267.901588 -1 
" clip-path="url(#pdd1dc00012)" style="fill: none; stroke: #1f77b4; stroke-width: 1.5; stroke-linecap: square"/>
   </g>
   <g id="line2d_23">
    <path d="M 482.355 112.459936 
L 473.985827 112.383837 
L 465.616654 112.404052 
L 457.247481 112.568385 
L 448.878308 112.911853 
L 440.509135 113.149711 
L 432.139962 135.601704 
L 423.770788 135.649078 
L 415.401615 134.861974 
L 407.032442 134.88996 
L 398.663269 137.966703 
L 390.294096 137.566663 
L 381.924923 140.086281 
L 373.55575 141.180593 
L 365.186577 139.528673 
L 356.817404 138.250051 
L 348.448231 151.877288 
L 340.079058 149.675351 
L 331.709885 147.572807 
L 323.340712 149.207601 
L 314.971538 149.364715 
L 306.602365 164.244918 
L 298.233192 159.77092 
L 289.864019 155.209864 
L 281.494846 149.337049 
L 273.125673 143.174431 
L 264.7565 138.880674 
L 256.387327 134.348291 
L 248.018154 129.716532 
L 239.648981 124.861254 
L 231.279808 120.245459 
L 222.910635 116.441266 
L 214.541462 111.28817 
L 206.172288 106.000142 
L 197.803115 101.136387 
L 189.433942 94.504663 
L 181.064769 86.355266 
L 172.695596 78.708377 
L 164.326423 80.646876 
L 155.95725 73.056331 
L 147.588077 64.574844 
" clip-path="url(#pdd1dc00012)" style="fill: none; stroke-dasharray: 5.55,2.4; stroke-dashoffset: 0; stroke: #ff7f0e; stroke-width: 1.5"/>
   </g>
   <g id="line2d_24">
    <path d="M 482.355 137.752593 
L 473.985827 145.060723 
L 465.616654 151.76745 
L 457.247481 156.747862 
L 448.878308 162.079688 
L 440.509135 168.151114 
L 432.139962 158.020967 
L 423.770788 165.639845 
L 415.401615 172.690283 
L 407.032442 177.630819 
L 398.663269 181.820913 
L 390.294096 183.153286 
L 381.924923 180.244741 
L 373.55575 184.479354 
L 365.186577 188.714408 
L 356.817404 186.542298 
L 348.448231 176.765975 
L 340.079058 175.885174 
L 331.709885 170.951118 
L 323.340712 161.935162 
L 314.971538 159.111129 
L 306.602365 152.950439 
L 298.233192 142.229636 
L 289.864019 131.63396 
L 281.494846 129.186532 
L 273.125673 123.083613 
L 264.7565 111.145621 
L 256.387327 99.270946 
L 248.018154 88.886747 
L 239.648981 83.386985 
L 231.279808 69.496306 
L 222.910635 61.390833 
L 214.541462 49.219835 
L 206.172288 36.1325 
L 197.803115 26.961782 
L 189.433942 14.951542 
L 181.064769 -0.701832 
L 180.900384 -1 
" clip-path="url(#pdd1dc00012)" style="fill: none; stroke-dasharray: 5.55,2.4; stroke-dashoffset: 0; stroke: #2ca02c; stroke-width: 1.5"/>
   </g>
   <g id="line2d_25">
    <path d="M 444.073187 -1 
L 440.509135 0.616694 
L 432.139962 37.001475 
L 423.770788 39.050959 
L 415.401615 41.06381 
L 407.032442 46.071202 
L 398.663269 56.976265 
L 390.294096 61.370839 
L 381.924923 70.36506 
L 373.55575 75.137548 
L 365.186577 73.913872 
L 356.817404 76.975208 
L 348.448231 94.043385 
L 340.079058 94.106922 
L 331.709885 92.421207 
L 323.340712 97.710143 
L 314.971538 97.151864 
L 306.602365 110.357341 
L 298.233192 106.659018 
L 289.864019 103.177587 
L 281.494846 105.39469 
L 273.125673 101.941269 
L 264.7565 98.322334 
L 256.387327 95.05461 
L 248.018154 90.377118 
L 239.648981 88.850493 
L 231.279808 84.433823 
L 222.910635 98.127712 
L 214.541462 101.723008 
L 206.172288 105.207052 
L 197.803115 101.507224 
L 189.433942 99.076618 
L 181.064769 92.644032 
L 172.695596 86.019762 
L 164.326423 76.047248 
L 155.95725 76.075143 
L 147.588077 69.55977 
" clip-path="url(#pdd1dc00012)" style="fill: none; stroke-dasharray: 5.55,2.4; stroke-dashoffset: 0; stroke: #d62728; stroke-width: 1.5"/>
   </g>
   <g id="line2d_26">
    <path d="M 482.355 181.231346 
L 473.985827 178.755519 
L 465.616654 176.310305 
L 457.247481 173.994942 
L 448.878308 172.176532 
L 440.509135 170.730029 
L 432.139962 173.513383 
L 423.770788 171.145649 
L 415.401615 168.965791 
L 407.032442 168.349774 
L 398.663269 172.665891 
L 390.294096 168.832661 
L 381.924923 164.72982 
L 373.55575 167.562332 
L 365.186577 165.88874 
L 356.817404 162.93114 
L 348.448231 168.561382 
L 340.079058 168.671665 
L 331.709885 166.351337 
L 323.340712 170.776646 
L 314.971538 164.896699 
L 306.602365 165.836014 
L 298.233192 166.047781 
L 289.864019 165.850285 
L 281.494846 167.354988 
L 273.125673 166.937928 
L 264.7565 166.812758 
L 256.387327 166.487093 
L 248.018154 165.545076 
L 239.648981 161.063363 
L 231.279808 160.904797 
L 222.910635 152.748739 
L 214.541462 151.815944 
L 206.172288 150.130151 
L 197.803115 146.406849 
L 189.433942 145.516016 
L 181.064769 145.529598 
L 172.695596 145.180376 
L 164.326423 143.786508 
L 155.95725 140.973518 
L 147.588077 139.468967 
" clip-path="url(#pdd1dc00012)" style="fill: none; stroke-dasharray: 1.5,2.475; stroke-dashoffset: 0; stroke: #9467bd; stroke-width: 1.5"/>
   </g>
   <g id="line2d_27">
    <path d="M 482.355 66.461988 
L 473.985827 69.806617 
L 465.616654 73.322916 
L 457.247481 77.067323 
L 448.878308 80.555462 
L 440.509135 83.845594 
L 432.139962 91.589122 
L 423.770788 94.583553 
L 415.401615 96.251385 
L 407.032442 97.837819 
L 398.663269 98.757637 
L 390.294096 101.081032 
L 381.924923 104.776534 
L 373.55575 104.912114 
L 365.186577 106.197086 
L 356.817404 107.369595 
L 348.448231 100.631591 
L 340.079058 99.418682 
L 331.709885 99.572486 
L 323.340712 98.637372 
L 314.971538 96.970827 
L 306.602365 85.448113 
L 298.233192 86.649576 
L 289.864019 86.983902 
L 281.494846 84.251863 
L 273.125673 86.327676 
L 264.7565 84.97265 
L 256.387327 83.491284 
L 248.018154 81.517082 
L 239.648981 78.816369 
L 231.279808 75.66113 
L 222.910635 63.786175 
L 214.541462 57.196694 
L 206.172288 49.9097 
L 197.803115 47.699249 
L 189.433942 44.283616 
L 181.064769 41.953056 
L 172.695596 39.705666 
L 164.326423 38.309727 
L 155.95725 35.299216 
L 147.588077 33.133492 
" clip-path="url(#pdd1dc00012)" style="fill: none; stroke-dasharray: 1.5,2.475; stroke-dashoffset: 0; stroke: #8c564b; stroke-width: 1.5"/>
   </g>
   <g id="line2d_28">
    <path d="M 482.355 113.774881 
L 473.985827 117.962645 
L 465.616654 121.824395 
L 457.247481 125.053189 
L 448.878308 127.632121 
L 440.509135 129.407737 
L 432.139962 132.392992 
L 423.770788 132.998913 
L 415.401615 132.452188 
L 407.032442 131.427699 
L 398.663269 130.533193 
L 390.294096 128.178745 
L 381.924923 126.107633 
L 373.55575 123.461775 
L 365.186577 119.705863 
L 356.817404 115.687598 
L 348.448231 112.471112 
L 340.079058 107.939356 
L 331.709885 102.899971 
L 323.340712 98.183941 
L 314.971538 93.019982 
L 306.602365 89.024044 
L 298.233192 83.188398 
L 289.864019 77.005537 
L 281.494846 71.355793 
L 273.125673 65.244766 
L 264.7565 58.762248 
L 256.387327 52.02784 
L 248.018154 44.995315 
L 239.648981 38.105744 
L 231.279808 30.670157 
L 222.910635 24.243711 
L 214.541462 17.298413 
L 206.172288 10.347657 
L 197.803115 2.866541 
L 193.583066 -1 
" clip-path="url(#pdd1dc00012)" style="fill: none; stroke: #000000; stroke-width: 1.5; stroke-linecap: square"/>
   </g>
   <g id="patch_8">
    <path d="M 264.7565 189.676 
L 264.7565 7.2 
" style="fill: none; stroke: #000000; stroke-width: 0.8; stroke-linejoin: miter; stroke-linecap: square"/>
   </g>
   <g id="patch_9">
    <path d="M 482.355 189.676 
L 482.355 7.2 
" style="fill: none; stroke: #000000; stroke-width: 0.8; stroke-linejoin: miter; stroke-linecap: square"/>
   </g>
   <g id="patch_10">
    <path d="M 264.7565 189.676 
L 482.355 189.676 
" style="fill: none; stroke: #000000; stroke-width: 0.8; stroke-linejoin: miter; stroke-linecap: square"/>
   </g>
   <g id="patch_11">
    <path d="M 264.7565 7.2 
L 482.355 7.2 
" style="fill: none; stroke: #000000; stroke-width: 0.8; stroke-linejoin: miter; stroke-linecap: square"/>
   </g>
   <g id="text_9">
    <!-- XYG6+1/sIEPA -->
    <g transform="translate(330.421375 19.830625) scale(0.12 -0.12)">
     <defs>
      <path id="DejaVuSans-73" d="M 2834 3397 
L 2834 2853 
Q 2591 2978 2328 3040 
Q 2066 3103 1784 3103 
Q 1356 3103 1142 2972 
Q 928 2841 928 2578 
Q 928 2378 1081 2264 
Q 1234 2150 1697 2047 
L 1894 2003 
Q 2506 1872 2764 1633 
Q 3022 1394 3022 966 
Q 3022 478 2636 193 
Q 2250 -91 1575 -91 
Q 1294 -91 989 -36 
Q 684 19 347 128 
L 347 722 
Q 666 556 975 473 
Q 1284 391 1588 391 
Q 1994 391 2212 530 
Q 2431 669 2431 922 
Q 2431 1156 2273 1281 
Q 2116 1406 1581 1522 
L 1381 1569 
Q 847 1681 609 1914 
Q 372 2147 372 2553 
Q 372 3047 722 3315 
Q 1072 3584 1716 3584 
Q 2034 3584 2315 3537 
Q 2597 3491 2834 3397 
z
" transform="scale(0.015625)"/>
      <path id="DejaVuSans-49" d="M 628 4666 
L 1259 4666 
L 1259 0 
L 628 0 
L 628 4666 
z
" transform="scale(0.015625)"/>
      <path id="DejaVuSans-45" d="M 628 4666 
L 3578 4666 
L 3578 4134 
L 1259 4134 
L 1259 2753 
L 3481 2753 
L 3481 2222 
L 1259 2222 
L 1259 531 
L 3634 531 
L 3634 0 
L 628 0 
L 628 4666 
z
" transform="scale(0.015625)"/>
      <path id="DejaVuSans-50" d="M 1259 4147 
L 1259 2394 
L 2053 2394 
Q 2494 2394 2734 2622 
Q 2975 2850 2975 3272 
Q 2975 3691 2734 3919 
Q 2494 4147 2053 4147 
L 1259 4147 
z
M 628 4666 
L 2053 4666 
Q 2838 4666 3239 4311 
Q 3641 3956 3641 3272 
Q 3641 2581 3239 2228 
Q 2838 1875 2053 1875 
L 1259 1875 
L 1259 0 
L 628 0 
L 628 4666 
z
" transform="scale(0.015625)"/>
      <path id="DejaVuSans-41" d="M 2188 4044 
L 1331 1722 
L 3047 1722 
L 2188 4044 
z
M 1831 4666 
L 2547 4666 
L 4325 0 
L 3669 0 
L 3244 1197 
L 1141 1197 
L 716 0 
L 50 0 
L 1831 4666 
z
" transform="scale(0.015625)"/>
     </defs>
     <use xlink:href="#DejaVuSans-58"/>
     <use xlink:href="#DejaVuSans-59" x="68.505859"/>
     <use xlink:href="#DejaVuSans-47" x="129.589844"/>
     <use xlink:href="#DejaVuSans-36" x="207.080078"/>
     <use xlink:href="#DejaVuSans-2b" x="270.703125"/>
     <use xlink:href="#DejaVuSans-31" x="354.492188"/>
     <use xlink:href="#DejaVuSans-2f" x="418.115234"/>
     <use xlink:href="#DejaVuSans-73" x="451.806641"/>
     <use xlink:href="#DejaVuSans-49" x="503.90625"/>
     <use xlink:href="#DejaVuSans-45" x="533.398438"/>
     <use xlink:href="#DejaVuSans-50" x="596.582031"/>
     <use xlink:href="#DejaVuSans-41" x="650.509766"/>
    </g>
    <!-- Model -->
    <g transform="translate(355.539813 33.268) scale(0.12 -0.12)">
     <use xlink:href="#DejaVuSans-4d"/>
     <use xlink:href="#DejaVuSans-6f" x="86.279297"/>
     <use xlink:href="#DejaVuSans-64" x="147.460938"/>
     <use xlink:href="#DejaVuSans-65" x="210.9375"/>
     <use xlink:href="#DejaVuSans-6c" x="272.460938"/>
    </g>
   </g>
  </g>
  <g id="axes_3">
   <g id="patch_12">
    <path d="M 47.158 372.152 
L 264.7565 372.152 
L 264.7565 189.676 
L 47.158 189.676 
L 47.158 372.152 
z
" style="fill: none"/>
   </g>
   <g id="matplotlib.axis_5">
    <g id="xtick_1">
     <g id="line2d_29">
      <defs>
       <path id="m16fa95944a" d="M 0 0 
L 0 3.5 
" style="stroke: #000000; stroke-width: 0.8"/>
      </defs>
      <g>
       <use xlink:href="#m16fa95944a" x="63.896346" y="372.152" style="stroke: #000000; stroke-width: 0.8"/>
      </g>
     </g>
     <g id="text_10">
      <!-- 0.4 -->
      <g transform="translate(55.944784 386.750437) scale(0.1 -0.1)">
       <defs>
        <path id="DejaVuSans-30" d="M 2034 4250 
Q 1547 4250 1301 3770 
Q 1056 3291 1056 2328 
Q 1056 1369 1301 889 
Q 1547 409 2034 409 
Q 2525 409 2770 889 
Q 3016 1369 3016 2328 
Q 3016 3291 2770 3770 
Q 2525 4250 2034 4250 
z
M 2034 4750 
Q 2819 4750 3233 4129 
Q 3647 3509 3647 2328 
Q 3647 1150 3233 529 
Q 2819 -91 2034 -91 
Q 1250 -91 836 529 
Q 422 1150 422 2328 
Q 422 3509 836 4129 
Q 1250 4750 2034 4750 
z
" transform="scale(0.015625)"/>
        <path id="DejaVuSans-2e" d="M 684 794 
L 1344 794 
L 1344 0 
L 684 0 
L 684 794 
z
" transform="scale(0.015625)"/>
       </defs>
       <use xlink:href="#DejaVuSans-30"/>
       <use xlink:href="#DejaVuSans-2e" x="63.623047"/>
       <use xlink:href="#DejaVuSans-34" x="95.410156"/>
      </g>
     </g>
    </g>
    <g id="xtick_2">
     <g id="line2d_30">
      <g>
       <use xlink:href="#m16fa95944a" x="97.373038" y="372.152" style="stroke: #000000; stroke-width: 0.8"/>
      </g>
     </g>
     <g id="text_11">
      <!-- 0.5 -->
      <g transform="translate(89.421476 386.750437) scale(0.1 -0.1)">
       <use xlink:href="#DejaVuSans-30"/>
       <use xlink:href="#DejaVuSans-2e" x="63.623047"/>
       <use xlink:href="#DejaVuSans-35" x="95.410156"/>
      </g>
     </g>
    </g>
    <g id="xtick_3">
     <g id="line2d_31">
      <g>
       <use xlink:href="#m16fa95944a" x="130.849731" y="372.152" style="stroke: #000000; stroke-width: 0.8"/>
      </g>
     </g>
     <g id="text_12">
      <!-- 0.6 -->
      <g transform="translate(122.898168 386.750437) scale(0.1 -0.1)">
       <use xlink:href="#DejaVuSans-30"/>
       <use xlink:href="#DejaVuSans-2e" x="63.623047"/>
       <use xlink:href="#DejaVuSans-36" x="95.410156"/>
      </g>
     </g>
    </g>
    <g id="xtick_4">
     <g id="line2d_32">
      <g>
       <use xlink:href="#m16fa95944a" x="164.326423" y="372.152" style="stroke: #000000; stroke-width: 0.8"/>
      </g>
     </g>
     <g id="text_13">
      <!-- 0.7 -->
      <g transform="translate(156.374861 386.750437) scale(0.1 -0.1)">
       <use xlink:href="#DejaVuSans-30"/>
       <use xlink:href="#DejaVuSans-2e" x="63.623047"/>
       <use xlink:href="#DejaVuSans-37" x="95.410156"/>
      </g>
     </g>
    </g>
    <g id="xtick_5">
     <g id="line2d_33">
      <g>
       <use xlink:href="#m16fa95944a" x="197.803115" y="372.152" style="stroke: #000000; stroke-width: 0.8"/>
      </g>
     </g>
     <g id="text_14">
      <!-- 0.8 -->
      <g transform="translate(189.851553 386.750437) scale(0.1 -0.1)">
       <use xlink:href="#DejaVuSans-30"/>
       <use xlink:href="#DejaVuSans-2e" x="63.623047"/>
       <use xlink:href="#DejaVuSans-38" x="95.410156"/>
      </g>
     </g>
    </g>
    <g id="xtick_6">
     <g id="line2d_34">
      <g>
       <use xlink:href="#m16fa95944a" x="231.279808" y="372.152" style="stroke: #000000; stroke-width: 0.8"/>
      </g>
     </g>
     <g id="text_15">
      <!-- 0.9 -->
      <g transform="translate(223.328245 386.750437) scale(0.1 -0.1)">
       <defs>
        <path id="DejaVuSans-39" d="M 703 97 
L 703 672 
Q 941 559 1184 500 
Q 1428 441 1663 441 
Q 2288 441 2617 861 
Q 2947 1281 2994 2138 
Q 2813 1869 2534 1725 
Q 2256 1581 1919 1581 
Q 1219 1581 811 2004 
Q 403 2428 403 3163 
Q 403 3881 828 4315 
Q 1253 4750 1959 4750 
Q 2769 4750 3195 4129 
Q 3622 3509 3622 2328 
Q 3622 1225 3098 567 
Q 2575 -91 1691 -91 
Q 1453 -91 1209 -44 
Q 966 3 703 97 
z
M 1959 2075 
Q 2384 2075 2632 2365 
Q 2881 2656 2881 3163 
Q 2881 3666 2632 3958 
Q 2384 4250 1959 4250 
Q 1534 4250 1286 3958 
Q 1038 3666 1038 3163 
Q 1038 2656 1286 2365 
Q 1534 2075 1959 2075 
z
" transform="scale(0.015625)"/>
       </defs>
       <use xlink:href="#DejaVuSans-30"/>
       <use xlink:href="#DejaVuSans-2e" x="63.623047"/>
       <use xlink:href="#DejaVuSans-39" x="95.410156"/>
      </g>
     </g>
    </g>
    <g id="xtick_7">
     <g id="line2d_35">
      <g>
       <use xlink:href="#m16fa95944a" x="264.7565" y="372.152" style="stroke: #000000; stroke-width: 0.8"/>
      </g>
     </g>
     <g id="text_16">
      <!-- 1.0 -->
      <g transform="translate(256.804937 386.750437) scale(0.1 -0.1)">
       <use xlink:href="#DejaVuSans-31"/>
       <use xlink:href="#DejaVuSans-2e" x="63.623047"/>
       <use xlink:href="#DejaVuSans-30" x="95.410156"/>
      </g>
     </g>
    </g>
   </g>
   <g id="matplotlib.axis_6">
    <g id="ytick_15">
     <g id="line2d_36">
      <g>
       <use xlink:href="#m829f8f9114" x="47.158" y="359.118" style="stroke: #000000; stroke-width: 0.8"/>
      </g>
     </g>
     <g id="text_17">
      <!-- 2 -->
      <g transform="translate(33.7955 362.917219) scale(0.1 -0.1)">
       <use xlink:href="#DejaVuSans-32"/>
      </g>
     </g>
    </g>
    <g id="ytick_16">
     <g id="line2d_37">
      <g>
       <use xlink:href="#m829f8f9114" x="47.158" y="333.05" style="stroke: #000000; stroke-width: 0.8"/>
      </g>
     </g>
     <g id="text_18">
      <!-- 3 -->
      <g transform="translate(33.7955 336.849219) scale(0.1 -0.1)">
       <use xlink:href="#DejaVuSans-33"/>
      </g>
     </g>
    </g>
    <g id="ytick_17">
     <g id="line2d_38">
      <g>
       <use xlink:href="#m829f8f9114" x="47.158" y="306.982" style="stroke: #000000; stroke-width: 0.8"/>
      </g>
     </g>
     <g id="text_19">
      <!-- 4 -->
      <g transform="translate(33.7955 310.781219) scale(0.1 -0.1)">
       <use xlink:href="#DejaVuSans-34"/>
      </g>
     </g>
    </g>
    <g id="ytick_18">
     <g id="line2d_39">
      <g>
       <use xlink:href="#m829f8f9114" x="47.158" y="280.914" style="stroke: #000000; stroke-width: 0.8"/>
      </g>
     </g>
     <g id="text_20">
      <!-- 5 -->
      <g transform="translate(33.7955 284.713219) scale(0.1 -0.1)">
       <use xlink:href="#DejaVuSans-35"/>
      </g>
     </g>
    </g>
    <g id="ytick_19">
     <g id="line2d_40">
      <g>
       <use xlink:href="#m829f8f9114" x="47.158" y="254.846" style="stroke: #000000; stroke-width: 0.8"/>
      </g>
     </g>
     <g id="text_21">
      <!-- 6 -->
      <g transform="translate(33.7955 258.645219) scale(0.1 -0.1)">
       <use xlink:href="#DejaVuSans-36"/>
      </g>
     </g>
    </g>
    <g id="ytick_20">
     <g id="line2d_41">
      <g>
       <use xlink:href="#m829f8f9114" x="47.158" y="228.778" style="stroke: #000000; stroke-width: 0.8"/>
      </g>
     </g>
     <g id="text_22">
      <!-- 7 -->
      <g transform="translate(33.7955 232.577219) scale(0.1 -0.1)">
       <use xlink:href="#DejaVuSans-37"/>
      </g>
     </g>
    </g>
    <g id="ytick_21">
     <g id="line2d_42">
      <g>
       <use xlink:href="#m829f8f9114" x="47.158" y="202.71" style="stroke: #000000; stroke-width: 0.8"/>
      </g>
     </g>
     <g id="text_23">
      <!-- 8 -->
      <g transform="translate(33.7955 206.509219) scale(0.1 -0.1)">
       <use xlink:href="#DejaVuSans-38"/>
      </g>
     </g>
    </g>
   </g>
   <g id="line2d_43">
    <path d="M 264.7565 316.155378 
L 256.387327 322.770017 
L 248.018154 325.445701 
L 239.648981 329.108203 
L 231.279808 331.064413 
L 222.910635 331.471561 
L 214.541462 330.276813 
L 206.172288 321.569377 
L 197.803115 318.795738 
L 189.433942 314.935681 
L 181.064769 310.029244 
L 172.695596 299.029581 
L 164.326423 292.908497 
L 155.95725 282.434554 
L 147.588077 276.191475 
L 139.218904 268.433372 
L 130.849731 261.303187 
L 122.480558 252.284341 
L 114.111385 243.400991 
L 105.742212 234.769195 
L 97.373038 226.54963 
L 89.003865 218.728716 
L 80.634692 210.55777 
L 72.265519 202.273063 
L 63.896346 192.51207 
L 55.527173 183.302575 
L 47.158 172.310819 
L 38.788827 163.455655 
L 30.419654 154.097191 
L 22.050481 144.724072 
L 13.681308 135.303266 
L 5.312135 125.510281 
L -1 116.827648 
" clip-path="url(#p235e7521e6)" style="fill: none; stroke: #1f77b4; stroke-width: 1.5; stroke-linecap: square"/>
   </g>
   <g id="line2d_44">
    <path d="M 264.7565 12.774781 
L 256.387327 27.720795 
L 248.018154 49.67244 
L 239.648981 62.919114 
L 231.279808 77.738914 
L 222.910635 92.730268 
L 214.541462 107.490013 
L 206.172288 134.229639 
L 197.803115 149.194058 
L 189.433942 164.541901 
L 181.064769 179.961944 
L 172.695596 207.761986 
L 164.326423 223.611679 
L 155.95725 253.429764 
L 147.588077 256.119229 
L 139.218904 263.919277 
L 130.849731 272.206962 
L 122.480558 289.914868 
L 114.111385 305.404257 
L 105.742212 319.084165 
L 97.373038 325.523455 
L 89.003865 321.69677 
L 80.634692 319.089655 
L 72.265519 316.626365 
L 63.896346 320.024007 
L 55.527173 322.507317 
L 47.158 317.022487 
L 38.788827 312.993544 
L 30.419654 308.810267 
L 22.050481 304.76067 
L 13.681308 300.588483 
L 5.312135 296.232164 
L -1 292.383139 
" clip-path="url(#p235e7521e6)" style="fill: none; stroke-dasharray: 5.55,2.4; stroke-dashoffset: 0; stroke: #ff7f0e; stroke-width: 1.5"/>
   </g>
   <g id="line2d_45">
    <path d="M 264.7565 272.523945 
L 256.387327 285.266008 
L 248.018154 288.728396 
L 239.648981 293.995725 
L 231.279808 293.252941 
L 222.910635 291.7152 
L 214.541462 290.209957 
L 206.172288 307.587981 
L 197.803115 306.14623 
L 189.433942 304.938714 
L 181.064769 303.711435 
L 172.695596 310.82523 
L 164.326423 309.648151 
L 155.95725 304.517396 
L 147.588077 316.77659 
L 139.218904 325.95885 
L 130.849731 328.223122 
L 122.480558 325.862204 
L 114.111385 322.990038 
L 105.742212 319.895344 
L 97.373038 318.609656 
L 89.003865 322.898746 
L 80.634692 320.558754 
L 72.265519 316.697682 
L 63.896346 307.958675 
L 55.527173 299.753582 
L 47.158 300.322066 
L 38.788827 292.086862 
L 30.419654 283.288165 
L 22.050481 283.744978 
L 13.681308 267.580486 
L 5.312135 254.718302 
L -1 257.783694 
" clip-path="url(#p235e7521e6)" style="fill: none; stroke-dasharray: 5.55,2.4; stroke-dashoffset: 0; stroke: #2ca02c; stroke-width: 1.5"/>
   </g>
   <g id="line2d_46">
    <path d="M 264.7565 194.819641 
L 256.387327 192.226881 
L 248.018154 197.49997 
L 239.648981 201.904833 
L 231.279808 210.168413 
L 222.910635 218.443129 
L 214.541462 226.68421 
L 206.172288 240.925819 
L 197.803115 249.044227 
L 189.433942 256.957099 
L 181.064769 263.897568 
L 172.695596 275.63413 
L 164.326423 279.280433 
L 155.95725 285.825962 
L 147.588077 287.802344 
L 139.218904 290.692285 
L 130.849731 293.302661 
L 122.480558 294.32687 
L 114.111385 294.858845 
L 105.742212 295.519674 
L 97.373038 294.053614 
L 89.003865 296.645815 
L 80.634692 295.612849 
L 72.265519 294.925478 
L 63.896346 293.970423 
L 55.527173 289.031815 
L 47.158 300.086619 
L 38.788827 290.425976 
L 30.419654 281.659653 
L 22.050481 299.083549 
L 13.681308 289.624301 
L 5.312135 282.122721 
L -1 283.258642 
" clip-path="url(#p235e7521e6)" style="fill: none; stroke-dasharray: 5.55,2.4; stroke-dashoffset: 0; stroke: #d62728; stroke-width: 1.5"/>
   </g>
   <g id="line2d_47">
    <path d="M 264.7565 357.738288 
L 256.387327 358.091798 
L 248.018154 358.129898 
L 239.648981 357.028386 
L 231.279808 354.578341 
L 222.910635 352.130489 
L 214.541462 349.211316 
L 206.172288 356.848334 
L 197.803115 354.234989 
L 189.433942 351.094381 
L 181.064769 347.465257 
L 172.695596 354.563312 
L 164.326423 350.844824 
L 155.95725 353.025231 
L 147.588077 354.342036 
L 139.218904 356.29875 
L 130.849731 356.129842 
L 122.480558 355.803839 
L 114.111385 355.501647 
L 105.742212 355.314006 
L 97.373038 354.200439 
L 89.003865 355.516341 
L 80.634692 355.265435 
L 72.265519 353.193896 
L 63.896346 353.718723 
L 55.527173 352.051213 
L 47.158 353.932387 
L 38.788827 354.984599 
L 30.419654 354.45506 
L 22.050481 347.062568 
L 13.681308 347.958358 
L 5.312135 346.484155 
L -1 338.269606 
" clip-path="url(#p235e7521e6)" style="fill: none; stroke-dasharray: 1.5,2.475; stroke-dashoffset: 0; stroke: #9467bd; stroke-width: 1.5"/>
   </g>
   <g id="line2d_48">
    <path d="M 264.7565 250.509131 
L 256.387327 254.226038 
L 248.018154 258.522 
L 239.648981 262.879162 
L 231.279808 267.217864 
L 222.910635 271.541835 
L 214.541462 275.903287 
L 206.172288 278.768275 
L 197.803115 282.805468 
L 189.433942 286.392594 
L 181.064769 289.092643 
L 172.695596 288.875612 
L 164.326423 291.743597 
L 155.95725 293.174297 
L 147.588077 292.923136 
L 139.218904 291.33749 
L 130.849731 289.60083 
L 122.480558 286.781039 
L 114.111385 284.243139 
L 105.742212 281.694046 
L 97.373038 281.729536 
L 89.003865 279.436454 
L 80.634692 279.051467 
L 72.265519 279.210106 
L 63.896346 280.092608 
L 55.527173 278.111315 
L 47.158 270.343985 
L 38.788827 269.148368 
L 30.419654 267.771245 
L 22.050481 254.732787 
L 13.681308 253.672737 
L 5.312135 252.197819 
L -1 249.998 
" clip-path="url(#p235e7521e6)" style="fill: none; stroke-dasharray: 1.5,2.475; stroke-dashoffset: 0; stroke: #8c564b; stroke-width: 1.5"/>
   </g>
   <g id="line2d_49">
    <path d="M 264.7565 257.147986 
L 256.387327 263.299078 
L 248.018154 268.645929 
L 239.648981 273.37824 
L 231.279808 277.352444 
L 222.910635 280.539832 
L 214.541462 282.895873 
L 206.172288 285.979054 
L 197.803115 287.577702 
L 189.433942 288.598766 
L 181.064769 288.862431 
L 172.695596 289.43789 
L 164.326423 288.791801 
L 155.95725 288.063599 
L 147.588077 286.682763 
L 139.218904 284.942513 
L 130.849731 282.787021 
L 122.480558 280.152501 
L 114.111385 277.252559 
L 105.742212 274.261708 
L 97.373038 270.725422 
L 89.003865 266.996475 
L 80.634692 262.384141 
L 72.265519 257.57383 
L 63.896346 252.63043 
L 55.527173 246.887673 
L 47.158 241.54392 
L 38.788827 234.932578 
L 30.419654 227.97505 
L 22.050481 222.961399 
L 13.681308 215.454938 
L 5.312135 208.007456 
L -1 202.838309 
" clip-path="url(#p235e7521e6)" style="fill: none; stroke: #000000; stroke-width: 1.5; stroke-linecap: square"/>
   </g>
   <g id="patch_13">
    <path d="M 47.158 372.152 
L 47.158 189.676 
" style="fill: none; stroke: #000000; stroke-width: 0.8; stroke-linejoin: miter; stroke-linecap: square"/>
   </g>
   <g id="patch_14">
    <path d="M 264.7565 372.152 
L 264.7565 189.676 
" style="fill: none; stroke: #000000; stroke-width: 0.8; stroke-linejoin: miter; stroke-linecap: square"/>
   </g>
   <g id="patch_15">
    <path d="M 47.158 372.152 
L 264.7565 372.152 
" style="fill: none; stroke: #000000; stroke-width: 0.8; stroke-linejoin: miter; stroke-linecap: square"/>
   </g>
   <g id="patch_16">
    <path d="M 47.158 189.676 
L 264.7565 189.676 
" style="fill: none; stroke: #000000; stroke-width: 0.8; stroke-linejoin: miter; stroke-linecap: square"/>
   </g>
   <g id="text_24">
    <!-- XYG6 -->
    <g transform="translate(139.716 202.306625) scale(0.12 -0.12)">
     <use xlink:href="#DejaVuSans-58"/>
     <use xlink:href="#DejaVuSans-59" x="68.505859"/>
     <use xlink:href="#DejaVuSans-47" x="129.589844"/>
     <use xlink:href="#DejaVuSans-36" x="207.080078"/>
    </g>
    <!-- Model -->
    <g transform="translate(137.941313 215.744) scale(0.12 -0.12)">
     <use xlink:href="#DejaVuSans-4d"/>
     <use xlink:href="#DejaVuSans-6f" x="86.279297"/>
     <use xlink:href="#DejaVuSans-64" x="147.460938"/>
     <use xlink:href="#DejaVuSans-65" x="210.9375"/>
     <use xlink:href="#DejaVuSans-6c" x="272.460938"/>
    </g>
   </g>
  </g>
  <g id="axes_4">
   <g id="patch_17">
    <path d="M 264.7565 372.152 
L 482.355 372.152 
L 482.355 189.676 
L 264.7565 189.676 
L 264.7565 372.152 
z
" style="fill: none"/>
   </g>
   <g id="matplotlib.axis_7">
    <g id="xtick_8">
     <g id="line2d_50">
      <g>
       <use xlink:href="#m16fa95944a" x="281.494846" y="372.152" style="stroke: #000000; stroke-width: 0.8"/>
      </g>
     </g>
     <g id="text_25">
      <!-- 0.4 -->
      <g transform="translate(273.543284 386.750437) scale(0.1 -0.1)">
       <use xlink:href="#DejaVuSans-30"/>
       <use xlink:href="#DejaVuSans-2e" x="63.623047"/>
       <use xlink:href="#DejaVuSans-34" x="95.410156"/>
      </g>
     </g>
    </g>
    <g id="xtick_9">
     <g id="line2d_51">
      <g>
       <use xlink:href="#m16fa95944a" x="314.971538" y="372.152" style="stroke: #000000; stroke-width: 0.8"/>
      </g>
     </g>
     <g id="text_26">
      <!-- 0.5 -->
      <g transform="translate(307.019976 386.750437) scale(0.1 -0.1)">
       <use xlink:href="#DejaVuSans-30"/>
       <use xlink:href="#DejaVuSans-2e" x="63.623047"/>
       <use xlink:href="#DejaVuSans-35" x="95.410156"/>
      </g>
     </g>
    </g>
    <g id="xtick_10">
     <g id="line2d_52">
      <g>
       <use xlink:href="#m16fa95944a" x="348.448231" y="372.152" style="stroke: #000000; stroke-width: 0.8"/>
      </g>
     </g>
     <g id="text_27">
      <!-- 0.6 -->
      <g transform="translate(340.496668 386.750437) scale(0.1 -0.1)">
       <use xlink:href="#DejaVuSans-30"/>
       <use xlink:href="#DejaVuSans-2e" x="63.623047"/>
       <use xlink:href="#DejaVuSans-36" x="95.410156"/>
      </g>
     </g>
    </g>
    <g id="xtick_11">
     <g id="line2d_53">
      <g>
       <use xlink:href="#m16fa95944a" x="381.924923" y="372.152" style="stroke: #000000; stroke-width: 0.8"/>
      </g>
     </g>
     <g id="text_28">
      <!-- 0.7 -->
      <g transform="translate(373.973361 386.750437) scale(0.1 -0.1)">
       <use xlink:href="#DejaVuSans-30"/>
       <use xlink:href="#DejaVuSans-2e" x="63.623047"/>
       <use xlink:href="#DejaVuSans-37" x="95.410156"/>
      </g>
     </g>
    </g>
    <g id="xtick_12">
     <g id="line2d_54">
      <g>
       <use xlink:href="#m16fa95944a" x="415.401615" y="372.152" style="stroke: #000000; stroke-width: 0.8"/>
      </g>
     </g>
     <g id="text_29">
      <!-- 0.8 -->
      <g transform="translate(407.450053 386.750437) scale(0.1 -0.1)">
       <use xlink:href="#DejaVuSans-30"/>
       <use xlink:href="#DejaVuSans-2e" x="63.623047"/>
       <use xlink:href="#DejaVuSans-38" x="95.410156"/>
      </g>
     </g>
    </g>
    <g id="xtick_13">
     <g id="line2d_55">
      <g>
       <use xlink:href="#m16fa95944a" x="448.878308" y="372.152" style="stroke: #000000; stroke-width: 0.8"/>
      </g>
     </g>
     <g id="text_30">
      <!-- 0.9 -->
      <g transform="translate(440.926745 386.750437) scale(0.1 -0.1)">
       <use xlink:href="#DejaVuSans-30"/>
       <use xlink:href="#DejaVuSans-2e" x="63.623047"/>
       <use xlink:href="#DejaVuSans-39" x="95.410156"/>
      </g>
     </g>
    </g>
    <g id="xtick_14">
     <g id="line2d_56">
      <g>
       <use xlink:href="#m16fa95944a" x="482.355" y="372.152" style="stroke: #000000; stroke-width: 0.8"/>
      </g>
     </g>
     <g id="text_31">
      <!-- 1.0 -->
      <g transform="translate(474.403437 386.750437) scale(0.1 -0.1)">
       <use xlink:href="#DejaVuSans-31"/>
       <use xlink:href="#DejaVuSans-2e" x="63.623047"/>
       <use xlink:href="#DejaVuSans-30" x="95.410156"/>
      </g>
     </g>
    </g>
   </g>
   <g id="matplotlib.axis_8">
    <g id="ytick_22">
     <g id="line2d_57">
      <g>
       <use xlink:href="#m829f8f9114" x="264.7565" y="359.118" style="stroke: #000000; stroke-width: 0.8"/>
      </g>
     </g>
    </g>
    <g id="ytick_23">
     <g id="line2d_58">
      <g>
       <use xlink:href="#m829f8f9114" x="264.7565" y="333.05" style="stroke: #000000; stroke-width: 0.8"/>
      </g>
     </g>
    </g>
    <g id="ytick_24">
     <g id="line2d_59">
      <g>
       <use xlink:href="#m829f8f9114" x="264.7565" y="306.982" style="stroke: #000000; stroke-width: 0.8"/>
      </g>
     </g>
    </g>
    <g id="ytick_25">
     <g id="line2d_60">
      <g>
       <use xlink:href="#m829f8f9114" x="264.7565" y="280.914" style="stroke: #000000; stroke-width: 0.8"/>
      </g>
     </g>
    </g>
    <g id="ytick_26">
     <g id="line2d_61">
      <g>
       <use xlink:href="#m829f8f9114" x="264.7565" y="254.846" style="stroke: #000000; stroke-width: 0.8"/>
      </g>
     </g>
    </g>
    <g id="ytick_27">
     <g id="line2d_62">
      <g>
       <use xlink:href="#m829f8f9114" x="264.7565" y="228.778" style="stroke: #000000; stroke-width: 0.8"/>
      </g>
     </g>
    </g>
    <g id="ytick_28">
     <g id="line2d_63">
      <g>
       <use xlink:href="#m829f8f9114" x="264.7565" y="202.71" style="stroke: #000000; stroke-width: 0.8"/>
      </g>
     </g>
    </g>
   </g>
   <g id="line2d_64">
    <path d="M 482.355 324.25023 
L 473.985827 328.809424 
L 465.616654 335.088459 
L 457.247481 338.399033 
L 448.878308 341.434775 
L 440.509135 342.348393 
L 432.139962 340.277057 
L 423.770788 335.854515 
L 415.401615 329.024914 
L 407.032442 323.229789 
L 398.663269 315.647298 
L 390.294096 307.1012 
L 381.924923 298.776012 
L 373.55575 291.372295 
L 365.186577 286.598316 
L 356.817404 277.459589 
L 348.448231 268.995675 
L 340.079058 260.426191 
L 331.709885 249.640178 
L 323.340712 246.981132 
L 314.971538 237.813899 
L 306.602365 229.406118 
L 298.233192 221.021725 
L 289.864019 212.96985 
L 281.494846 203.781946 
L 273.125673 193.402033 
L 264.7565 182.909805 
L 256.387327 171.544228 
L 248.018154 162.037361 
L 239.648981 151.92249 
L 231.279808 141.191836 
L 222.910635 130.213194 
L 214.541462 119.103187 
L 206.172288 109.002402 
L 197.803115 97.801459 
L 189.433942 87.227671 
L 181.064769 75.852481 
L 172.695596 66.194168 
L 164.326423 56.448237 
L 155.95725 46.650092 
L 147.588077 34.822625 
" clip-path="url(#pc3bddb4abd)" style="fill: none; stroke: #1f77b4; stroke-width: 1.5; stroke-linecap: square"/>
   </g>
   <g id="line2d_65">
    <path d="M 482.355 33.356345 
L 473.985827 50.743722 
L 465.616654 61.295513 
L 457.247481 76.40957 
L 448.878308 88.575974 
L 440.509135 100.980731 
L 432.139962 119.002811 
L 423.770788 138.333557 
L 415.401615 143.285682 
L 407.032442 161.869316 
L 398.663269 195.363345 
L 390.294096 218.676651 
L 381.924923 238.599741 
L 373.55575 255.66162 
L 365.186577 263.468149 
L 356.817404 284.703755 
L 348.448231 304.199702 
L 340.079058 323.414665 
L 331.709885 348.849902 
L 323.340712 338.755377 
L 314.971538 358.871267 
L 306.602365 363.574745 
L 298.233192 364.440778 
L 289.864019 364.805327 
L 281.494846 362.851844 
L 273.125673 353.398005 
L 264.7565 345.472432 
L 256.387327 333.162071 
L 248.018154 332.243577 
L 239.648981 332.147102 
L 231.279808 328.396131 
L 222.910635 311.958033 
L 214.541462 311.320072 
L 206.172288 302.207462 
L 197.803115 296.86554 
L 189.433942 288.772073 
L 181.064769 272.367528 
L 172.695596 272.034101 
L 164.326423 270.357971 
L 155.95725 260.501145 
L 147.588077 249.92148 
" clip-path="url(#pc3bddb4abd)" style="fill: none; stroke-dasharray: 5.55,2.4; stroke-dashoffset: 0; stroke: #ff7f0e; stroke-width: 1.5"/>
   </g>
   <g id="line2d_66">
    <path d="M 482.355 284.960095 
L 473.985827 289.946266 
L 465.616654 299.899081 
L 457.247481 310.81481 
L 448.878308 321.09815 
L 440.509135 328.939321 
L 432.139962 332.44128 
L 423.770788 332.299683 
L 415.401615 330.191779 
L 407.032442 336.275099 
L 398.663269 333.08301 
L 390.294096 325.793598 
L 381.924923 327.365285 
L 373.55575 327.430536 
L 365.186577 333.668802 
L 356.817404 338.203136 
L 348.448231 328.957927 
L 340.079058 322.034409 
L 331.709885 321.901889 
L 323.340712 328.468106 
L 314.971538 319.662901 
L 306.602365 314.92463 
L 298.233192 312.102601 
L 289.864019 310.411046 
L 281.494846 307.138613 
L 273.125673 303.123931 
L 264.7565 298.532443 
L 256.387327 291.181216 
L 248.018154 277.920933 
L 239.648981 266.982098 
L 231.279808 254.944913 
L 222.910635 240.947225 
L 214.541462 236.623164 
L 206.172288 218.917994 
L 197.803115 211.37592 
L 189.433942 197.858553 
L 181.064769 196.231643 
L 172.695596 175.642518 
L 164.326423 157.303883 
L 155.95725 139.28563 
L 147.588077 135.99657 
" clip-path="url(#pc3bddb4abd)" style="fill: none; stroke-dasharray: 5.55,2.4; stroke-dashoffset: 0; stroke: #2ca02c; stroke-width: 1.5"/>
   </g>
   <g id="line2d_67">
    <path d="M 482.355 164.64355 
L 473.985827 169.982922 
L 465.616654 169.734208 
L 457.247481 171.623876 
L 448.878308 172.942741 
L 440.509135 184.177447 
L 432.139962 190.542715 
L 423.770788 200.214282 
L 415.401615 234.686366 
L 407.032442 240.390302 
L 398.663269 246.778545 
L 390.294096 261.256851 
L 381.924923 270.026615 
L 373.55575 278.006673 
L 365.186577 278.207614 
L 356.817404 280.764791 
L 348.448231 287.663879 
L 340.079058 292.496774 
L 331.709885 295.654049 
L 323.340712 285.281409 
L 314.971538 290.767712 
L 306.602365 291.785252 
L 298.233192 288.874944 
L 289.864019 282.74615 
L 281.494846 276.81844 
L 273.125673 278.089552 
L 264.7565 277.344877 
L 256.387327 280.136724 
L 248.018154 273.04193 
L 239.648981 268.13758 
L 231.279808 263.925407 
L 222.910635 263.94202 
L 214.541462 266.350837 
L 206.172288 261.202857 
L 197.803115 263.616878 
L 189.433942 262.393036 
L 181.064769 275.603567 
L 172.695596 269.457099 
L 164.326423 266.71499 
L 155.95725 259.877521 
L 147.588077 247.89427 
" clip-path="url(#pc3bddb4abd)" style="fill: none; stroke-dasharray: 5.55,2.4; stroke-dashoffset: 0; stroke: #d62728; stroke-width: 1.5"/>
   </g>
   <g id="line2d_68">
    <path d="M 482.355 348.523226 
L 473.985827 349.291832 
L 465.616654 350.076613 
L 457.247481 351.05536 
L 448.878308 351.410544 
L 440.509135 349.898526 
L 432.139962 350.24275 
L 423.770788 350.923872 
L 415.401615 345.30586 
L 407.032442 347.206921 
L 398.663269 346.783701 
L 390.294096 346.87687 
L 381.924923 348.004823 
L 373.55575 346.7617 
L 365.186577 342.957542 
L 356.817404 343.621037 
L 348.448231 340.692684 
L 340.079058 337.947054 
L 331.709885 341.443138 
L 323.340712 332.423743 
L 314.971538 328.872656 
L 306.602365 324.53464 
L 298.233192 321.579119 
L 289.864019 315.090504 
L 281.494846 312.904546 
L 273.125673 316.060109 
L 264.7565 319.051804 
L 256.387327 327.908675 
L 248.018154 323.315226 
L 239.648981 313.207923 
L 231.279808 309.925979 
L 222.910635 328.649376 
L 214.541462 312.921809 
L 206.172288 322.29918 
L 197.803115 316.997687 
L 189.433942 320.75579 
L 181.064769 326.281698 
L 172.695596 321.471139 
L 164.326423 315.806963 
L 155.95725 318.331936 
L 147.588077 322.310115 
" clip-path="url(#pc3bddb4abd)" style="fill: none; stroke-dasharray: 1.5,2.475; stroke-dashoffset: 0; stroke: #9467bd; stroke-width: 1.5"/>
   </g>
   <g id="line2d_69">
    <path d="M 482.355 239.492322 
L 473.985827 244.007939 
L 465.616654 247.29198 
L 457.247481 250.94914 
L 448.878308 254.652254 
L 440.509135 256.759541 
L 432.139962 261.765195 
L 423.770788 267.364772 
L 415.401615 277.05813 
L 407.032442 280.432806 
L 398.663269 281.47058 
L 390.294096 285.475995 
L 381.924923 288.016663 
L 373.55575 290.055002 
L 365.186577 290.512393 
L 356.817404 291.008394 
L 348.448231 288.748973 
L 340.079058 286.637204 
L 331.709885 280.661002 
L 323.340712 278.518571 
L 314.971538 275.699559 
L 306.602365 272.839982 
L 298.233192 270.400124 
L 289.864019 267.14506 
L 281.494846 264.97144 
L 273.125673 263.797708 
L 264.7565 263.350404 
L 256.387327 262.899462 
L 248.018154 260.161385 
L 239.648981 256.242974 
L 231.279808 252.694987 
L 222.910635 251.440058 
L 214.541462 245.420127 
L 206.172288 243.036425 
L 197.803115 237.932293 
L 189.433942 234.278488 
L 181.064769 227.721159 
L 172.695596 223.058519 
L 164.326423 216.505543 
L 155.95725 214.71384 
L 147.588077 219.669178 
" clip-path="url(#pc3bddb4abd)" style="fill: none; stroke-dasharray: 1.5,2.475; stroke-dashoffset: 0; stroke: #8c564b; stroke-width: 1.5"/>
   </g>
   <g id="line2d_70">
    <path d="M 482.355 258.817842 
L 473.985827 264.735721 
L 465.616654 270.23912 
L 457.247481 275.25906 
L 448.878308 279.629904 
L 440.509135 283.664383 
L 432.139962 286.504996 
L 423.770788 288.577565 
L 415.401615 290.575391 
L 407.032442 291.751951 
L 398.663269 292.733536 
L 390.294096 293.071353 
L 381.924923 293.039257 
L 373.55575 292.640876 
L 365.186577 291.559878 
L 356.817404 290.503769 
L 348.448231 288.363479 
L 340.079058 286.108926 
L 331.709885 283.914682 
L 323.340712 279.728934 
L 314.971538 277.074141 
L 306.602365 272.655676 
L 298.233192 267.630867 
L 289.864019 262.029236 
L 281.494846 255.975794 
L 273.125673 249.801931 
L 264.7565 243.543571 
L 256.387327 237.012212 
L 248.018154 229.730453 
L 239.648981 222.121316 
L 231.279808 214.363736 
L 222.910635 207.350875 
L 214.541462 199.904052 
L 206.172288 192.392136 
L 197.803115 185.024354 
L 189.433942 177.611661 
L 181.064769 171.293329 
L 172.695596 163.288259 
L 164.326423 155.373442 
L 155.95725 147.21255 
L 147.588077 139.477586 
" clip-path="url(#pc3bddb4abd)" style="fill: none; stroke: #000000; stroke-width: 1.5; stroke-linecap: square"/>
   </g>
   <g id="patch_18">
    <path d="M 264.7565 372.152 
L 264.7565 189.676 
" style="fill: none; stroke: #000000; stroke-width: 0.8; stroke-linejoin: miter; stroke-linecap: square"/>
   </g>
   <g id="patch_19">
    <path d="M 482.355 372.152 
L 482.355 189.676 
" style="fill: none; stroke: #000000; stroke-width: 0.8; stroke-linejoin: miter; stroke-linecap: square"/>
   </g>
   <g id="patch_20">
    <path d="M 264.7565 372.152 
L 482.355 372.152 
" style="fill: none; stroke: #000000; stroke-width: 0.8; stroke-linejoin: miter; stroke-linecap: square"/>
   </g>
   <g id="patch_21">
    <path d="M 264.7565 189.676 
L 482.355 189.676 
" style="fill: none; stroke: #000000; stroke-width: 0.8; stroke-linejoin: miter; stroke-linecap: square"/>
   </g>
   <g id="text_32">
    <!-- XYG7 -->
    <g transform="translate(357.3145 202.306625) scale(0.12 -0.12)">
     <use xlink:href="#DejaVuSans-58"/>
     <use xlink:href="#DejaVuSans-59" x="68.505859"/>
     <use xlink:href="#DejaVuSans-47" x="129.589844"/>
     <use xlink:href="#DejaVuSans-37" x="207.080078"/>
    </g>
    <!-- Model -->
    <g transform="translate(355.539813 215.744) scale(0.12 -0.12)">
     <use xlink:href="#DejaVuSans-4d"/>
     <use xlink:href="#DejaVuSans-6f" x="86.279297"/>
     <use xlink:href="#DejaVuSans-64" x="147.460938"/>
     <use xlink:href="#DejaVuSans-65" x="210.9375"/>
     <use xlink:href="#DejaVuSans-6c" x="272.460938"/>
    </g>
   </g>
  </g>
  <g id="text_33">
   <!-- $E_\mathrm{x}^\mathrm{exact}$ coefficient $c_\mathrm{x}$ -->
   <g transform="translate(192 420.72) scale(0.12 -0.12)">
    <defs>
     <path id="DejaVuSans-Oblique-45" d="M 1081 4666 
L 4031 4666 
L 3928 4134 
L 1606 4134 
L 1338 2753 
L 3566 2753 
L 3463 2222 
L 1234 2222 
L 909 531 
L 3284 531 
L 3181 0 
L 172 0 
L 1081 4666 
z
" transform="scale(0.015625)"/>
     <path id="DejaVuSans-78" d="M 3513 3500 
L 2247 1797 
L 3578 0 
L 2900 0 
L 1881 1375 
L 863 0 
L 184 0 
L 1544 1831 
L 300 3500 
L 978 3500 
L 1906 2253 
L 2834 3500 
L 3513 3500 
z
" transform="scale(0.015625)"/>
     <path id="DejaVuSans-61" d="M 2194 1759 
Q 1497 1759 1228 1600 
Q 959 1441 959 1056 
Q 959 750 1161 570 
Q 1363 391 1709 391 
Q 2188 391 2477 730 
Q 2766 1069 2766 1631 
L 2766 1759 
L 2194 1759 
z
M 3341 1997 
L 3341 0 
L 2766 0 
L 2766 531 
Q 2569 213 2275 61 
Q 1981 -91 1556 -91 
Q 1019 -91 701 211 
Q 384 513 384 1019 
Q 384 1609 779 1909 
Q 1175 2209 1959 2209 
L 2766 2209 
L 2766 2266 
Q 2766 2663 2505 2880 
Q 2244 3097 1772 3097 
Q 1472 3097 1187 3025 
Q 903 2953 641 2809 
L 641 3341 
Q 956 3463 1253 3523 
Q 1550 3584 1831 3584 
Q 2591 3584 2966 3190 
Q 3341 2797 3341 1997 
z
" transform="scale(0.015625)"/>
     <path id="DejaVuSans-74" d="M 1172 4494 
L 1172 3500 
L 2356 3500 
L 2356 3053 
L 1172 3053 
L 1172 1153 
Q 1172 725 1289 603 
Q 1406 481 1766 481 
L 2356 481 
L 2356 0 
L 1766 0 
Q 1100 0 847 248 
Q 594 497 594 1153 
L 594 3053 
L 172 3053 
L 172 3500 
L 594 3500 
L 594 4494 
L 1172 4494 
z
" transform="scale(0.015625)"/>
     <path id="DejaVuSans-20" transform="scale(0.015625)"/>
     <path id="DejaVuSans-66" d="M 2375 4863 
L 2375 4384 
L 1825 4384 
Q 1516 4384 1395 4259 
Q 1275 4134 1275 3809 
L 1275 3500 
L 2222 3500 
L 2222 3053 
L 1275 3053 
L 1275 0 
L 697 0 
L 697 3053 
L 147 3053 
L 147 3500 
L 697 3500 
L 697 3744 
Q 697 4328 969 4595 
Q 1241 4863 1831 4863 
L 2375 4863 
z
" transform="scale(0.015625)"/>
     <path id="DejaVuSans-69" d="M 603 3500 
L 1178 3500 
L 1178 0 
L 603 0 
L 603 3500 
z
M 603 4863 
L 1178 4863 
L 1178 4134 
L 603 4134 
L 603 4863 
z
" transform="scale(0.015625)"/>
     <path id="DejaVuSans-6e" d="M 3513 2113 
L 3513 0 
L 2938 0 
L 2938 2094 
Q 2938 2591 2744 2837 
Q 2550 3084 2163 3084 
Q 1697 3084 1428 2787 
Q 1159 2491 1159 1978 
L 1159 0 
L 581 0 
L 581 3500 
L 1159 3500 
L 1159 2956 
Q 1366 3272 1645 3428 
Q 1925 3584 2291 3584 
Q 2894 3584 3203 3211 
Q 3513 2838 3513 2113 
z
" transform="scale(0.015625)"/>
     <path id="DejaVuSans-Oblique-63" d="M 3431 3366 
L 3316 2797 
Q 3109 2947 2876 3022 
Q 2644 3097 2394 3097 
Q 2119 3097 1870 3000 
Q 1622 2903 1453 2725 
Q 1184 2453 1037 2087 
Q 891 1722 891 1331 
Q 891 859 1127 628 
Q 1363 397 1844 397 
Q 2081 397 2348 469 
Q 2616 541 2906 684 
L 2797 116 
Q 2547 13 2283 -39 
Q 2019 -91 1741 -91 
Q 1044 -91 669 257 
Q 294 606 294 1253 
Q 294 1797 489 2255 
Q 684 2713 1069 3078 
Q 1331 3328 1684 3456 
Q 2038 3584 2456 3584 
Q 2700 3584 2940 3529 
Q 3181 3475 3431 3366 
z
" transform="scale(0.015625)"/>
    </defs>
    <use xlink:href="#DejaVuSans-Oblique-45" transform="translate(0 0.565625)"/>
    <use xlink:href="#DejaVuSans-65" transform="translate(70.200365 38.846875) scale(0.7)"/>
    <use xlink:href="#DejaVuSans-78" transform="translate(113.266771 38.846875) scale(0.7)"/>
    <use xlink:href="#DejaVuSans-61" transform="translate(154.692552 38.846875) scale(0.7)"/>
    <use xlink:href="#DejaVuSans-63" transform="translate(197.58806 38.846875) scale(0.7)"/>
    <use xlink:href="#DejaVuSans-74" transform="translate(236.074388 38.846875) scale(0.7)"/>
    <use xlink:href="#DejaVuSans-78" transform="translate(63.183594 -26.778125) scale(0.7)"/>
    <use xlink:href="#DejaVuSans-20" transform="translate(266.255052 0.565625)"/>
    <use xlink:href="#DejaVuSans-63" transform="translate(298.042161 0.565625)"/>
    <use xlink:href="#DejaVuSans-6f" transform="translate(353.02263 0.565625)"/>
    <use xlink:href="#DejaVuSans-65" transform="translate(414.204271 0.565625)"/>
    <use xlink:href="#DejaVuSans-66" transform="translate(475.727708 0.565625)"/>
    <use xlink:href="#DejaVuSans-66" transform="translate(510.932786 0.565625)"/>
    <use xlink:href="#DejaVuSans-69" transform="translate(546.137865 0.565625)"/>
    <use xlink:href="#DejaVuSans-63" transform="translate(573.921068 0.565625)"/>
    <use xlink:href="#DejaVuSans-69" transform="translate(628.901536 0.565625)"/>
    <use xlink:href="#DejaVuSans-65" transform="translate(656.68474 0.565625)"/>
    <use xlink:href="#DejaVuSans-6e" transform="translate(718.208177 0.565625)"/>
    <use xlink:href="#DejaVuSans-74" transform="translate(781.587083 0.565625)"/>
    <use xlink:href="#DejaVuSans-20" transform="translate(820.796068 0.565625)"/>
    <use xlink:href="#DejaVuSans-Oblique-63" transform="translate(852.583177 0.565625)"/>
    <use xlink:href="#DejaVuSans-78" transform="translate(907.563646 -15.840625) scale(0.7)"/>
   </g>
  </g>
  <g id="text_34">
   <!-- WTMAD-2 or MUEPB / kcal mol${}^{-1}$ -->
   <g transform="translate(16.704375 310.44) rotate(-90) scale(0.12 -0.12)">
    <defs>
     <path id="DejaVuSans-57" d="M 213 4666 
L 850 4666 
L 1831 722 
L 2809 4666 
L 3519 4666 
L 4500 722 
L 5478 4666 
L 6119 4666 
L 4947 0 
L 4153 0 
L 3169 4050 
L 2175 0 
L 1381 0 
L 213 4666 
z
" transform="scale(0.015625)"/>
     <path id="DejaVuSans-54" d="M -19 4666 
L 3928 4666 
L 3928 4134 
L 2272 4134 
L 2272 0 
L 1638 0 
L 1638 4134 
L -19 4134 
L -19 4666 
z
" transform="scale(0.015625)"/>
     <path id="DejaVuSans-44" d="M 1259 4147 
L 1259 519 
L 2022 519 
Q 2988 519 3436 956 
Q 3884 1394 3884 2338 
Q 3884 3275 3436 3711 
Q 2988 4147 2022 4147 
L 1259 4147 
z
M 628 4666 
L 1925 4666 
Q 3281 4666 3915 4102 
Q 4550 3538 4550 2338 
Q 4550 1131 3912 565 
Q 3275 0 1925 0 
L 628 0 
L 628 4666 
z
" transform="scale(0.015625)"/>
     <path id="DejaVuSans-2d" d="M 313 2009 
L 1997 2009 
L 1997 1497 
L 313 1497 
L 313 2009 
z
" transform="scale(0.015625)"/>
     <path id="DejaVuSans-55" d="M 556 4666 
L 1191 4666 
L 1191 1831 
Q 1191 1081 1462 751 
Q 1734 422 2344 422 
Q 2950 422 3222 751 
Q 3494 1081 3494 1831 
L 3494 4666 
L 4128 4666 
L 4128 1753 
Q 4128 841 3676 375 
Q 3225 -91 2344 -91 
Q 1459 -91 1007 375 
Q 556 841 556 1753 
L 556 4666 
z
" transform="scale(0.015625)"/>
     <path id="DejaVuSans-42" d="M 1259 2228 
L 1259 519 
L 2272 519 
Q 2781 519 3026 730 
Q 3272 941 3272 1375 
Q 3272 1813 3026 2020 
Q 2781 2228 2272 2228 
L 1259 2228 
z
M 1259 4147 
L 1259 2741 
L 2194 2741 
Q 2656 2741 2882 2914 
Q 3109 3088 3109 3444 
Q 3109 3797 2882 3972 
Q 2656 4147 2194 4147 
L 1259 4147 
z
M 628 4666 
L 2241 4666 
Q 2963 4666 3353 4366 
Q 3744 4066 3744 3513 
Q 3744 3084 3544 2831 
Q 3344 2578 2956 2516 
Q 3422 2416 3680 2098 
Q 3938 1781 3938 1306 
Q 3938 681 3513 340 
Q 3088 0 2303 0 
L 628 0 
L 628 4666 
z
" transform="scale(0.015625)"/>
     <path id="DejaVuSans-6b" d="M 581 4863 
L 1159 4863 
L 1159 1991 
L 2875 3500 
L 3609 3500 
L 1753 1863 
L 3688 0 
L 2938 0 
L 1159 1709 
L 1159 0 
L 581 0 
L 581 4863 
z
" transform="scale(0.015625)"/>
     <path id="DejaVuSans-6d" d="M 3328 2828 
Q 3544 3216 3844 3400 
Q 4144 3584 4550 3584 
Q 5097 3584 5394 3201 
Q 5691 2819 5691 2113 
L 5691 0 
L 5113 0 
L 5113 2094 
Q 5113 2597 4934 2840 
Q 4756 3084 4391 3084 
Q 3944 3084 3684 2787 
Q 3425 2491 3425 1978 
L 3425 0 
L 2847 0 
L 2847 2094 
Q 2847 2600 2669 2842 
Q 2491 3084 2119 3084 
Q 1678 3084 1418 2786 
Q 1159 2488 1159 1978 
L 1159 0 
L 581 0 
L 581 3500 
L 1159 3500 
L 1159 2956 
Q 1356 3278 1631 3431 
Q 1906 3584 2284 3584 
Q 2666 3584 2933 3390 
Q 3200 3197 3328 2828 
z
" transform="scale(0.015625)"/>
     <path id="DejaVuSans-2212" d="M 678 2272 
L 4684 2272 
L 4684 1741 
L 678 1741 
L 678 2272 
z
" transform="scale(0.015625)"/>
    </defs>
    <use xlink:href="#DejaVuSans-57" transform="translate(0 0.684375)"/>
    <use xlink:href="#DejaVuSans-54" transform="translate(98.876953 0.684375)"/>
    <use xlink:href="#DejaVuSans-4d" transform="translate(159.960938 0.684375)"/>
    <use xlink:href="#DejaVuSans-41" transform="translate(246.240234 0.684375)"/>
    <use xlink:href="#DejaVuSans-44" transform="translate(314.648438 0.684375)"/>
    <use xlink:href="#DejaVuSans-2d" transform="translate(391.650391 0.684375)"/>
    <use xlink:href="#DejaVuSans-32" transform="translate(427.734375 0.684375)"/>
    <use xlink:href="#DejaVuSans-20" transform="translate(491.357422 0.684375)"/>
    <use xlink:href="#DejaVuSans-6f" transform="translate(523.144531 0.684375)"/>
    <use xlink:href="#DejaVuSans-72" transform="translate(584.326172 0.684375)"/>
    <use xlink:href="#DejaVuSans-20" transform="translate(625.439453 0.684375)"/>
    <use xlink:href="#DejaVuSans-4d" transform="translate(657.226562 0.684375)"/>
    <use xlink:href="#DejaVuSans-55" transform="translate(743.505859 0.684375)"/>
    <use xlink:href="#DejaVuSans-45" transform="translate(816.699219 0.684375)"/>
    <use xlink:href="#DejaVuSans-50" transform="translate(879.882812 0.684375)"/>
    <use xlink:href="#DejaVuSans-42" transform="translate(940.185547 0.684375)"/>
    <use xlink:href="#DejaVuSans-20" transform="translate(1008.789062 0.684375)"/>
    <use xlink:href="#DejaVuSans-2f" transform="translate(1040.576172 0.684375)"/>
    <use xlink:href="#DejaVuSans-20" transform="translate(1074.267578 0.684375)"/>
    <use xlink:href="#DejaVuSans-6b" transform="translate(1106.054688 0.684375)"/>
    <use xlink:href="#DejaVuSans-63" transform="translate(1163.964844 0.684375)"/>
    <use xlink:href="#DejaVuSans-61" transform="translate(1218.945312 0.684375)"/>
    <use xlink:href="#DejaVuSans-6c" transform="translate(1280.224609 0.684375)"/>
    <use xlink:href="#DejaVuSans-20" transform="translate(1308.007812 0.684375)"/>
    <use xlink:href="#DejaVuSans-6d" transform="translate(1339.794922 0.684375)"/>
    <use xlink:href="#DejaVuSans-6f" transform="translate(1437.207031 0.684375)"/>
    <use xlink:href="#DejaVuSans-6c" transform="translate(1498.388672 0.684375)"/>
    <use xlink:href="#DejaVuSans-2212" transform="translate(1527.128906 38.965625) scale(0.7)"/>
    <use xlink:href="#DejaVuSans-31" transform="translate(1585.78125 38.965625) scale(0.7)"/>
   </g>
  </g>
  <g id="legend_1">
   <g id="patch_22">
    <path d="M 488.0325 245.386875 
L 594.92 245.386875 
Q 596.92 245.386875 596.92 243.386875 
L 596.92 141.64 
Q 596.92 139.64 594.92 139.64 
L 488.0325 139.64 
Q 486.0325 139.64 486.0325 141.64 
L 486.0325 243.386875 
Q 486.0325 245.386875 488.0325 245.386875 
z
" style="fill: #ffffff; opacity: 0.8; stroke: #cccccc; stroke-linejoin: miter"/>
   </g>
   <g id="line2d_71">
    <path d="M 490.0325 147.738437 
L 500.0325 147.738437 
L 510.0325 147.738437 
" style="fill: none; stroke: #1f77b4; stroke-width: 1.5; stroke-linecap: square"/>
   </g>
   <g id="text_35">
    <!-- GMTKN55 -->
    <g transform="translate(518.0325 151.238437) scale(0.1 -0.1)">
     <defs>
      <path id="DejaVuSans-4b" d="M 628 4666 
L 1259 4666 
L 1259 2694 
L 3353 4666 
L 4166 4666 
L 1850 2491 
L 4331 0 
L 3500 0 
L 1259 2247 
L 1259 0 
L 628 0 
L 628 4666 
z
" transform="scale(0.015625)"/>
      <path id="DejaVuSans-4e" d="M 628 4666 
L 1478 4666 
L 3547 763 
L 3547 4666 
L 4159 4666 
L 4159 0 
L 3309 0 
L 1241 3903 
L 1241 0 
L 628 0 
L 628 4666 
z
" transform="scale(0.015625)"/>
     </defs>
     <use xlink:href="#DejaVuSans-47"/>
     <use xlink:href="#DejaVuSans-4d" x="77.490234"/>
     <use xlink:href="#DejaVuSans-54" x="163.769531"/>
     <use xlink:href="#DejaVuSans-4b" x="224.853516"/>
     <use xlink:href="#DejaVuSans-4e" x="290.429688"/>
     <use xlink:href="#DejaVuSans-35" x="365.234375"/>
     <use xlink:href="#DejaVuSans-35" x="428.857422"/>
    </g>
   </g>
   <g id="line2d_72">
    <path d="M 490.0325 162.416562 
L 500.0325 162.416562 
L 510.0325 162.416562 
" style="fill: none; stroke-dasharray: 5.55,2.4; stroke-dashoffset: 0; stroke: #ff7f0e; stroke-width: 1.5"/>
   </g>
   <g id="text_36">
    <!-- MR-MGM-BE4 -->
    <g transform="translate(518.0325 165.916562) scale(0.1 -0.1)">
     <defs>
      <path id="DejaVuSans-52" d="M 2841 2188 
Q 3044 2119 3236 1894 
Q 3428 1669 3622 1275 
L 4263 0 
L 3584 0 
L 2988 1197 
Q 2756 1666 2539 1819 
Q 2322 1972 1947 1972 
L 1259 1972 
L 1259 0 
L 628 0 
L 628 4666 
L 2053 4666 
Q 2853 4666 3247 4331 
Q 3641 3997 3641 3322 
Q 3641 2881 3436 2590 
Q 3231 2300 2841 2188 
z
M 1259 4147 
L 1259 2491 
L 2053 2491 
Q 2509 2491 2742 2702 
Q 2975 2913 2975 3322 
Q 2975 3731 2742 3939 
Q 2509 4147 2053 4147 
L 1259 4147 
z
" transform="scale(0.015625)"/>
     </defs>
     <use xlink:href="#DejaVuSans-4d"/>
     <use xlink:href="#DejaVuSans-52" x="86.279297"/>
     <use xlink:href="#DejaVuSans-2d" x="151.761719"/>
     <use xlink:href="#DejaVuSans-4d" x="187.845703"/>
     <use xlink:href="#DejaVuSans-47" x="274.125"/>
     <use xlink:href="#DejaVuSans-4d" x="351.615234"/>
     <use xlink:href="#DejaVuSans-2d" x="437.894531"/>
     <use xlink:href="#DejaVuSans-42" x="470.353516"/>
     <use xlink:href="#DejaVuSans-45" x="538.957031"/>
     <use xlink:href="#DejaVuSans-34" x="602.140625"/>
    </g>
   </g>
   <g id="line2d_73">
    <path d="M 490.0325 177.094687 
L 500.0325 177.094687 
L 510.0325 177.094687 
" style="fill: none; stroke-dasharray: 5.55,2.4; stroke-dashoffset: 0; stroke: #2ca02c; stroke-width: 1.5"/>
   </g>
   <g id="text_37">
    <!-- MR-MGN-BE17 -->
    <g transform="translate(518.0325 180.594687) scale(0.1 -0.1)">
     <use xlink:href="#DejaVuSans-4d"/>
     <use xlink:href="#DejaVuSans-52" x="86.279297"/>
     <use xlink:href="#DejaVuSans-2d" x="151.761719"/>
     <use xlink:href="#DejaVuSans-4d" x="187.845703"/>
     <use xlink:href="#DejaVuSans-47" x="274.125"/>
     <use xlink:href="#DejaVuSans-4e" x="351.615234"/>
     <use xlink:href="#DejaVuSans-2d" x="426.419922"/>
     <use xlink:href="#DejaVuSans-42" x="458.878906"/>
     <use xlink:href="#DejaVuSans-45" x="527.482422"/>
     <use xlink:href="#DejaVuSans-31" x="590.666016"/>
     <use xlink:href="#DejaVuSans-37" x="654.289062"/>
    </g>
   </g>
   <g id="line2d_74">
    <path d="M 490.0325 191.772812 
L 500.0325 191.772812 
L 510.0325 191.772812 
" style="fill: none; stroke-dasharray: 5.55,2.4; stroke-dashoffset: 0; stroke: #d62728; stroke-width: 1.5"/>
   </g>
   <g id="text_38">
    <!-- MR-TM-BE13 -->
    <g transform="translate(518.0325 195.272812) scale(0.1 -0.1)">
     <use xlink:href="#DejaVuSans-4d"/>
     <use xlink:href="#DejaVuSans-52" x="86.279297"/>
     <use xlink:href="#DejaVuSans-2d" x="151.761719"/>
     <use xlink:href="#DejaVuSans-54" x="178.720703"/>
     <use xlink:href="#DejaVuSans-4d" x="239.804688"/>
     <use xlink:href="#DejaVuSans-2d" x="326.083984"/>
     <use xlink:href="#DejaVuSans-42" x="358.542969"/>
     <use xlink:href="#DejaVuSans-45" x="427.146484"/>
     <use xlink:href="#DejaVuSans-31" x="490.330078"/>
     <use xlink:href="#DejaVuSans-33" x="553.953125"/>
    </g>
   </g>
   <g id="line2d_75">
    <path d="M 490.0325 206.450937 
L 500.0325 206.450937 
L 510.0325 206.450937 
" style="fill: none; stroke-dasharray: 1.5,2.475; stroke-dashoffset: 0; stroke: #9467bd; stroke-width: 1.5"/>
   </g>
   <g id="text_39">
    <!-- SR-MGM-BE9 -->
    <g transform="translate(518.0325 209.950937) scale(0.1 -0.1)">
     <defs>
      <path id="DejaVuSans-53" d="M 3425 4513 
L 3425 3897 
Q 3066 4069 2747 4153 
Q 2428 4238 2131 4238 
Q 1616 4238 1336 4038 
Q 1056 3838 1056 3469 
Q 1056 3159 1242 3001 
Q 1428 2844 1947 2747 
L 2328 2669 
Q 3034 2534 3370 2195 
Q 3706 1856 3706 1288 
Q 3706 609 3251 259 
Q 2797 -91 1919 -91 
Q 1588 -91 1214 -16 
Q 841 59 441 206 
L 441 856 
Q 825 641 1194 531 
Q 1563 422 1919 422 
Q 2459 422 2753 634 
Q 3047 847 3047 1241 
Q 3047 1584 2836 1778 
Q 2625 1972 2144 2069 
L 1759 2144 
Q 1053 2284 737 2584 
Q 422 2884 422 3419 
Q 422 4038 858 4394 
Q 1294 4750 2059 4750 
Q 2388 4750 2728 4690 
Q 3069 4631 3425 4513 
z
" transform="scale(0.015625)"/>
     </defs>
     <use xlink:href="#DejaVuSans-53"/>
     <use xlink:href="#DejaVuSans-52" x="63.476562"/>
     <use xlink:href="#DejaVuSans-2d" x="128.958984"/>
     <use xlink:href="#DejaVuSans-4d" x="165.042969"/>
     <use xlink:href="#DejaVuSans-47" x="251.322266"/>
     <use xlink:href="#DejaVuSans-4d" x="328.8125"/>
     <use xlink:href="#DejaVuSans-2d" x="415.091797"/>
     <use xlink:href="#DejaVuSans-42" x="447.550781"/>
     <use xlink:href="#DejaVuSans-45" x="516.154297"/>
     <use xlink:href="#DejaVuSans-39" x="579.337891"/>
    </g>
   </g>
   <g id="line2d_76">
    <path d="M 490.0325 221.129062 
L 500.0325 221.129062 
L 510.0325 221.129062 
" style="fill: none; stroke-dasharray: 1.5,2.475; stroke-dashoffset: 0; stroke: #8c564b; stroke-width: 1.5"/>
   </g>
   <g id="text_40">
    <!-- SR-TM-BE17 -->
    <g transform="translate(518.0325 224.629062) scale(0.1 -0.1)">
     <use xlink:href="#DejaVuSans-53"/>
     <use xlink:href="#DejaVuSans-52" x="63.476562"/>
     <use xlink:href="#DejaVuSans-2d" x="128.958984"/>
     <use xlink:href="#DejaVuSans-54" x="155.917969"/>
     <use xlink:href="#DejaVuSans-4d" x="217.001953"/>
     <use xlink:href="#DejaVuSans-2d" x="303.28125"/>
     <use xlink:href="#DejaVuSans-42" x="335.740234"/>
     <use xlink:href="#DejaVuSans-45" x="404.34375"/>
     <use xlink:href="#DejaVuSans-31" x="467.527344"/>
     <use xlink:href="#DejaVuSans-37" x="531.150391"/>
    </g>
   </g>
   <g id="line2d_77">
    <path d="M 490.0325 235.807187 
L 500.0325 235.807187 
L 510.0325 235.807187 
" style="fill: none; stroke: #000000; stroke-width: 1.5; stroke-linecap: square"/>
   </g>
   <g id="text_41">
    <!-- Weighted Error -->
    <g transform="translate(518.0325 239.307187) scale(0.1 -0.1)">
     <defs>
      <path id="DejaVuSans-67" d="M 2906 1791 
Q 2906 2416 2648 2759 
Q 2391 3103 1925 3103 
Q 1463 3103 1205 2759 
Q 947 2416 947 1791 
Q 947 1169 1205 825 
Q 1463 481 1925 481 
Q 2391 481 2648 825 
Q 2906 1169 2906 1791 
z
M 3481 434 
Q 3481 -459 3084 -895 
Q 2688 -1331 1869 -1331 
Q 1566 -1331 1297 -1286 
Q 1028 -1241 775 -1147 
L 775 -588 
Q 1028 -725 1275 -790 
Q 1522 -856 1778 -856 
Q 2344 -856 2625 -561 
Q 2906 -266 2906 331 
L 2906 616 
Q 2728 306 2450 153 
Q 2172 0 1784 0 
Q 1141 0 747 490 
Q 353 981 353 1791 
Q 353 2603 747 3093 
Q 1141 3584 1784 3584 
Q 2172 3584 2450 3431 
Q 2728 3278 2906 2969 
L 2906 3500 
L 3481 3500 
L 3481 434 
z
" transform="scale(0.015625)"/>
      <path id="DejaVuSans-68" d="M 3513 2113 
L 3513 0 
L 2938 0 
L 2938 2094 
Q 2938 2591 2744 2837 
Q 2550 3084 2163 3084 
Q 1697 3084 1428 2787 
Q 1159 2491 1159 1978 
L 1159 0 
L 581 0 
L 581 4863 
L 1159 4863 
L 1159 2956 
Q 1366 3272 1645 3428 
Q 1925 3584 2291 3584 
Q 2894 3584 3203 3211 
Q 3513 2838 3513 2113 
z
" transform="scale(0.015625)"/>
     </defs>
     <use xlink:href="#DejaVuSans-57"/>
     <use xlink:href="#DejaVuSans-65" x="93.001953"/>
     <use xlink:href="#DejaVuSans-69" x="154.525391"/>
     <use xlink:href="#DejaVuSans-67" x="182.308594"/>
     <use xlink:href="#DejaVuSans-68" x="245.785156"/>
     <use xlink:href="#DejaVuSans-74" x="309.164062"/>
     <use xlink:href="#DejaVuSans-65" x="348.373047"/>
     <use xlink:href="#DejaVuSans-64" x="409.896484"/>
     <use xlink:href="#DejaVuSans-20" x="473.373047"/>
     <use xlink:href="#DejaVuSans-45" x="505.160156"/>
     <use xlink:href="#DejaVuSans-72" x="568.34375"/>
     <use xlink:href="#DejaVuSans-72" x="607.707031"/>
     <use xlink:href="#DejaVuSans-6f" x="646.570312"/>
     <use xlink:href="#DejaVuSans-72" x="707.751953"/>
    </g>
   </g>
  </g>
 </g>
 <defs>
  <clipPath id="p993b1b9e78">
   <rect x="47.158" y="7.2" width="217.5985" height="182.476"/>
  </clipPath>
  <clipPath id="pdd1dc00012">
   <rect x="264.7565" y="7.2" width="217.5985" height="182.476"/>
  </clipPath>
  <clipPath id="p235e7521e6">
   <rect x="47.158" y="189.676" width="217.5985" height="182.476"/>
  </clipPath>
  <clipPath id="pc3bddb4abd">
   <rect x="264.7565" y="189.676" width="217.5985" height="182.476"/>
  </clipPath>
 </defs>
</svg>
