<?xml version="1.0" encoding="utf-8" standalone="no"?>
<!DOCTYPE svg PUBLIC "-//W3C//DTD SVG 1.1//EN"
  "http://www.w3.org/Graphics/SVG/1.1/DTD/svg11.dtd">
<svg xmlns:xlink="http://www.w3.org/1999/xlink" width="720pt" height="360pt" viewBox="0 0 720 360" xmlns="http://www.w3.org/2000/svg" version="1.1">
 <metadata>
  <rdf:RDF xmlns:dc="http://purl.org/dc/elements/1.1/" xmlns:cc="http://creativecommons.org/ns#" xmlns:rdf="http://www.w3.org/1999/02/22-rdf-syntax-ns#">
   <cc:Work>
    <dc:type rdf:resource="http://purl.org/dc/dcmitype/StillImage"/>
    <dc:date>2023-07-14T14:15:51.553599</dc:date>
    <dc:format>image/svg+xml</dc:format>
    <dc:creator>
     <cc:Agent>
      <dc:title>Matplotlib v3.5.1, https://matplotlib.org/</dc:title>
     </cc:Agent>
    </dc:creator>
   </cc:Work>
  </rdf:RDF>
 </metadata>
 <defs>
  <style type="text/css">*{stroke-linejoin: round; stroke-linecap: butt}</style>
 </defs>
 <g id="figure_1">
  <g id="patch_1">
   <path d="M 0 360 
L 720 360 
L 720 0 
L 0 0 
z
" style="fill: #ffffff"/>
  </g>
  <g id="axes_1">
   <g id="patch_2">
    <path d="M 54.912 187.289796 
L 709.2 187.289796 
L 709.2 10.8 
L 54.912 10.8 
z
" style="fill: #ffffff"/>
   </g>
   <g id="patch_3">
    <path d="M 84.652364 425.167347 
L 90.371664 425.167347 
L 90.371664 176.853878 
L 84.652364 176.853878 
z
" clip-path="url(#p4b82bd3a76)" style="fill: #1f77b4"/>
   </g>
   <g id="patch_4">
    <path d="M 90.371664 425.167347 
L 96.090965 425.167347 
L 96.090965 346.897959 
L 90.371664 346.897959 
z
" clip-path="url(#p4b82bd3a76)" style="fill: #ff7f0e"/>
   </g>
   <g id="patch_5">
    <path d="M 96.090965 425.167347 
L 101.810266 425.167347 
L 101.810266 160.279184 
L 96.090965 160.279184 
z
" clip-path="url(#p4b82bd3a76)" style="fill: #2ca02c"/>
   </g>
   <g id="patch_6">
    <path d="M 101.810266 425.167347 
L 107.529566 425.167347 
L 107.529566 286.43102 
L 101.810266 286.43102 
z
" clip-path="url(#p4b82bd3a76)" style="fill: #d62728"/>
   </g>
   <g id="patch_7">
    <path d="M 107.529566 425.167347 
L 113.248867 425.167347 
L 113.248867 -13.294694 
L 107.529566 -13.294694 
z
" clip-path="url(#p4b82bd3a76)" style="fill: #9467bd"/>
   </g>
   <g id="patch_8">
    <path d="M 113.248867 425.167347 
L 118.968168 425.167347 
L 118.968168 39.805714 
L 113.248867 39.805714 
z
" clip-path="url(#p4b82bd3a76)" style="fill: #8c564b"/>
   </g>
   <g id="patch_9">
    <path d="M 124.687469 425.167347 
L 130.406769 425.167347 
L 130.406769 367.616327 
L 124.687469 367.616327 
z
" clip-path="url(#p4b82bd3a76)" style="fill: #1f77b4"/>
   </g>
   <g id="patch_10">
    <path d="M 130.406769 425.167347 
L 136.12607 425.167347 
L 136.12607 398.770612 
L 130.406769 398.770612 
z
" clip-path="url(#p4b82bd3a76)" style="fill: #ff7f0e"/>
   </g>
   <g id="patch_11">
    <path d="M 136.12607 425.167347 
L 141.845371 425.167347 
L 141.845371 353.190204 
L 136.12607 353.190204 
z
" clip-path="url(#p4b82bd3a76)" style="fill: #2ca02c"/>
   </g>
   <g id="patch_12">
    <path d="M 141.845371 425.167347 
L 147.564671 425.167347 
L 147.564671 390.943673 
L 141.845371 390.943673 
z
" clip-path="url(#p4b82bd3a76)" style="fill: #d62728"/>
   </g>
   <g id="patch_13">
    <path d="M 147.564671 425.167347 
L 153.283972 425.167347 
L 153.283972 332.471837 
L 147.564671 332.471837 
z
" clip-path="url(#p4b82bd3a76)" style="fill: #9467bd"/>
   </g>
   <g id="patch_14">
    <path d="M 153.283972 425.167347 
L 159.003273 425.167347 
L 159.003273 350.274286 
L 153.283972 350.274286 
z
" clip-path="url(#p4b82bd3a76)" style="fill: #8c564b"/>
   </g>
   <g id="patch_15">
    <path d="M 164.722573 425.167347 
L 170.441874 425.167347 
L 170.441874 378.666122 
L 164.722573 378.666122 
z
" clip-path="url(#p4b82bd3a76)" style="fill: #1f77b4"/>
   </g>
   <g id="patch_16">
    <path d="M 170.441874 425.167347 
L 176.161175 425.167347 
L 176.161175 399.998367 
L 170.441874 399.998367 
z
" clip-path="url(#p4b82bd3a76)" style="fill: #ff7f0e"/>
   </g>
   <g id="patch_17">
    <path d="M 176.161175 425.167347 
L 181.880476 425.167347 
L 181.880476 361.477551 
L 176.161175 361.477551 
z
" clip-path="url(#p4b82bd3a76)" style="fill: #2ca02c"/>
   </g>
   <g id="patch_18">
    <path d="M 181.880476 425.167347 
L 187.599776 425.167347 
L 187.599776 387.874286 
L 181.880476 387.874286 
z
" clip-path="url(#p4b82bd3a76)" style="fill: #d62728"/>
   </g>
   <g id="patch_19">
    <path d="M 187.599776 425.167347 
L 193.319077 425.167347 
L 193.319077 349.813878 
L 187.599776 349.813878 
z
" clip-path="url(#p4b82bd3a76)" style="fill: #9467bd"/>
   </g>
   <g id="patch_20">
    <path d="M 193.319077 425.167347 
L 199.038378 425.167347 
L 199.038378 382.502857 
L 193.319077 382.502857 
z
" clip-path="url(#p4b82bd3a76)" style="fill: #8c564b"/>
   </g>
   <g id="patch_21">
    <path d="M 204.757678 425.167347 
L 210.476979 425.167347 
L 210.476979 363.165714 
L 204.757678 363.165714 
z
" clip-path="url(#p4b82bd3a76)" style="fill: #1f77b4"/>
   </g>
   <g id="patch_22">
    <path d="M 210.476979 425.167347 
L 216.19628 425.167347 
L 216.19628 396.77551 
L 210.476979 396.77551 
z
" clip-path="url(#p4b82bd3a76)" style="fill: #ff7f0e"/>
   </g>
   <g id="patch_23">
    <path d="M 216.19628 425.167347 
L 221.91558 425.167347 
L 221.91558 357.333878 
L 216.19628 357.333878 
z
" clip-path="url(#p4b82bd3a76)" style="fill: #2ca02c"/>
   </g>
   <g id="patch_24">
    <path d="M 221.91558 425.167347 
L 227.634881 425.167347 
L 227.634881 380.047347 
L 221.91558 380.047347 
z
" clip-path="url(#p4b82bd3a76)" style="fill: #d62728"/>
   </g>
   <g id="patch_25">
    <path d="M 227.634881 425.167347 
L 233.354182 425.167347 
L 233.354182 332.932245 
L 227.634881 332.932245 
z
" clip-path="url(#p4b82bd3a76)" style="fill: #9467bd"/>
   </g>
   <g id="patch_26">
    <path d="M 233.354182 425.167347 
L 239.073483 425.167347 
L 239.073483 333.546122 
L 233.354182 333.546122 
z
" clip-path="url(#p4b82bd3a76)" style="fill: #8c564b"/>
   </g>
   <g id="patch_27">
    <path d="M 244.792783 425.167347 
L 250.512084 425.167347 
L 250.512084 378.973061 
L 244.792783 378.973061 
z
" clip-path="url(#p4b82bd3a76)" style="fill: #1f77b4"/>
   </g>
   <g id="patch_28">
    <path d="M 250.512084 425.167347 
L 256.231385 425.167347 
L 256.231385 397.696327 
L 250.512084 397.696327 
z
" clip-path="url(#p4b82bd3a76)" style="fill: #ff7f0e"/>
   </g>
   <g id="patch_29">
    <path d="M 256.231385 425.167347 
L 261.950685 425.167347 
L 261.950685 366.69551 
L 256.231385 366.69551 
z
" clip-path="url(#p4b82bd3a76)" style="fill: #2ca02c"/>
   </g>
   <g id="patch_30">
    <path d="M 261.950685 425.167347 
L 267.669986 425.167347 
L 267.669986 384.958367 
L 261.950685 384.958367 
z
" clip-path="url(#p4b82bd3a76)" style="fill: #d62728"/>
   </g>
   <g id="patch_31">
    <path d="M 267.669986 425.167347 
L 273.389287 425.167347 
L 273.389287 352.576327 
L 267.669986 352.576327 
z
" clip-path="url(#p4b82bd3a76)" style="fill: #9467bd"/>
   </g>
   <g id="patch_32">
    <path d="M 273.389287 425.167347 
L 279.108587 425.167347 
L 279.108587 382.195918 
L 273.389287 382.195918 
z
" clip-path="url(#p4b82bd3a76)" style="fill: #8c564b"/>
   </g>
   <g id="patch_33">
    <path d="M 284.827888 425.167347 
L 290.547189 425.167347 
L 290.547189 378.819592 
L 284.827888 378.819592 
z
" clip-path="url(#p4b82bd3a76)" style="fill: #1f77b4"/>
   </g>
   <g id="patch_34">
    <path d="M 290.547189 425.167347 
L 296.26649 425.167347 
L 296.26649 389.25551 
L 290.547189 389.25551 
z
" clip-path="url(#p4b82bd3a76)" style="fill: #ff7f0e"/>
   </g>
   <g id="patch_35">
    <path d="M 296.26649 425.167347 
L 301.98579 425.167347 
L 301.98579 370.532245 
L 296.26649 370.532245 
z
" clip-path="url(#p4b82bd3a76)" style="fill: #2ca02c"/>
   </g>
   <g id="patch_36">
    <path d="M 301.98579 425.167347 
L 307.705091 425.167347 
L 307.705091 377.745306 
L 301.98579 377.745306 
z
" clip-path="url(#p4b82bd3a76)" style="fill: #d62728"/>
   </g>
   <g id="patch_37">
    <path d="M 307.705091 425.167347 
L 313.424392 425.167347 
L 313.424392 361.937959 
L 307.705091 361.937959 
z
" clip-path="url(#p4b82bd3a76)" style="fill: #9467bd"/>
   </g>
   <g id="patch_38">
    <path d="M 313.424392 425.167347 
L 319.143692 425.167347 
L 319.143692 387.413878 
L 313.424392 387.413878 
z
" clip-path="url(#p4b82bd3a76)" style="fill: #8c564b"/>
   </g>
   <g id="patch_39">
    <path d="M 324.862993 425.167347 
L 330.582294 425.167347 
L 330.582294 384.34449 
L 324.862993 384.34449 
z
" clip-path="url(#p4b82bd3a76)" style="fill: #1f77b4"/>
   </g>
   <g id="patch_40">
    <path d="M 330.582294 425.167347 
L 336.301594 425.167347 
L 336.301594 396.161633 
L 330.582294 396.161633 
z
" clip-path="url(#p4b82bd3a76)" style="fill: #ff7f0e"/>
   </g>
   <g id="patch_41">
    <path d="M 336.301594 425.167347 
L 342.020895 425.167347 
L 342.020895 372.834286 
L 336.301594 372.834286 
z
" clip-path="url(#p4b82bd3a76)" style="fill: #2ca02c"/>
   </g>
   <g id="patch_42">
    <path d="M 342.020895 425.167347 
L 347.740196 425.167347 
L 347.740196 375.136327 
L 342.020895 375.136327 
z
" clip-path="url(#p4b82bd3a76)" style="fill: #d62728"/>
   </g>
   <g id="patch_43">
    <path d="M 347.740196 425.167347 
L 353.459497 425.167347 
L 353.459497 376.057143 
L 347.740196 376.057143 
z
" clip-path="url(#p4b82bd3a76)" style="fill: #9467bd"/>
   </g>
   <g id="patch_44">
    <path d="M 353.459497 425.167347 
L 359.178797 425.167347 
L 359.178797 389.102041 
L 353.459497 389.102041 
z
" clip-path="url(#p4b82bd3a76)" style="fill: #8c564b"/>
   </g>
   <g id="patch_45">
    <path d="M 364.898098 425.167347 
L 370.617399 425.167347 
L 370.617399 387.260408 
L 364.898098 387.260408 
z
" clip-path="url(#p4b82bd3a76)" style="fill: #1f77b4"/>
   </g>
   <g id="patch_46">
    <path d="M 370.617399 425.167347 
L 376.336699 425.167347 
L 376.336699 400.765714 
L 370.617399 400.765714 
z
" clip-path="url(#p4b82bd3a76)" style="fill: #ff7f0e"/>
   </g>
   <g id="patch_47">
    <path d="M 376.336699 425.167347 
L 382.056 425.167347 
L 382.056 381.275102 
L 376.336699 381.275102 
z
" clip-path="url(#p4b82bd3a76)" style="fill: #2ca02c"/>
   </g>
   <g id="patch_48">
    <path d="M 382.056 425.167347 
L 387.775301 425.167347 
L 387.775301 383.116735 
L 382.056 383.116735 
z
" clip-path="url(#p4b82bd3a76)" style="fill: #d62728"/>
   </g>
   <g id="patch_49">
    <path d="M 387.775301 425.167347 
L 393.494601 425.167347 
L 393.494601 374.522449 
L 387.775301 374.522449 
z
" clip-path="url(#p4b82bd3a76)" style="fill: #9467bd"/>
   </g>
   <g id="patch_50">
    <path d="M 393.494601 425.167347 
L 399.213902 425.167347 
L 399.213902 385.879184 
L 393.494601 385.879184 
z
" clip-path="url(#p4b82bd3a76)" style="fill: #8c564b"/>
   </g>
   <g id="patch_51">
    <path d="M 404.933203 425.167347 
L 410.652503 425.167347 
L 410.652503 389.562449 
L 404.933203 389.562449 
z
" clip-path="url(#p4b82bd3a76)" style="fill: #1f77b4"/>
   </g>
   <g id="patch_52">
    <path d="M 410.652503 425.167347 
L 416.371804 425.167347 
L 416.371804 401.379592 
L 410.652503 401.379592 
z
" clip-path="url(#p4b82bd3a76)" style="fill: #ff7f0e"/>
   </g>
   <g id="patch_53">
    <path d="M 416.371804 425.167347 
L 422.091105 425.167347 
L 422.091105 385.418776 
L 416.371804 385.418776 
z
" clip-path="url(#p4b82bd3a76)" style="fill: #2ca02c"/>
   </g>
   <g id="patch_54">
    <path d="M 422.091105 425.167347 
L 427.810406 425.167347 
L 427.810406 386.646531 
L 422.091105 386.646531 
z
" clip-path="url(#p4b82bd3a76)" style="fill: #d62728"/>
   </g>
   <g id="patch_55">
    <path d="M 427.810406 425.167347 
L 433.529706 425.167347 
L 433.529706 376.82449 
L 427.810406 376.82449 
z
" clip-path="url(#p4b82bd3a76)" style="fill: #9467bd"/>
   </g>
   <g id="patch_56">
    <path d="M 433.529706 425.167347 
L 439.249007 425.167347 
L 439.249007 389.40898 
L 433.529706 389.40898 
z
" clip-path="url(#p4b82bd3a76)" style="fill: #8c564b"/>
   </g>
   <g id="patch_57">
    <path d="M 444.968308 425.167347 
L 450.687608 425.167347 
L 450.687608 390.790204 
L 444.968308 390.790204 
z
" clip-path="url(#p4b82bd3a76)" style="fill: #1f77b4"/>
   </g>
   <g id="patch_58">
    <path d="M 450.687608 425.167347 
L 456.406909 425.167347 
L 456.406909 402.607347 
L 450.687608 402.607347 
z
" clip-path="url(#p4b82bd3a76)" style="fill: #ff7f0e"/>
   </g>
   <g id="patch_59">
    <path d="M 456.406909 425.167347 
L 462.12621 425.167347 
L 462.12621 386.646531 
L 456.406909 386.646531 
z
" clip-path="url(#p4b82bd3a76)" style="fill: #2ca02c"/>
   </g>
   <g id="patch_60">
    <path d="M 462.12621 425.167347 
L 467.84551 425.167347 
L 467.84551 385.111837 
L 462.12621 385.111837 
z
" clip-path="url(#p4b82bd3a76)" style="fill: #d62728"/>
   </g>
   <g id="patch_61">
    <path d="M 467.84551 425.167347 
L 473.564811 425.167347 
L 473.564811 380.814694 
L 467.84551 380.814694 
z
" clip-path="url(#p4b82bd3a76)" style="fill: #9467bd"/>
   </g>
   <g id="patch_62">
    <path d="M 473.564811 425.167347 
L 479.284112 425.167347 
L 479.284112 389.715918 
L 473.564811 389.715918 
z
" clip-path="url(#p4b82bd3a76)" style="fill: #8c564b"/>
   </g>
   <g id="patch_63">
    <path d="M 485.003413 425.167347 
L 490.722713 425.167347 
L 490.722713 393.706122 
L 485.003413 393.706122 
z
" clip-path="url(#p4b82bd3a76)" style="fill: #1f77b4"/>
   </g>
   <g id="patch_64">
    <path d="M 490.722713 425.167347 
L 496.442014 425.167347 
L 496.442014 405.062857 
L 490.722713 405.062857 
z
" clip-path="url(#p4b82bd3a76)" style="fill: #ff7f0e"/>
   </g>
   <g id="patch_65">
    <path d="M 496.442014 425.167347 
L 502.161315 425.167347 
L 502.161315 387.874286 
L 496.442014 387.874286 
z
" clip-path="url(#p4b82bd3a76)" style="fill: #2ca02c"/>
   </g>
   <g id="patch_66">
    <path d="M 502.161315 425.167347 
L 507.880615 425.167347 
L 507.880615 389.869388 
L 502.161315 389.869388 
z
" clip-path="url(#p4b82bd3a76)" style="fill: #d62728"/>
   </g>
   <g id="patch_67">
    <path d="M 507.880615 425.167347 
L 513.599916 425.167347 
L 513.599916 382.502857 
L 507.880615 382.502857 
z
" clip-path="url(#p4b82bd3a76)" style="fill: #9467bd"/>
   </g>
   <g id="patch_68">
    <path d="M 513.599916 425.167347 
L 519.319217 425.167347 
L 519.319217 394.473469 
L 513.599916 394.473469 
z
" clip-path="url(#p4b82bd3a76)" style="fill: #8c564b"/>
   </g>
   <g id="patch_69">
    <path d="M 525.038517 425.167347 
L 530.757818 425.167347 
L 530.757818 364.853878 
L 525.038517 364.853878 
z
" clip-path="url(#p4b82bd3a76)" style="fill: #1f77b4"/>
   </g>
   <g id="patch_70">
    <path d="M 530.757818 425.167347 
L 536.477119 425.167347 
L 536.477119 386.646531 
L 530.757818 386.646531 
z
" clip-path="url(#p4b82bd3a76)" style="fill: #ff7f0e"/>
   </g>
   <g id="patch_71">
    <path d="M 536.477119 425.167347 
L 542.19642 425.167347 
L 542.19642 328.788571 
L 536.477119 328.788571 
z
" clip-path="url(#p4b82bd3a76)" style="fill: #2ca02c"/>
   </g>
   <g id="patch_72">
    <path d="M 542.19642 425.167347 
L 547.91572 425.167347 
L 547.91572 349.967347 
L 542.19642 349.967347 
z
" clip-path="url(#p4b82bd3a76)" style="fill: #d62728"/>
   </g>
   <g id="patch_73">
    <path d="M 547.91572 425.167347 
L 553.635021 425.167347 
L 553.635021 367.155918 
L 547.91572 367.155918 
z
" clip-path="url(#p4b82bd3a76)" style="fill: #9467bd"/>
   </g>
   <g id="patch_74">
    <path d="M 553.635021 425.167347 
L 559.354322 425.167347 
L 559.354322 367.155918 
L 553.635021 367.155918 
z
" clip-path="url(#p4b82bd3a76)" style="fill: #8c564b"/>
   </g>
   <g id="patch_75">
    <path d="M 565.073622 425.167347 
L 570.792923 425.167347 
L 570.792923 377.898776 
L 565.073622 377.898776 
z
" clip-path="url(#p4b82bd3a76)" style="fill: #1f77b4"/>
   </g>
   <g id="patch_76">
    <path d="M 570.792923 425.167347 
L 576.512224 425.167347 
L 576.512224 396.315102 
L 570.792923 396.315102 
z
" clip-path="url(#p4b82bd3a76)" style="fill: #ff7f0e"/>
   </g>
   <g id="patch_77">
    <path d="M 576.512224 425.167347 
L 582.231524 425.167347 
L 582.231524 358.868571 
L 576.512224 358.868571 
z
" clip-path="url(#p4b82bd3a76)" style="fill: #2ca02c"/>
   </g>
   <g id="patch_78">
    <path d="M 582.231524 425.167347 
L 587.950825 425.167347 
L 587.950825 378.512653 
L 582.231524 378.512653 
z
" clip-path="url(#p4b82bd3a76)" style="fill: #d62728"/>
   </g>
   <g id="patch_79">
    <path d="M 587.950825 425.167347 
L 593.670126 425.167347 
L 593.670126 365.007347 
L 587.950825 365.007347 
z
" clip-path="url(#p4b82bd3a76)" style="fill: #9467bd"/>
   </g>
   <g id="patch_80">
    <path d="M 593.670126 425.167347 
L 599.389427 425.167347 
L 599.389427 376.82449 
L 593.670126 376.82449 
z
" clip-path="url(#p4b82bd3a76)" style="fill: #8c564b"/>
   </g>
   <g id="patch_81">
    <path d="M 605.108727 425.167347 
L 610.828028 425.167347 
L 610.828028 391.557551 
L 605.108727 391.557551 
z
" clip-path="url(#p4b82bd3a76)" style="fill: #1f77b4"/>
   </g>
   <g id="patch_82">
    <path d="M 610.828028 425.167347 
L 616.547329 425.167347 
L 616.547329 403.528163 
L 610.828028 403.528163 
z
" clip-path="url(#p4b82bd3a76)" style="fill: #ff7f0e"/>
   </g>
   <g id="patch_83">
    <path d="M 616.547329 425.167347 
L 622.266629 425.167347 
L 622.266629 385.572245 
L 616.547329 385.572245 
z
" clip-path="url(#p4b82bd3a76)" style="fill: #2ca02c"/>
   </g>
   <g id="patch_84">
    <path d="M 622.266629 425.167347 
L 627.98593 425.167347 
L 627.98593 394.626939 
L 622.266629 394.626939 
z
" clip-path="url(#p4b82bd3a76)" style="fill: #d62728"/>
   </g>
   <g id="patch_85">
    <path d="M 627.98593 425.167347 
L 633.705231 425.167347 
L 633.705231 387.567347 
L 627.98593 387.567347 
z
" clip-path="url(#p4b82bd3a76)" style="fill: #9467bd"/>
   </g>
   <g id="patch_86">
    <path d="M 633.705231 425.167347 
L 639.424531 425.167347 
L 639.424531 379.28 
L 633.705231 379.28 
z
" clip-path="url(#p4b82bd3a76)" style="fill: #8c564b"/>
   </g>
   <g id="patch_87">
    <path d="M 645.143832 425.167347 
L 650.863133 425.167347 
L 650.863133 390.943673 
L 645.143832 390.943673 
z
" clip-path="url(#p4b82bd3a76)" style="fill: #1f77b4"/>
   </g>
   <g id="patch_88">
    <path d="M 650.863133 425.167347 
L 656.582434 425.167347 
L 656.582434 397.542857 
L 650.863133 397.542857 
z
" clip-path="url(#p4b82bd3a76)" style="fill: #ff7f0e"/>
   </g>
   <g id="patch_89">
    <path d="M 656.582434 425.167347 
L 662.301734 425.167347 
L 662.301734 378.666122 
L 656.582434 378.666122 
z
" clip-path="url(#p4b82bd3a76)" style="fill: #2ca02c"/>
   </g>
   <g id="patch_90">
    <path d="M 662.301734 425.167347 
L 668.021035 425.167347 
L 668.021035 392.785306 
L 662.301734 392.785306 
z
" clip-path="url(#p4b82bd3a76)" style="fill: #d62728"/>
   </g>
   <g id="patch_91">
    <path d="M 668.021035 425.167347 
L 673.740336 425.167347 
L 673.740336 389.40898 
L 668.021035 389.40898 
z
" clip-path="url(#p4b82bd3a76)" style="fill: #9467bd"/>
   </g>
   <g id="patch_92">
    <path d="M 673.740336 425.167347 
L 679.459636 425.167347 
L 679.459636 390.943673 
L 673.740336 390.943673 
z
" clip-path="url(#p4b82bd3a76)" style="fill: #8c564b"/>
   </g>
   <g id="matplotlib.axis_1">
    <g id="xtick_1"/>
    <g id="xtick_2"/>
    <g id="xtick_3"/>
    <g id="xtick_4"/>
    <g id="xtick_5"/>
    <g id="xtick_6"/>
    <g id="xtick_7"/>
    <g id="xtick_8"/>
   </g>
   <g id="matplotlib.axis_2">
    <g id="ytick_1">
     <g id="line2d_1">
      <defs>
       <path id="m5da61bbebb" d="M 0 0 
L -3.5 0 
" style="stroke: #000000; stroke-width: 0.8"/>
      </defs>
      <g>
       <use xlink:href="#m5da61bbebb" x="54.912" y="179.616327" style="stroke: #000000; stroke-width: 0.8"/>
      </g>
     </g>
     <g id="text_1">
      <!-- 16 -->
      <g transform="translate(35.187 183.415545)scale(0.1 -0.1)">
       <defs>
        <path id="DejaVuSans-31" d="M 794 531 
L 1825 531 
L 1825 4091 
L 703 3866 
L 703 4441 
L 1819 4666 
L 2450 4666 
L 2450 531 
L 3481 531 
L 3481 0 
L 794 0 
L 794 531 
z
" transform="scale(0.015625)"/>
        <path id="DejaVuSans-36" d="M 2113 2584 
Q 1688 2584 1439 2293 
Q 1191 2003 1191 1497 
Q 1191 994 1439 701 
Q 1688 409 2113 409 
Q 2538 409 2786 701 
Q 3034 994 3034 1497 
Q 3034 2003 2786 2293 
Q 2538 2584 2113 2584 
z
M 3366 4563 
L 3366 3988 
Q 3128 4100 2886 4159 
Q 2644 4219 2406 4219 
Q 1781 4219 1451 3797 
Q 1122 3375 1075 2522 
Q 1259 2794 1537 2939 
Q 1816 3084 2150 3084 
Q 2853 3084 3261 2657 
Q 3669 2231 3669 1497 
Q 3669 778 3244 343 
Q 2819 -91 2113 -91 
Q 1303 -91 875 529 
Q 447 1150 447 2328 
Q 447 3434 972 4092 
Q 1497 4750 2381 4750 
Q 2619 4750 2861 4703 
Q 3103 4656 3366 4563 
z
" transform="scale(0.015625)"/>
       </defs>
       <use xlink:href="#DejaVuSans-31"/>
       <use xlink:href="#DejaVuSans-36" x="63.623047"/>
      </g>
     </g>
    </g>
    <g id="ytick_2">
     <g id="line2d_2">
      <g>
       <use xlink:href="#m5da61bbebb" x="54.912" y="148.922449" style="stroke: #000000; stroke-width: 0.8"/>
      </g>
     </g>
     <g id="text_2">
      <!-- 18 -->
      <g transform="translate(35.187 152.721668)scale(0.1 -0.1)">
       <defs>
        <path id="DejaVuSans-38" d="M 2034 2216 
Q 1584 2216 1326 1975 
Q 1069 1734 1069 1313 
Q 1069 891 1326 650 
Q 1584 409 2034 409 
Q 2484 409 2743 651 
Q 3003 894 3003 1313 
Q 3003 1734 2745 1975 
Q 2488 2216 2034 2216 
z
M 1403 2484 
Q 997 2584 770 2862 
Q 544 3141 544 3541 
Q 544 4100 942 4425 
Q 1341 4750 2034 4750 
Q 2731 4750 3128 4425 
Q 3525 4100 3525 3541 
Q 3525 3141 3298 2862 
Q 3072 2584 2669 2484 
Q 3125 2378 3379 2068 
Q 3634 1759 3634 1313 
Q 3634 634 3220 271 
Q 2806 -91 2034 -91 
Q 1263 -91 848 271 
Q 434 634 434 1313 
Q 434 1759 690 2068 
Q 947 2378 1403 2484 
z
M 1172 3481 
Q 1172 3119 1398 2916 
Q 1625 2713 2034 2713 
Q 2441 2713 2670 2916 
Q 2900 3119 2900 3481 
Q 2900 3844 2670 4047 
Q 2441 4250 2034 4250 
Q 1625 4250 1398 4047 
Q 1172 3844 1172 3481 
z
" transform="scale(0.015625)"/>
       </defs>
       <use xlink:href="#DejaVuSans-31"/>
       <use xlink:href="#DejaVuSans-38" x="63.623047"/>
      </g>
     </g>
    </g>
    <g id="ytick_3">
     <g id="line2d_3">
      <g>
       <use xlink:href="#m5da61bbebb" x="54.912" y="118.228571" style="stroke: #000000; stroke-width: 0.8"/>
      </g>
     </g>
     <g id="text_3">
      <!-- 20 -->
      <g transform="translate(35.187 122.02779)scale(0.1 -0.1)">
       <defs>
        <path id="DejaVuSans-32" d="M 1228 531 
L 3431 531 
L 3431 0 
L 469 0 
L 469 531 
Q 828 903 1448 1529 
Q 2069 2156 2228 2338 
Q 2531 2678 2651 2914 
Q 2772 3150 2772 3378 
Q 2772 3750 2511 3984 
Q 2250 4219 1831 4219 
Q 1534 4219 1204 4116 
Q 875 4013 500 3803 
L 500 4441 
Q 881 4594 1212 4672 
Q 1544 4750 1819 4750 
Q 2544 4750 2975 4387 
Q 3406 4025 3406 3419 
Q 3406 3131 3298 2873 
Q 3191 2616 2906 2266 
Q 2828 2175 2409 1742 
Q 1991 1309 1228 531 
z
" transform="scale(0.015625)"/>
        <path id="DejaVuSans-30" d="M 2034 4250 
Q 1547 4250 1301 3770 
Q 1056 3291 1056 2328 
Q 1056 1369 1301 889 
Q 1547 409 2034 409 
Q 2525 409 2770 889 
Q 3016 1369 3016 2328 
Q 3016 3291 2770 3770 
Q 2525 4250 2034 4250 
z
M 2034 4750 
Q 2819 4750 3233 4129 
Q 3647 3509 3647 2328 
Q 3647 1150 3233 529 
Q 2819 -91 2034 -91 
Q 1250 -91 836 529 
Q 422 1150 422 2328 
Q 422 3509 836 4129 
Q 1250 4750 2034 4750 
z
" transform="scale(0.015625)"/>
       </defs>
       <use xlink:href="#DejaVuSans-32"/>
       <use xlink:href="#DejaVuSans-30" x="63.623047"/>
      </g>
     </g>
    </g>
    <g id="ytick_4">
     <g id="line2d_4">
      <g>
       <use xlink:href="#m5da61bbebb" x="54.912" y="87.534694" style="stroke: #000000; stroke-width: 0.8"/>
      </g>
     </g>
     <g id="text_4">
      <!-- 22 -->
      <g transform="translate(35.187 91.333913)scale(0.1 -0.1)">
       <use xlink:href="#DejaVuSans-32"/>
       <use xlink:href="#DejaVuSans-32" x="63.623047"/>
      </g>
     </g>
    </g>
    <g id="ytick_5">
     <g id="line2d_5">
      <g>
       <use xlink:href="#m5da61bbebb" x="54.912" y="56.840816" style="stroke: #000000; stroke-width: 0.8"/>
      </g>
     </g>
     <g id="text_5">
      <!-- 24 -->
      <g transform="translate(35.187 60.640035)scale(0.1 -0.1)">
       <defs>
        <path id="DejaVuSans-34" d="M 2419 4116 
L 825 1625 
L 2419 1625 
L 2419 4116 
z
M 2253 4666 
L 3047 4666 
L 3047 1625 
L 3713 1625 
L 3713 1100 
L 3047 1100 
L 3047 0 
L 2419 0 
L 2419 1100 
L 313 1100 
L 313 1709 
L 2253 4666 
z
" transform="scale(0.015625)"/>
       </defs>
       <use xlink:href="#DejaVuSans-32"/>
       <use xlink:href="#DejaVuSans-34" x="63.623047"/>
      </g>
     </g>
    </g>
    <g id="ytick_6">
     <g id="line2d_6">
      <g>
       <use xlink:href="#m5da61bbebb" x="54.912" y="26.146939" style="stroke: #000000; stroke-width: 0.8"/>
      </g>
     </g>
     <g id="text_6">
      <!-- 26 -->
      <g transform="translate(35.187 29.946158)scale(0.1 -0.1)">
       <use xlink:href="#DejaVuSans-32"/>
       <use xlink:href="#DejaVuSans-36" x="63.623047"/>
      </g>
     </g>
    </g>
   </g>
   <g id="line2d_7">
    <path d="M 82.363247 195.408182 
L 97.636753 180.134675 
" style="fill: none; stroke: #000000; stroke-width: 0.8; stroke-linecap: square"/>
   </g>
   <g id="patch_93">
    <path d="M 54.912 187.289796 
L 54.912 10.8 
" style="fill: none; stroke: #000000; stroke-width: 0.8; stroke-linejoin: miter; stroke-linecap: square"/>
   </g>
  </g>
  <g id="axes_2">
   <g id="patch_94">
    <path d="M 54.912 349.2 
L 709.2 349.2 
L 709.2 203.404082 
L 54.912 203.404082 
z
" style="fill: #ffffff"/>
   </g>
   <g id="patch_95">
    <path d="M 84.652364 349.2 
L 90.371664 349.2 
L 90.371664 100.886531 
L 84.652364 100.886531 
z
" clip-path="url(#p8aa109d417)" style="fill: #1f77b4"/>
   </g>
   <g id="patch_96">
    <path d="M 90.371664 349.2 
L 96.090965 349.2 
L 96.090965 270.930612 
L 90.371664 270.930612 
z
" clip-path="url(#p8aa109d417)" style="fill: #ff7f0e"/>
   </g>
   <g id="patch_97">
    <path d="M 96.090965 349.2 
L 101.810266 349.2 
L 101.810266 84.311837 
L 96.090965 84.311837 
z
" clip-path="url(#p8aa109d417)" style="fill: #2ca02c"/>
   </g>
   <g id="patch_98">
    <path d="M 101.810266 349.2 
L 107.529566 349.2 
L 107.529566 210.463673 
L 101.810266 210.463673 
z
" clip-path="url(#p8aa109d417)" style="fill: #d62728"/>
   </g>
   <g id="patch_99">
    <path d="M 107.529566 349.2 
L 113.248867 349.2 
L 113.248867 -89.262041 
L 107.529566 -89.262041 
z
" clip-path="url(#p8aa109d417)" style="fill: #9467bd"/>
   </g>
   <g id="patch_100">
    <path d="M 113.248867 349.2 
L 118.968168 349.2 
L 118.968168 -36.161633 
L 113.248867 -36.161633 
z
" clip-path="url(#p8aa109d417)" style="fill: #8c564b"/>
   </g>
   <g id="patch_101">
    <path d="M 124.687469 349.2 
L 130.406769 349.2 
L 130.406769 291.64898 
L 124.687469 291.64898 
z
" clip-path="url(#p8aa109d417)" style="fill: #1f77b4"/>
   </g>
   <g id="patch_102">
    <path d="M 130.406769 349.2 
L 136.12607 349.2 
L 136.12607 322.803265 
L 130.406769 322.803265 
z
" clip-path="url(#p8aa109d417)" style="fill: #ff7f0e"/>
   </g>
   <g id="patch_103">
    <path d="M 136.12607 349.2 
L 141.845371 349.2 
L 141.845371 277.222857 
L 136.12607 277.222857 
z
" clip-path="url(#p8aa109d417)" style="fill: #2ca02c"/>
   </g>
   <g id="patch_104">
    <path d="M 141.845371 349.2 
L 147.564671 349.2 
L 147.564671 314.976327 
L 141.845371 314.976327 
z
" clip-path="url(#p8aa109d417)" style="fill: #d62728"/>
   </g>
   <g id="patch_105">
    <path d="M 147.564671 349.2 
L 153.283972 349.2 
L 153.283972 256.50449 
L 147.564671 256.50449 
z
" clip-path="url(#p8aa109d417)" style="fill: #9467bd"/>
   </g>
   <g id="patch_106">
    <path d="M 153.283972 349.2 
L 159.003273 349.2 
L 159.003273 274.306939 
L 153.283972 274.306939 
z
" clip-path="url(#p8aa109d417)" style="fill: #8c564b"/>
   </g>
   <g id="patch_107">
    <path d="M 164.722573 349.2 
L 170.441874 349.2 
L 170.441874 302.698776 
L 164.722573 302.698776 
z
" clip-path="url(#p8aa109d417)" style="fill: #1f77b4"/>
   </g>
   <g id="patch_108">
    <path d="M 170.441874 349.2 
L 176.161175 349.2 
L 176.161175 324.03102 
L 170.441874 324.03102 
z
" clip-path="url(#p8aa109d417)" style="fill: #ff7f0e"/>
   </g>
   <g id="patch_109">
    <path d="M 176.161175 349.2 
L 181.880476 349.2 
L 181.880476 285.510204 
L 176.161175 285.510204 
z
" clip-path="url(#p8aa109d417)" style="fill: #2ca02c"/>
   </g>
   <g id="patch_110">
    <path d="M 181.880476 349.2 
L 187.599776 349.2 
L 187.599776 311.906939 
L 181.880476 311.906939 
z
" clip-path="url(#p8aa109d417)" style="fill: #d62728"/>
   </g>
   <g id="patch_111">
    <path d="M 187.599776 349.2 
L 193.319077 349.2 
L 193.319077 273.846531 
L 187.599776 273.846531 
z
" clip-path="url(#p8aa109d417)" style="fill: #9467bd"/>
   </g>
   <g id="patch_112">
    <path d="M 193.319077 349.2 
L 199.038378 349.2 
L 199.038378 306.53551 
L 193.319077 306.53551 
z
" clip-path="url(#p8aa109d417)" style="fill: #8c564b"/>
   </g>
   <g id="patch_113">
    <path d="M 204.757678 349.2 
L 210.476979 349.2 
L 210.476979 287.198367 
L 204.757678 287.198367 
z
" clip-path="url(#p8aa109d417)" style="fill: #1f77b4"/>
   </g>
   <g id="patch_114">
    <path d="M 210.476979 349.2 
L 216.19628 349.2 
L 216.19628 320.808163 
L 210.476979 320.808163 
z
" clip-path="url(#p8aa109d417)" style="fill: #ff7f0e"/>
   </g>
   <g id="patch_115">
    <path d="M 216.19628 349.2 
L 221.91558 349.2 
L 221.91558 281.366531 
L 216.19628 281.366531 
z
" clip-path="url(#p8aa109d417)" style="fill: #2ca02c"/>
   </g>
   <g id="patch_116">
    <path d="M 221.91558 349.2 
L 227.634881 349.2 
L 227.634881 304.08 
L 221.91558 304.08 
z
" clip-path="url(#p8aa109d417)" style="fill: #d62728"/>
   </g>
   <g id="patch_117">
    <path d="M 227.634881 349.2 
L 233.354182 349.2 
L 233.354182 256.964898 
L 227.634881 256.964898 
z
" clip-path="url(#p8aa109d417)" style="fill: #9467bd"/>
   </g>
   <g id="patch_118">
    <path d="M 233.354182 349.2 
L 239.073483 349.2 
L 239.073483 257.578776 
L 233.354182 257.578776 
z
" clip-path="url(#p8aa109d417)" style="fill: #8c564b"/>
   </g>
   <g id="patch_119">
    <path d="M 244.792783 349.2 
L 250.512084 349.2 
L 250.512084 303.005714 
L 244.792783 303.005714 
z
" clip-path="url(#p8aa109d417)" style="fill: #1f77b4"/>
   </g>
   <g id="patch_120">
    <path d="M 250.512084 349.2 
L 256.231385 349.2 
L 256.231385 321.72898 
L 250.512084 321.72898 
z
" clip-path="url(#p8aa109d417)" style="fill: #ff7f0e"/>
   </g>
   <g id="patch_121">
    <path d="M 256.231385 349.2 
L 261.950685 349.2 
L 261.950685 290.728163 
L 256.231385 290.728163 
z
" clip-path="url(#p8aa109d417)" style="fill: #2ca02c"/>
   </g>
   <g id="patch_122">
    <path d="M 261.950685 349.2 
L 267.669986 349.2 
L 267.669986 308.99102 
L 261.950685 308.99102 
z
" clip-path="url(#p8aa109d417)" style="fill: #d62728"/>
   </g>
   <g id="patch_123">
    <path d="M 267.669986 349.2 
L 273.389287 349.2 
L 273.389287 276.60898 
L 267.669986 276.60898 
z
" clip-path="url(#p8aa109d417)" style="fill: #9467bd"/>
   </g>
   <g id="patch_124">
    <path d="M 273.389287 349.2 
L 279.108587 349.2 
L 279.108587 306.228571 
L 273.389287 306.228571 
z
" clip-path="url(#p8aa109d417)" style="fill: #8c564b"/>
   </g>
   <g id="patch_125">
    <path d="M 284.827888 349.2 
L 290.547189 349.2 
L 290.547189 302.852245 
L 284.827888 302.852245 
z
" clip-path="url(#p8aa109d417)" style="fill: #1f77b4"/>
   </g>
   <g id="patch_126">
    <path d="M 290.547189 349.2 
L 296.26649 349.2 
L 296.26649 313.288163 
L 290.547189 313.288163 
z
" clip-path="url(#p8aa109d417)" style="fill: #ff7f0e"/>
   </g>
   <g id="patch_127">
    <path d="M 296.26649 349.2 
L 301.98579 349.2 
L 301.98579 294.564898 
L 296.26649 294.564898 
z
" clip-path="url(#p8aa109d417)" style="fill: #2ca02c"/>
   </g>
   <g id="patch_128">
    <path d="M 301.98579 349.2 
L 307.705091 349.2 
L 307.705091 301.777959 
L 301.98579 301.777959 
z
" clip-path="url(#p8aa109d417)" style="fill: #d62728"/>
   </g>
   <g id="patch_129">
    <path d="M 307.705091 349.2 
L 313.424392 349.2 
L 313.424392 285.970612 
L 307.705091 285.970612 
z
" clip-path="url(#p8aa109d417)" style="fill: #9467bd"/>
   </g>
   <g id="patch_130">
    <path d="M 313.424392 349.2 
L 319.143692 349.2 
L 319.143692 311.446531 
L 313.424392 311.446531 
z
" clip-path="url(#p8aa109d417)" style="fill: #8c564b"/>
   </g>
   <g id="patch_131">
    <path d="M 324.862993 349.2 
L 330.582294 349.2 
L 330.582294 308.377143 
L 324.862993 308.377143 
z
" clip-path="url(#p8aa109d417)" style="fill: #1f77b4"/>
   </g>
   <g id="patch_132">
    <path d="M 330.582294 349.2 
L 336.301594 349.2 
L 336.301594 320.194286 
L 330.582294 320.194286 
z
" clip-path="url(#p8aa109d417)" style="fill: #ff7f0e"/>
   </g>
   <g id="patch_133">
    <path d="M 336.301594 349.2 
L 342.020895 349.2 
L 342.020895 296.866939 
L 336.301594 296.866939 
z
" clip-path="url(#p8aa109d417)" style="fill: #2ca02c"/>
   </g>
   <g id="patch_134">
    <path d="M 342.020895 349.2 
L 347.740196 349.2 
L 347.740196 299.16898 
L 342.020895 299.16898 
z
" clip-path="url(#p8aa109d417)" style="fill: #d62728"/>
   </g>
   <g id="patch_135">
    <path d="M 347.740196 349.2 
L 353.459497 349.2 
L 353.459497 300.089796 
L 347.740196 300.089796 
z
" clip-path="url(#p8aa109d417)" style="fill: #9467bd"/>
   </g>
   <g id="patch_136">
    <path d="M 353.459497 349.2 
L 359.178797 349.2 
L 359.178797 313.134694 
L 353.459497 313.134694 
z
" clip-path="url(#p8aa109d417)" style="fill: #8c564b"/>
   </g>
   <g id="patch_137">
    <path d="M 364.898098 349.2 
L 370.617399 349.2 
L 370.617399 311.293061 
L 364.898098 311.293061 
z
" clip-path="url(#p8aa109d417)" style="fill: #1f77b4"/>
   </g>
   <g id="patch_138">
    <path d="M 370.617399 349.2 
L 376.336699 349.2 
L 376.336699 324.798367 
L 370.617399 324.798367 
z
" clip-path="url(#p8aa109d417)" style="fill: #ff7f0e"/>
   </g>
   <g id="patch_139">
    <path d="M 376.336699 349.2 
L 382.056 349.2 
L 382.056 305.307755 
L 376.336699 305.307755 
z
" clip-path="url(#p8aa109d417)" style="fill: #2ca02c"/>
   </g>
   <g id="patch_140">
    <path d="M 382.056 349.2 
L 387.775301 349.2 
L 387.775301 307.149388 
L 382.056 307.149388 
z
" clip-path="url(#p8aa109d417)" style="fill: #d62728"/>
   </g>
   <g id="patch_141">
    <path d="M 387.775301 349.2 
L 393.494601 349.2 
L 393.494601 298.555102 
L 387.775301 298.555102 
z
" clip-path="url(#p8aa109d417)" style="fill: #9467bd"/>
   </g>
   <g id="patch_142">
    <path d="M 393.494601 349.2 
L 399.213902 349.2 
L 399.213902 309.911837 
L 393.494601 309.911837 
z
" clip-path="url(#p8aa109d417)" style="fill: #8c564b"/>
   </g>
   <g id="patch_143">
    <path d="M 404.933203 349.2 
L 410.652503 349.2 
L 410.652503 313.595102 
L 404.933203 313.595102 
z
" clip-path="url(#p8aa109d417)" style="fill: #1f77b4"/>
   </g>
   <g id="patch_144">
    <path d="M 410.652503 349.2 
L 416.371804 349.2 
L 416.371804 325.412245 
L 410.652503 325.412245 
z
" clip-path="url(#p8aa109d417)" style="fill: #ff7f0e"/>
   </g>
   <g id="patch_145">
    <path d="M 416.371804 349.2 
L 422.091105 349.2 
L 422.091105 309.451429 
L 416.371804 309.451429 
z
" clip-path="url(#p8aa109d417)" style="fill: #2ca02c"/>
   </g>
   <g id="patch_146">
    <path d="M 422.091105 349.2 
L 427.810406 349.2 
L 427.810406 310.679184 
L 422.091105 310.679184 
z
" clip-path="url(#p8aa109d417)" style="fill: #d62728"/>
   </g>
   <g id="patch_147">
    <path d="M 427.810406 349.2 
L 433.529706 349.2 
L 433.529706 300.857143 
L 427.810406 300.857143 
z
" clip-path="url(#p8aa109d417)" style="fill: #9467bd"/>
   </g>
   <g id="patch_148">
    <path d="M 433.529706 349.2 
L 439.249007 349.2 
L 439.249007 313.441633 
L 433.529706 313.441633 
z
" clip-path="url(#p8aa109d417)" style="fill: #8c564b"/>
   </g>
   <g id="patch_149">
    <path d="M 444.968308 349.2 
L 450.687608 349.2 
L 450.687608 314.822857 
L 444.968308 314.822857 
z
" clip-path="url(#p8aa109d417)" style="fill: #1f77b4"/>
   </g>
   <g id="patch_150">
    <path d="M 450.687608 349.2 
L 456.406909 349.2 
L 456.406909 326.64 
L 450.687608 326.64 
z
" clip-path="url(#p8aa109d417)" style="fill: #ff7f0e"/>
   </g>
   <g id="patch_151">
    <path d="M 456.406909 349.2 
L 462.12621 349.2 
L 462.12621 310.679184 
L 456.406909 310.679184 
z
" clip-path="url(#p8aa109d417)" style="fill: #2ca02c"/>
   </g>
   <g id="patch_152">
    <path d="M 462.12621 349.2 
L 467.84551 349.2 
L 467.84551 309.14449 
L 462.12621 309.14449 
z
" clip-path="url(#p8aa109d417)" style="fill: #d62728"/>
   </g>
   <g id="patch_153">
    <path d="M 467.84551 349.2 
L 473.564811 349.2 
L 473.564811 304.847347 
L 467.84551 304.847347 
z
" clip-path="url(#p8aa109d417)" style="fill: #9467bd"/>
   </g>
   <g id="patch_154">
    <path d="M 473.564811 349.2 
L 479.284112 349.2 
L 479.284112 313.748571 
L 473.564811 313.748571 
z
" clip-path="url(#p8aa109d417)" style="fill: #8c564b"/>
   </g>
   <g id="patch_155">
    <path d="M 485.003413 349.2 
L 490.722713 349.2 
L 490.722713 317.738776 
L 485.003413 317.738776 
z
" clip-path="url(#p8aa109d417)" style="fill: #1f77b4"/>
   </g>
   <g id="patch_156">
    <path d="M 490.722713 349.2 
L 496.442014 349.2 
L 496.442014 329.09551 
L 490.722713 329.09551 
z
" clip-path="url(#p8aa109d417)" style="fill: #ff7f0e"/>
   </g>
   <g id="patch_157">
    <path d="M 496.442014 349.2 
L 502.161315 349.2 
L 502.161315 311.906939 
L 496.442014 311.906939 
z
" clip-path="url(#p8aa109d417)" style="fill: #2ca02c"/>
   </g>
   <g id="patch_158">
    <path d="M 502.161315 349.2 
L 507.880615 349.2 
L 507.880615 313.902041 
L 502.161315 313.902041 
z
" clip-path="url(#p8aa109d417)" style="fill: #d62728"/>
   </g>
   <g id="patch_159">
    <path d="M 507.880615 349.2 
L 513.599916 349.2 
L 513.599916 306.53551 
L 507.880615 306.53551 
z
" clip-path="url(#p8aa109d417)" style="fill: #9467bd"/>
   </g>
   <g id="patch_160">
    <path d="M 513.599916 349.2 
L 519.319217 349.2 
L 519.319217 318.506122 
L 513.599916 318.506122 
z
" clip-path="url(#p8aa109d417)" style="fill: #8c564b"/>
   </g>
   <g id="patch_161">
    <path d="M 525.038517 349.2 
L 530.757818 349.2 
L 530.757818 288.886531 
L 525.038517 288.886531 
z
" clip-path="url(#p8aa109d417)" style="fill: #1f77b4"/>
   </g>
   <g id="patch_162">
    <path d="M 530.757818 349.2 
L 536.477119 349.2 
L 536.477119 310.679184 
L 530.757818 310.679184 
z
" clip-path="url(#p8aa109d417)" style="fill: #ff7f0e"/>
   </g>
   <g id="patch_163">
    <path d="M 536.477119 349.2 
L 542.19642 349.2 
L 542.19642 252.821224 
L 536.477119 252.821224 
z
" clip-path="url(#p8aa109d417)" style="fill: #2ca02c"/>
   </g>
   <g id="patch_164">
    <path d="M 542.19642 349.2 
L 547.91572 349.2 
L 547.91572 274 
L 542.19642 274 
z
" clip-path="url(#p8aa109d417)" style="fill: #d62728"/>
   </g>
   <g id="patch_165">
    <path d="M 547.91572 349.2 
L 553.635021 349.2 
L 553.635021 291.188571 
L 547.91572 291.188571 
z
" clip-path="url(#p8aa109d417)" style="fill: #9467bd"/>
   </g>
   <g id="patch_166">
    <path d="M 553.635021 349.2 
L 559.354322 349.2 
L 559.354322 291.188571 
L 553.635021 291.188571 
z
" clip-path="url(#p8aa109d417)" style="fill: #8c564b"/>
   </g>
   <g id="patch_167">
    <path d="M 565.073622 349.2 
L 570.792923 349.2 
L 570.792923 301.931429 
L 565.073622 301.931429 
z
" clip-path="url(#p8aa109d417)" style="fill: #1f77b4"/>
   </g>
   <g id="patch_168">
    <path d="M 570.792923 349.2 
L 576.512224 349.2 
L 576.512224 320.347755 
L 570.792923 320.347755 
z
" clip-path="url(#p8aa109d417)" style="fill: #ff7f0e"/>
   </g>
   <g id="patch_169">
    <path d="M 576.512224 349.2 
L 582.231524 349.2 
L 582.231524 282.901224 
L 576.512224 282.901224 
z
" clip-path="url(#p8aa109d417)" style="fill: #2ca02c"/>
   </g>
   <g id="patch_170">
    <path d="M 582.231524 349.2 
L 587.950825 349.2 
L 587.950825 302.545306 
L 582.231524 302.545306 
z
" clip-path="url(#p8aa109d417)" style="fill: #d62728"/>
   </g>
   <g id="patch_171">
    <path d="M 587.950825 349.2 
L 593.670126 349.2 
L 593.670126 289.04 
L 587.950825 289.04 
z
" clip-path="url(#p8aa109d417)" style="fill: #9467bd"/>
   </g>
   <g id="patch_172">
    <path d="M 593.670126 349.2 
L 599.389427 349.2 
L 599.389427 300.857143 
L 593.670126 300.857143 
z
" clip-path="url(#p8aa109d417)" style="fill: #8c564b"/>
   </g>
   <g id="patch_173">
    <path d="M 605.108727 349.2 
L 610.828028 349.2 
L 610.828028 315.590204 
L 605.108727 315.590204 
z
" clip-path="url(#p8aa109d417)" style="fill: #1f77b4"/>
   </g>
   <g id="patch_174">
    <path d="M 610.828028 349.2 
L 616.547329 349.2 
L 616.547329 327.560816 
L 610.828028 327.560816 
z
" clip-path="url(#p8aa109d417)" style="fill: #ff7f0e"/>
   </g>
   <g id="patch_175">
    <path d="M 616.547329 349.2 
L 622.266629 349.2 
L 622.266629 309.604898 
L 616.547329 309.604898 
z
" clip-path="url(#p8aa109d417)" style="fill: #2ca02c"/>
   </g>
   <g id="patch_176">
    <path d="M 622.266629 349.2 
L 627.98593 349.2 
L 627.98593 318.659592 
L 622.266629 318.659592 
z
" clip-path="url(#p8aa109d417)" style="fill: #d62728"/>
   </g>
   <g id="patch_177">
    <path d="M 627.98593 349.2 
L 633.705231 349.2 
L 633.705231 311.6 
L 627.98593 311.6 
z
" clip-path="url(#p8aa109d417)" style="fill: #9467bd"/>
   </g>
   <g id="patch_178">
    <path d="M 633.705231 349.2 
L 639.424531 349.2 
L 639.424531 303.312653 
L 633.705231 303.312653 
z
" clip-path="url(#p8aa109d417)" style="fill: #8c564b"/>
   </g>
   <g id="patch_179">
    <path d="M 645.143832 349.2 
L 650.863133 349.2 
L 650.863133 314.976327 
L 645.143832 314.976327 
z
" clip-path="url(#p8aa109d417)" style="fill: #1f77b4"/>
   </g>
   <g id="patch_180">
    <path d="M 650.863133 349.2 
L 656.582434 349.2 
L 656.582434 321.57551 
L 650.863133 321.57551 
z
" clip-path="url(#p8aa109d417)" style="fill: #ff7f0e"/>
   </g>
   <g id="patch_181">
    <path d="M 656.582434 349.2 
L 662.301734 349.2 
L 662.301734 302.698776 
L 656.582434 302.698776 
z
" clip-path="url(#p8aa109d417)" style="fill: #2ca02c"/>
   </g>
   <g id="patch_182">
    <path d="M 662.301734 349.2 
L 668.021035 349.2 
L 668.021035 316.817959 
L 662.301734 316.817959 
z
" clip-path="url(#p8aa109d417)" style="fill: #d62728"/>
   </g>
   <g id="patch_183">
    <path d="M 668.021035 349.2 
L 673.740336 349.2 
L 673.740336 313.441633 
L 668.021035 313.441633 
z
" clip-path="url(#p8aa109d417)" style="fill: #9467bd"/>
   </g>
   <g id="patch_184">
    <path d="M 673.740336 349.2 
L 679.459636 349.2 
L 679.459636 314.976327 
L 673.740336 314.976327 
z
" clip-path="url(#p8aa109d417)" style="fill: #8c564b"/>
   </g>
   <g id="matplotlib.axis_3">
    <g id="xtick_9">
     <g id="line2d_8">
      <defs>
       <path id="m926c425ec2" d="M 0 0 
L 0 3.5 
" style="stroke: #000000; stroke-width: 0.8"/>
      </defs>
      <g>
       <use xlink:href="#m926c425ec2" x="107.529566" y="349.2" style="stroke: #000000; stroke-width: 0.8"/>
      </g>
     </g>
     <g id="text_7">
      <!-- B3LYP -->
      <g transform="translate(110.288941 385.807813)rotate(-90)scale(0.1 -0.1)">
       <defs>
        <path id="DejaVuSans-42" d="M 1259 2228 
L 1259 519 
L 2272 519 
Q 2781 519 3026 730 
Q 3272 941 3272 1375 
Q 3272 1813 3026 2020 
Q 2781 2228 2272 2228 
L 1259 2228 
z
M 1259 4147 
L 1259 2741 
L 2194 2741 
Q 2656 2741 2882 2914 
Q 3109 3088 3109 3444 
Q 3109 3797 2882 3972 
Q 2656 4147 2194 4147 
L 1259 4147 
z
M 628 4666 
L 2241 4666 
Q 2963 4666 3353 4366 
Q 3744 4066 3744 3513 
Q 3744 3084 3544 2831 
Q 3344 2578 2956 2516 
Q 3422 2416 3680 2098 
Q 3938 1781 3938 1306 
Q 3938 681 3513 340 
Q 3088 0 2303 0 
L 628 0 
L 628 4666 
z
" transform="scale(0.015625)"/>
        <path id="DejaVuSans-33" d="M 2597 2516 
Q 3050 2419 3304 2112 
Q 3559 1806 3559 1356 
Q 3559 666 3084 287 
Q 2609 -91 1734 -91 
Q 1441 -91 1130 -33 
Q 819 25 488 141 
L 488 750 
Q 750 597 1062 519 
Q 1375 441 1716 441 
Q 2309 441 2620 675 
Q 2931 909 2931 1356 
Q 2931 1769 2642 2001 
Q 2353 2234 1838 2234 
L 1294 2234 
L 1294 2753 
L 1863 2753 
Q 2328 2753 2575 2939 
Q 2822 3125 2822 3475 
Q 2822 3834 2567 4026 
Q 2313 4219 1838 4219 
Q 1578 4219 1281 4162 
Q 984 4106 628 3988 
L 628 4550 
Q 988 4650 1302 4700 
Q 1616 4750 1894 4750 
Q 2613 4750 3031 4423 
Q 3450 4097 3450 3541 
Q 3450 3153 3228 2886 
Q 3006 2619 2597 2516 
z
" transform="scale(0.015625)"/>
        <path id="DejaVuSans-4c" d="M 628 4666 
L 1259 4666 
L 1259 531 
L 3531 531 
L 3531 0 
L 628 0 
L 628 4666 
z
" transform="scale(0.015625)"/>
        <path id="DejaVuSans-59" d="M -13 4666 
L 666 4666 
L 1959 2747 
L 3244 4666 
L 3922 4666 
L 2272 2222 
L 2272 0 
L 1638 0 
L 1638 2222 
L -13 4666 
z
" transform="scale(0.015625)"/>
        <path id="DejaVuSans-50" d="M 1259 4147 
L 1259 2394 
L 2053 2394 
Q 2494 2394 2734 2622 
Q 2975 2850 2975 3272 
Q 2975 3691 2734 3919 
Q 2494 4147 2053 4147 
L 1259 4147 
z
M 628 4666 
L 2053 4666 
Q 2838 4666 3239 4311 
Q 3641 3956 3641 3272 
Q 3641 2581 3239 2228 
Q 2838 1875 2053 1875 
L 1259 1875 
L 1259 0 
L 628 0 
L 628 4666 
z
" transform="scale(0.015625)"/>
       </defs>
       <use xlink:href="#DejaVuSans-42"/>
       <use xlink:href="#DejaVuSans-33" x="68.603516"/>
       <use xlink:href="#DejaVuSans-4c" x="132.226562"/>
       <use xlink:href="#DejaVuSans-59" x="174.689453"/>
       <use xlink:href="#DejaVuSans-50" x="235.773438"/>
      </g>
     </g>
    </g>
    <g id="xtick_10">
     <g id="line2d_9">
      <g>
       <use xlink:href="#m926c425ec2" x="147.564671" y="349.2" style="stroke: #000000; stroke-width: 0.8"/>
      </g>
     </g>
     <g id="text_8">
      <!-- XYG3 -->
      <g transform="translate(150.324046 383.26875)rotate(-90)scale(0.1 -0.1)">
       <defs>
        <path id="DejaVuSans-58" d="M 403 4666 
L 1081 4666 
L 2241 2931 
L 3406 4666 
L 4084 4666 
L 2584 2425 
L 4184 0 
L 3506 0 
L 2194 1984 
L 872 0 
L 191 0 
L 1856 2491 
L 403 4666 
z
" transform="scale(0.015625)"/>
        <path id="DejaVuSans-47" d="M 3809 666 
L 3809 1919 
L 2778 1919 
L 2778 2438 
L 4434 2438 
L 4434 434 
Q 4069 175 3628 42 
Q 3188 -91 2688 -91 
Q 1594 -91 976 548 
Q 359 1188 359 2328 
Q 359 3472 976 4111 
Q 1594 4750 2688 4750 
Q 3144 4750 3555 4637 
Q 3966 4525 4313 4306 
L 4313 3634 
Q 3963 3931 3569 4081 
Q 3175 4231 2741 4231 
Q 1884 4231 1454 3753 
Q 1025 3275 1025 2328 
Q 1025 1384 1454 906 
Q 1884 428 2741 428 
Q 3075 428 3337 486 
Q 3600 544 3809 666 
z
" transform="scale(0.015625)"/>
       </defs>
       <use xlink:href="#DejaVuSans-58"/>
       <use xlink:href="#DejaVuSans-59" x="68.505859"/>
       <use xlink:href="#DejaVuSans-47" x="129.589844"/>
       <use xlink:href="#DejaVuSans-33" x="207.080078"/>
      </g>
     </g>
    </g>
    <g id="xtick_11">
     <g id="line2d_10">
      <g>
       <use xlink:href="#m926c425ec2" x="187.599776" y="349.2" style="stroke: #000000; stroke-width: 0.8"/>
      </g>
     </g>
     <g id="text_9">
      <!-- lrc-XYG3 -->
      <g transform="translate(190.359151 398.539063)rotate(-90)scale(0.1 -0.1)">
       <defs>
        <path id="DejaVuSans-6c" d="M 603 4863 
L 1178 4863 
L 1178 0 
L 603 0 
L 603 4863 
z
" transform="scale(0.015625)"/>
        <path id="DejaVuSans-72" d="M 2631 2963 
Q 2534 3019 2420 3045 
Q 2306 3072 2169 3072 
Q 1681 3072 1420 2755 
Q 1159 2438 1159 1844 
L 1159 0 
L 581 0 
L 581 3500 
L 1159 3500 
L 1159 2956 
Q 1341 3275 1631 3429 
Q 1922 3584 2338 3584 
Q 2397 3584 2469 3576 
Q 2541 3569 2628 3553 
L 2631 2963 
z
" transform="scale(0.015625)"/>
        <path id="DejaVuSans-63" d="M 3122 3366 
L 3122 2828 
Q 2878 2963 2633 3030 
Q 2388 3097 2138 3097 
Q 1578 3097 1268 2742 
Q 959 2388 959 1747 
Q 959 1106 1268 751 
Q 1578 397 2138 397 
Q 2388 397 2633 464 
Q 2878 531 3122 666 
L 3122 134 
Q 2881 22 2623 -34 
Q 2366 -91 2075 -91 
Q 1284 -91 818 406 
Q 353 903 353 1747 
Q 353 2603 823 3093 
Q 1294 3584 2113 3584 
Q 2378 3584 2631 3529 
Q 2884 3475 3122 3366 
z
" transform="scale(0.015625)"/>
        <path id="DejaVuSans-2d" d="M 313 2009 
L 1997 2009 
L 1997 1497 
L 313 1497 
L 313 2009 
z
" transform="scale(0.015625)"/>
       </defs>
       <use xlink:href="#DejaVuSans-6c"/>
       <use xlink:href="#DejaVuSans-72" x="27.783203"/>
       <use xlink:href="#DejaVuSans-63" x="66.646484"/>
       <use xlink:href="#DejaVuSans-2d" x="121.626953"/>
       <use xlink:href="#DejaVuSans-58" x="152.710938"/>
       <use xlink:href="#DejaVuSans-59" x="221.216797"/>
       <use xlink:href="#DejaVuSans-47" x="282.300781"/>
       <use xlink:href="#DejaVuSans-33" x="359.791016"/>
      </g>
     </g>
    </g>
    <g id="xtick_12">
     <g id="line2d_11">
      <g>
       <use xlink:href="#m926c425ec2" x="227.634881" y="349.2" style="stroke: #000000; stroke-width: 0.8"/>
      </g>
     </g>
     <g id="text_10">
      <!-- XYGJ-OS -->
      <g transform="translate(230.394256 397.596875)rotate(-90)scale(0.1 -0.1)">
       <defs>
        <path id="DejaVuSans-4a" d="M 628 4666 
L 1259 4666 
L 1259 325 
Q 1259 -519 939 -900 
Q 619 -1281 -91 -1281 
L -331 -1281 
L -331 -750 
L -134 -750 
Q 284 -750 456 -515 
Q 628 -281 628 325 
L 628 4666 
z
" transform="scale(0.015625)"/>
        <path id="DejaVuSans-4f" d="M 2522 4238 
Q 1834 4238 1429 3725 
Q 1025 3213 1025 2328 
Q 1025 1447 1429 934 
Q 1834 422 2522 422 
Q 3209 422 3611 934 
Q 4013 1447 4013 2328 
Q 4013 3213 3611 3725 
Q 3209 4238 2522 4238 
z
M 2522 4750 
Q 3503 4750 4090 4092 
Q 4678 3434 4678 2328 
Q 4678 1225 4090 567 
Q 3503 -91 2522 -91 
Q 1538 -91 948 565 
Q 359 1222 359 2328 
Q 359 3434 948 4092 
Q 1538 4750 2522 4750 
z
" transform="scale(0.015625)"/>
        <path id="DejaVuSans-53" d="M 3425 4513 
L 3425 3897 
Q 3066 4069 2747 4153 
Q 2428 4238 2131 4238 
Q 1616 4238 1336 4038 
Q 1056 3838 1056 3469 
Q 1056 3159 1242 3001 
Q 1428 2844 1947 2747 
L 2328 2669 
Q 3034 2534 3370 2195 
Q 3706 1856 3706 1288 
Q 3706 609 3251 259 
Q 2797 -91 1919 -91 
Q 1588 -91 1214 -16 
Q 841 59 441 206 
L 441 856 
Q 825 641 1194 531 
Q 1563 422 1919 422 
Q 2459 422 2753 634 
Q 3047 847 3047 1241 
Q 3047 1584 2836 1778 
Q 2625 1972 2144 2069 
L 1759 2144 
Q 1053 2284 737 2584 
Q 422 2884 422 3419 
Q 422 4038 858 4394 
Q 1294 4750 2059 4750 
Q 2388 4750 2728 4690 
Q 3069 4631 3425 4513 
z
" transform="scale(0.015625)"/>
       </defs>
       <use xlink:href="#DejaVuSans-58"/>
       <use xlink:href="#DejaVuSans-59" x="68.505859"/>
       <use xlink:href="#DejaVuSans-47" x="129.589844"/>
       <use xlink:href="#DejaVuSans-4a" x="207.080078"/>
       <use xlink:href="#DejaVuSans-2d" x="232.947266"/>
       <use xlink:href="#DejaVuSans-4f" x="271.78125"/>
       <use xlink:href="#DejaVuSans-53" x="350.492188"/>
      </g>
     </g>
    </g>
    <g id="xtick_13">
     <g id="line2d_12">
      <g>
       <use xlink:href="#m926c425ec2" x="267.669986" y="349.2" style="stroke: #000000; stroke-width: 0.8"/>
      </g>
     </g>
     <g id="text_11">
      <!-- lrc-XYGJ-OS -->
      <g transform="translate(270.429361 412.867188)rotate(-90)scale(0.1 -0.1)">
       <use xlink:href="#DejaVuSans-6c"/>
       <use xlink:href="#DejaVuSans-72" x="27.783203"/>
       <use xlink:href="#DejaVuSans-63" x="66.646484"/>
       <use xlink:href="#DejaVuSans-2d" x="121.626953"/>
       <use xlink:href="#DejaVuSans-58" x="152.710938"/>
       <use xlink:href="#DejaVuSans-59" x="221.216797"/>
       <use xlink:href="#DejaVuSans-47" x="282.300781"/>
       <use xlink:href="#DejaVuSans-4a" x="359.791016"/>
       <use xlink:href="#DejaVuSans-2d" x="385.658203"/>
       <use xlink:href="#DejaVuSans-4f" x="424.492188"/>
       <use xlink:href="#DejaVuSans-53" x="503.203125"/>
      </g>
     </g>
    </g>
    <g id="xtick_14">
     <g id="line2d_13">
      <g>
       <use xlink:href="#m926c425ec2" x="307.705091" y="349.2" style="stroke: #000000; stroke-width: 0.8"/>
      </g>
     </g>
     <g id="text_12">
      <!-- revXYGJ-OS -->
      <g transform="translate(310.464466 413.554688)rotate(-90)scale(0.1 -0.1)">
       <defs>
        <path id="DejaVuSans-65" d="M 3597 1894 
L 3597 1613 
L 953 1613 
Q 991 1019 1311 708 
Q 1631 397 2203 397 
Q 2534 397 2845 478 
Q 3156 559 3463 722 
L 3463 178 
Q 3153 47 2828 -22 
Q 2503 -91 2169 -91 
Q 1331 -91 842 396 
Q 353 884 353 1716 
Q 353 2575 817 3079 
Q 1281 3584 2069 3584 
Q 2775 3584 3186 3129 
Q 3597 2675 3597 1894 
z
M 3022 2063 
Q 3016 2534 2758 2815 
Q 2500 3097 2075 3097 
Q 1594 3097 1305 2825 
Q 1016 2553 972 2059 
L 3022 2063 
z
" transform="scale(0.015625)"/>
        <path id="DejaVuSans-76" d="M 191 3500 
L 800 3500 
L 1894 563 
L 2988 3500 
L 3597 3500 
L 2284 0 
L 1503 0 
L 191 3500 
z
" transform="scale(0.015625)"/>
       </defs>
       <use xlink:href="#DejaVuSans-72"/>
       <use xlink:href="#DejaVuSans-65" x="38.863281"/>
       <use xlink:href="#DejaVuSans-76" x="100.386719"/>
       <use xlink:href="#DejaVuSans-58" x="159.566406"/>
       <use xlink:href="#DejaVuSans-59" x="228.072266"/>
       <use xlink:href="#DejaVuSans-47" x="289.15625"/>
       <use xlink:href="#DejaVuSans-4a" x="366.646484"/>
       <use xlink:href="#DejaVuSans-2d" x="392.513672"/>
       <use xlink:href="#DejaVuSans-4f" x="431.347656"/>
       <use xlink:href="#DejaVuSans-53" x="510.058594"/>
      </g>
     </g>
    </g>
    <g id="xtick_15">
     <g id="line2d_14">
      <g>
       <use xlink:href="#m926c425ec2" x="347.740196" y="349.2" style="stroke: #000000; stroke-width: 0.8"/>
      </g>
     </g>
     <g id="text_13">
      <!-- XYG-OS5 -->
      <g transform="translate(350.499571 401.371875)rotate(-90)scale(0.1 -0.1)">
       <defs>
        <path id="DejaVuSans-35" d="M 691 4666 
L 3169 4666 
L 3169 4134 
L 1269 4134 
L 1269 2991 
Q 1406 3038 1543 3061 
Q 1681 3084 1819 3084 
Q 2600 3084 3056 2656 
Q 3513 2228 3513 1497 
Q 3513 744 3044 326 
Q 2575 -91 1722 -91 
Q 1428 -91 1123 -41 
Q 819 9 494 109 
L 494 744 
Q 775 591 1075 516 
Q 1375 441 1709 441 
Q 2250 441 2565 725 
Q 2881 1009 2881 1497 
Q 2881 1984 2565 2268 
Q 2250 2553 1709 2553 
Q 1456 2553 1204 2497 
Q 953 2441 691 2322 
L 691 4666 
z
" transform="scale(0.015625)"/>
       </defs>
       <use xlink:href="#DejaVuSans-58"/>
       <use xlink:href="#DejaVuSans-59" x="68.505859"/>
       <use xlink:href="#DejaVuSans-47" x="129.589844"/>
       <use xlink:href="#DejaVuSans-2d" x="207.080078"/>
       <use xlink:href="#DejaVuSans-4f" x="245.914062"/>
       <use xlink:href="#DejaVuSans-53" x="324.625"/>
       <use xlink:href="#DejaVuSans-35" x="388.101562"/>
      </g>
     </g>
    </g>
    <g id="xtick_16">
     <g id="line2d_15">
      <g>
       <use xlink:href="#m926c425ec2" x="387.775301" y="349.2" style="stroke: #000000; stroke-width: 0.8"/>
      </g>
     </g>
     <g id="text_14">
      <!-- revXYG3 -->
      <g transform="translate(390.534676 399.226563)rotate(-90)scale(0.1 -0.1)">
       <use xlink:href="#DejaVuSans-72"/>
       <use xlink:href="#DejaVuSans-65" x="38.863281"/>
       <use xlink:href="#DejaVuSans-76" x="100.386719"/>
       <use xlink:href="#DejaVuSans-58" x="159.566406"/>
       <use xlink:href="#DejaVuSans-59" x="228.072266"/>
       <use xlink:href="#DejaVuSans-47" x="289.15625"/>
       <use xlink:href="#DejaVuSans-33" x="366.646484"/>
      </g>
     </g>
    </g>
    <g id="xtick_17">
     <g id="line2d_16">
      <g>
       <use xlink:href="#m926c425ec2" x="427.810406" y="349.2" style="stroke: #000000; stroke-width: 0.8"/>
      </g>
     </g>
     <g id="text_15">
      <!-- XYG5 -->
      <g transform="translate(430.569781 383.26875)rotate(-90)scale(0.1 -0.1)">
       <use xlink:href="#DejaVuSans-58"/>
       <use xlink:href="#DejaVuSans-59" x="68.505859"/>
       <use xlink:href="#DejaVuSans-47" x="129.589844"/>
       <use xlink:href="#DejaVuSans-35" x="207.080078"/>
      </g>
     </g>
    </g>
    <g id="xtick_18">
     <g id="line2d_17">
      <g>
       <use xlink:href="#m926c425ec2" x="467.84551" y="349.2" style="stroke: #000000; stroke-width: 0.8"/>
      </g>
     </g>
     <g id="text_16">
      <!-- XYG6 -->
      <g transform="translate(470.604885 383.26875)rotate(-90)scale(0.1 -0.1)">
       <use xlink:href="#DejaVuSans-58"/>
       <use xlink:href="#DejaVuSans-59" x="68.505859"/>
       <use xlink:href="#DejaVuSans-47" x="129.589844"/>
       <use xlink:href="#DejaVuSans-36" x="207.080078"/>
      </g>
     </g>
    </g>
    <g id="xtick_19">
     <g id="line2d_18">
      <g>
       <use xlink:href="#m926c425ec2" x="507.880615" y="349.2" style="stroke: #000000; stroke-width: 0.8"/>
      </g>
     </g>
     <g id="text_17">
      <!-- XYG7 -->
      <g transform="translate(510.63999 383.26875)rotate(-90)scale(0.1 -0.1)">
       <defs>
        <path id="DejaVuSans-37" d="M 525 4666 
L 3525 4666 
L 3525 4397 
L 1831 0 
L 1172 0 
L 2766 4134 
L 525 4134 
L 525 4666 
z
" transform="scale(0.015625)"/>
       </defs>
       <use xlink:href="#DejaVuSans-58"/>
       <use xlink:href="#DejaVuSans-59" x="68.505859"/>
       <use xlink:href="#DejaVuSans-47" x="129.589844"/>
       <use xlink:href="#DejaVuSans-37" x="207.080078"/>
      </g>
     </g>
    </g>
    <g id="xtick_20">
     <g id="line2d_19">
      <g>
       <use xlink:href="#m926c425ec2" x="547.91572" y="349.2" style="stroke: #000000; stroke-width: 0.8"/>
      </g>
     </g>
     <g id="text_18">
      <!-- B2PLYP-D3 -->
      <g transform="translate(550.675095 409.282813)rotate(-90)scale(0.1 -0.1)">
       <defs>
        <path id="DejaVuSans-44" d="M 1259 4147 
L 1259 519 
L 2022 519 
Q 2988 519 3436 956 
Q 3884 1394 3884 2338 
Q 3884 3275 3436 3711 
Q 2988 4147 2022 4147 
L 1259 4147 
z
M 628 4666 
L 1925 4666 
Q 3281 4666 3915 4102 
Q 4550 3538 4550 2338 
Q 4550 1131 3912 565 
Q 3275 0 1925 0 
L 628 0 
L 628 4666 
z
" transform="scale(0.015625)"/>
       </defs>
       <use xlink:href="#DejaVuSans-42"/>
       <use xlink:href="#DejaVuSans-32" x="68.603516"/>
       <use xlink:href="#DejaVuSans-50" x="132.226562"/>
       <use xlink:href="#DejaVuSans-4c" x="192.529297"/>
       <use xlink:href="#DejaVuSans-59" x="234.992188"/>
       <use xlink:href="#DejaVuSans-50" x="296.076172"/>
       <use xlink:href="#DejaVuSans-2d" x="354.128906"/>
       <use xlink:href="#DejaVuSans-44" x="390.212891"/>
       <use xlink:href="#DejaVuSans-33" x="467.214844"/>
      </g>
     </g>
    </g>
    <g id="xtick_21">
     <g id="line2d_20">
      <g>
       <use xlink:href="#m926c425ec2" x="587.950825" y="349.2" style="stroke: #000000; stroke-width: 0.8"/>
      </g>
     </g>
     <g id="text_19">
      <!-- DSD-BLYP-D3 -->
      <g transform="translate(590.7102 421.884375)rotate(-90)scale(0.1 -0.1)">
       <use xlink:href="#DejaVuSans-44"/>
       <use xlink:href="#DejaVuSans-53" x="77.001953"/>
       <use xlink:href="#DejaVuSans-44" x="140.478516"/>
       <use xlink:href="#DejaVuSans-2d" x="217.480469"/>
       <use xlink:href="#DejaVuSans-42" x="249.939453"/>
       <use xlink:href="#DejaVuSans-4c" x="318.542969"/>
       <use xlink:href="#DejaVuSans-59" x="361.005859"/>
       <use xlink:href="#DejaVuSans-50" x="422.089844"/>
       <use xlink:href="#DejaVuSans-2d" x="480.142578"/>
       <use xlink:href="#DejaVuSans-44" x="516.226562"/>
       <use xlink:href="#DejaVuSans-33" x="593.228516"/>
      </g>
     </g>
    </g>
    <g id="xtick_22">
     <g id="line2d_21">
      <g>
       <use xlink:href="#m926c425ec2" x="627.98593" y="349.2" style="stroke: #000000; stroke-width: 0.8"/>
      </g>
     </g>
     <g id="text_20">
      <!-- $\omega$B97M(2) -->
      <g transform="translate(630.745305 407)rotate(-90)scale(0.1 -0.1)">
       <defs>
        <path id="DejaVuSans-Oblique-3c9" d="M 1369 -91 
Q 72 -91 434 1766 
Q 575 2500 1256 3500 
L 1875 3500 
Q 1231 2500 1088 1750 
Q 819 397 1519 397 
Q 2166 397 2478 2078 
L 3009 2078 
Q 2669 388 3316 397 
Q 4013 403 4275 1750 
Q 4419 2500 4169 3500 
L 4788 3500 
Q 5075 2500 4934 1766 
Q 4578 -94 3278 -91 
Q 2428 -88 2503 844 
Q 2194 -91 1369 -91 
z
" transform="scale(0.015625)"/>
        <path id="DejaVuSans-39" d="M 703 97 
L 703 672 
Q 941 559 1184 500 
Q 1428 441 1663 441 
Q 2288 441 2617 861 
Q 2947 1281 2994 2138 
Q 2813 1869 2534 1725 
Q 2256 1581 1919 1581 
Q 1219 1581 811 2004 
Q 403 2428 403 3163 
Q 403 3881 828 4315 
Q 1253 4750 1959 4750 
Q 2769 4750 3195 4129 
Q 3622 3509 3622 2328 
Q 3622 1225 3098 567 
Q 2575 -91 1691 -91 
Q 1453 -91 1209 -44 
Q 966 3 703 97 
z
M 1959 2075 
Q 2384 2075 2632 2365 
Q 2881 2656 2881 3163 
Q 2881 3666 2632 3958 
Q 2384 4250 1959 4250 
Q 1534 4250 1286 3958 
Q 1038 3666 1038 3163 
Q 1038 2656 1286 2365 
Q 1534 2075 1959 2075 
z
" transform="scale(0.015625)"/>
        <path id="DejaVuSans-4d" d="M 628 4666 
L 1569 4666 
L 2759 1491 
L 3956 4666 
L 4897 4666 
L 4897 0 
L 4281 0 
L 4281 4097 
L 3078 897 
L 2444 897 
L 1241 4097 
L 1241 0 
L 628 0 
L 628 4666 
z
" transform="scale(0.015625)"/>
        <path id="DejaVuSans-28" d="M 1984 4856 
Q 1566 4138 1362 3434 
Q 1159 2731 1159 2009 
Q 1159 1288 1364 580 
Q 1569 -128 1984 -844 
L 1484 -844 
Q 1016 -109 783 600 
Q 550 1309 550 2009 
Q 550 2706 781 3412 
Q 1013 4119 1484 4856 
L 1984 4856 
z
" transform="scale(0.015625)"/>
        <path id="DejaVuSans-29" d="M 513 4856 
L 1013 4856 
Q 1481 4119 1714 3412 
Q 1947 2706 1947 2009 
Q 1947 1309 1714 600 
Q 1481 -109 1013 -844 
L 513 -844 
Q 928 -128 1133 580 
Q 1338 1288 1338 2009 
Q 1338 2731 1133 3434 
Q 928 4138 513 4856 
z
" transform="scale(0.015625)"/>
       </defs>
       <use xlink:href="#DejaVuSans-Oblique-3c9" transform="translate(0 0.125)"/>
       <use xlink:href="#DejaVuSans-42" transform="translate(83.740234 0.125)"/>
       <use xlink:href="#DejaVuSans-39" transform="translate(152.34375 0.125)"/>
       <use xlink:href="#DejaVuSans-37" transform="translate(215.966797 0.125)"/>
       <use xlink:href="#DejaVuSans-4d" transform="translate(279.589844 0.125)"/>
       <use xlink:href="#DejaVuSans-28" transform="translate(365.869141 0.125)"/>
       <use xlink:href="#DejaVuSans-32" transform="translate(404.882812 0.125)"/>
       <use xlink:href="#DejaVuSans-29" transform="translate(468.505859 0.125)"/>
      </g>
     </g>
    </g>
    <g id="xtick_23">
     <g id="line2d_22">
      <g>
       <use xlink:href="#m926c425ec2" x="668.021035" y="349.2" style="stroke: #000000; stroke-width: 0.8"/>
      </g>
     </g>
     <g id="text_21">
      <!-- xrevDSD-PBEB86-D4 -->
      <g transform="translate(670.78041 459.898438)rotate(-90)scale(0.1 -0.1)">
       <defs>
        <path id="DejaVuSans-78" d="M 3513 3500 
L 2247 1797 
L 3578 0 
L 2900 0 
L 1881 1375 
L 863 0 
L 184 0 
L 1544 1831 
L 300 3500 
L 978 3500 
L 1906 2253 
L 2834 3500 
L 3513 3500 
z
" transform="scale(0.015625)"/>
        <path id="DejaVuSans-45" d="M 628 4666 
L 3578 4666 
L 3578 4134 
L 1259 4134 
L 1259 2753 
L 3481 2753 
L 3481 2222 
L 1259 2222 
L 1259 531 
L 3634 531 
L 3634 0 
L 628 0 
L 628 4666 
z
" transform="scale(0.015625)"/>
       </defs>
       <use xlink:href="#DejaVuSans-78"/>
       <use xlink:href="#DejaVuSans-72" x="59.179688"/>
       <use xlink:href="#DejaVuSans-65" x="98.042969"/>
       <use xlink:href="#DejaVuSans-76" x="159.566406"/>
       <use xlink:href="#DejaVuSans-44" x="218.746094"/>
       <use xlink:href="#DejaVuSans-53" x="295.748047"/>
       <use xlink:href="#DejaVuSans-44" x="359.224609"/>
       <use xlink:href="#DejaVuSans-2d" x="436.226562"/>
       <use xlink:href="#DejaVuSans-50" x="472.310547"/>
       <use xlink:href="#DejaVuSans-42" x="532.613281"/>
       <use xlink:href="#DejaVuSans-45" x="601.216797"/>
       <use xlink:href="#DejaVuSans-42" x="664.400391"/>
       <use xlink:href="#DejaVuSans-38" x="733.003906"/>
       <use xlink:href="#DejaVuSans-36" x="796.626953"/>
       <use xlink:href="#DejaVuSans-2d" x="860.25"/>
       <use xlink:href="#DejaVuSans-44" x="896.333984"/>
       <use xlink:href="#DejaVuSans-34" x="973.335938"/>
      </g>
     </g>
    </g>
   </g>
   <g id="matplotlib.axis_4">
    <g id="ytick_7">
     <g id="line2d_23">
      <g>
       <use xlink:href="#m5da61bbebb" x="54.912" y="349.2" style="stroke: #000000; stroke-width: 0.8"/>
      </g>
     </g>
     <g id="text_22">
      <!-- 0 -->
      <g transform="translate(41.5495 352.999219)scale(0.1 -0.1)">
       <use xlink:href="#DejaVuSans-30"/>
      </g>
     </g>
    </g>
    <g id="ytick_8">
     <g id="line2d_24">
      <g>
       <use xlink:href="#m5da61bbebb" x="54.912" y="318.506122" style="stroke: #000000; stroke-width: 0.8"/>
      </g>
     </g>
     <g id="text_23">
      <!-- 2 -->
      <g transform="translate(41.5495 322.305341)scale(0.1 -0.1)">
       <use xlink:href="#DejaVuSans-32"/>
      </g>
     </g>
    </g>
    <g id="ytick_9">
     <g id="line2d_25">
      <g>
       <use xlink:href="#m5da61bbebb" x="54.912" y="287.812245" style="stroke: #000000; stroke-width: 0.8"/>
      </g>
     </g>
     <g id="text_24">
      <!-- 4 -->
      <g transform="translate(41.5495 291.611464)scale(0.1 -0.1)">
       <use xlink:href="#DejaVuSans-34"/>
      </g>
     </g>
    </g>
    <g id="ytick_10">
     <g id="line2d_26">
      <g>
       <use xlink:href="#m5da61bbebb" x="54.912" y="257.118367" style="stroke: #000000; stroke-width: 0.8"/>
      </g>
     </g>
     <g id="text_25">
      <!-- 6 -->
      <g transform="translate(41.5495 260.917586)scale(0.1 -0.1)">
       <use xlink:href="#DejaVuSans-36"/>
      </g>
     </g>
    </g>
    <g id="ytick_11">
     <g id="line2d_27">
      <g>
       <use xlink:href="#m5da61bbebb" x="54.912" y="226.42449" style="stroke: #000000; stroke-width: 0.8"/>
      </g>
     </g>
     <g id="text_26">
      <!-- 8 -->
      <g transform="translate(41.5495 230.223709)scale(0.1 -0.1)">
       <use xlink:href="#DejaVuSans-38"/>
      </g>
     </g>
    </g>
   </g>
   <g id="line2d_28">
    <path d="M 82.363247 208.608182 
L 97.636753 193.334675 
" style="fill: none; stroke: #000000; stroke-width: 0.8; stroke-linecap: square"/>
   </g>
   <g id="patch_185">
    <path d="M 54.912 349.2 
L 54.912 203.404082 
" style="fill: none; stroke: #000000; stroke-width: 0.8; stroke-linejoin: miter; stroke-linecap: square"/>
   </g>
   <g id="patch_186">
    <path d="M 54.912 349.2 
L 709.2 349.2 
" style="fill: none; stroke: #000000; stroke-width: 0.8; stroke-linejoin: miter; stroke-linecap: square"/>
   </g>
  </g>
  <g id="axes_3">
   <g id="patch_187">
    <path d="M 54.912 349.2 
L 709.2 349.2 
L 709.2 10.8 
L 54.912 10.8 
L 54.912 349.2 
z
" style="fill: none"/>
   </g>
   <g id="matplotlib.axis_5"/>
   <g id="matplotlib.axis_6">
    <g id="text_27">
     <!-- WTMAD-2 / $\mathrm{kcal} \cdot \mathrm{mol}^{-1}$ -->
     <g transform="translate(22.832312 237.75)rotate(-90)scale(0.1 -0.1)">
      <defs>
       <path id="DejaVuSans-57" d="M 213 4666 
L 850 4666 
L 1831 722 
L 2809 4666 
L 3519 4666 
L 4500 722 
L 5478 4666 
L 6119 4666 
L 4947 0 
L 4153 0 
L 3169 4050 
L 2175 0 
L 1381 0 
L 213 4666 
z
" transform="scale(0.015625)"/>
       <path id="DejaVuSans-54" d="M -19 4666 
L 3928 4666 
L 3928 4134 
L 2272 4134 
L 2272 0 
L 1638 0 
L 1638 4134 
L -19 4134 
L -19 4666 
z
" transform="scale(0.015625)"/>
       <path id="DejaVuSans-41" d="M 2188 4044 
L 1331 1722 
L 3047 1722 
L 2188 4044 
z
M 1831 4666 
L 2547 4666 
L 4325 0 
L 3669 0 
L 3244 1197 
L 1141 1197 
L 716 0 
L 50 0 
L 1831 4666 
z
" transform="scale(0.015625)"/>
       <path id="DejaVuSans-20" transform="scale(0.015625)"/>
       <path id="DejaVuSans-2f" d="M 1625 4666 
L 2156 4666 
L 531 -594 
L 0 -594 
L 1625 4666 
z
" transform="scale(0.015625)"/>
       <path id="DejaVuSans-6b" d="M 581 4863 
L 1159 4863 
L 1159 1991 
L 2875 3500 
L 3609 3500 
L 1753 1863 
L 3688 0 
L 2938 0 
L 1159 1709 
L 1159 0 
L 581 0 
L 581 4863 
z
" transform="scale(0.015625)"/>
       <path id="DejaVuSans-61" d="M 2194 1759 
Q 1497 1759 1228 1600 
Q 959 1441 959 1056 
Q 959 750 1161 570 
Q 1363 391 1709 391 
Q 2188 391 2477 730 
Q 2766 1069 2766 1631 
L 2766 1759 
L 2194 1759 
z
M 3341 1997 
L 3341 0 
L 2766 0 
L 2766 531 
Q 2569 213 2275 61 
Q 1981 -91 1556 -91 
Q 1019 -91 701 211 
Q 384 513 384 1019 
Q 384 1609 779 1909 
Q 1175 2209 1959 2209 
L 2766 2209 
L 2766 2266 
Q 2766 2663 2505 2880 
Q 2244 3097 1772 3097 
Q 1472 3097 1187 3025 
Q 903 2953 641 2809 
L 641 3341 
Q 956 3463 1253 3523 
Q 1550 3584 1831 3584 
Q 2591 3584 2966 3190 
Q 3341 2797 3341 1997 
z
" transform="scale(0.015625)"/>
       <path id="DejaVuSans-22c5" d="M 684 2619 
L 1344 2619 
L 1344 1825 
L 684 1825 
L 684 2619 
z
" transform="scale(0.015625)"/>
       <path id="DejaVuSans-6d" d="M 3328 2828 
Q 3544 3216 3844 3400 
Q 4144 3584 4550 3584 
Q 5097 3584 5394 3201 
Q 5691 2819 5691 2113 
L 5691 0 
L 5113 0 
L 5113 2094 
Q 5113 2597 4934 2840 
Q 4756 3084 4391 3084 
Q 3944 3084 3684 2787 
Q 3425 2491 3425 1978 
L 3425 0 
L 2847 0 
L 2847 2094 
Q 2847 2600 2669 2842 
Q 2491 3084 2119 3084 
Q 1678 3084 1418 2786 
Q 1159 2488 1159 1978 
L 1159 0 
L 581 0 
L 581 3500 
L 1159 3500 
L 1159 2956 
Q 1356 3278 1631 3431 
Q 1906 3584 2284 3584 
Q 2666 3584 2933 3390 
Q 3200 3197 3328 2828 
z
" transform="scale(0.015625)"/>
       <path id="DejaVuSans-6f" d="M 1959 3097 
Q 1497 3097 1228 2736 
Q 959 2375 959 1747 
Q 959 1119 1226 758 
Q 1494 397 1959 397 
Q 2419 397 2687 759 
Q 2956 1122 2956 1747 
Q 2956 2369 2687 2733 
Q 2419 3097 1959 3097 
z
M 1959 3584 
Q 2709 3584 3137 3096 
Q 3566 2609 3566 1747 
Q 3566 888 3137 398 
Q 2709 -91 1959 -91 
Q 1206 -91 779 398 
Q 353 888 353 1747 
Q 353 2609 779 3096 
Q 1206 3584 1959 3584 
z
" transform="scale(0.015625)"/>
       <path id="DejaVuSans-2212" d="M 678 2272 
L 4684 2272 
L 4684 1741 
L 678 1741 
L 678 2272 
z
" transform="scale(0.015625)"/>
      </defs>
      <use xlink:href="#DejaVuSans-57" transform="translate(0 0.684375)"/>
      <use xlink:href="#DejaVuSans-54" transform="translate(98.876953 0.684375)"/>
      <use xlink:href="#DejaVuSans-4d" transform="translate(159.960938 0.684375)"/>
      <use xlink:href="#DejaVuSans-41" transform="translate(246.240234 0.684375)"/>
      <use xlink:href="#DejaVuSans-44" transform="translate(314.648438 0.684375)"/>
      <use xlink:href="#DejaVuSans-2d" transform="translate(391.650391 0.684375)"/>
      <use xlink:href="#DejaVuSans-32" transform="translate(427.734375 0.684375)"/>
      <use xlink:href="#DejaVuSans-20" transform="translate(491.357422 0.684375)"/>
      <use xlink:href="#DejaVuSans-2f" transform="translate(523.144531 0.684375)"/>
      <use xlink:href="#DejaVuSans-20" transform="translate(556.835938 0.684375)"/>
      <use xlink:href="#DejaVuSans-6b" transform="translate(588.623047 0.684375)"/>
      <use xlink:href="#DejaVuSans-63" transform="translate(646.533203 0.684375)"/>
      <use xlink:href="#DejaVuSans-61" transform="translate(701.513672 0.684375)"/>
      <use xlink:href="#DejaVuSans-6c" transform="translate(762.792969 0.684375)"/>
      <use xlink:href="#DejaVuSans-22c5" transform="translate(810.058594 0.684375)"/>
      <use xlink:href="#DejaVuSans-6d" transform="translate(861.328125 0.684375)"/>
      <use xlink:href="#DejaVuSans-6f" transform="translate(958.740234 0.684375)"/>
      <use xlink:href="#DejaVuSans-6c" transform="translate(1019.921875 0.684375)"/>
      <use xlink:href="#DejaVuSans-2212" transform="translate(1048.662109 38.965625)scale(0.7)"/>
      <use xlink:href="#DejaVuSans-31" transform="translate(1107.314453 38.965625)scale(0.7)"/>
     </g>
    </g>
   </g>
  </g>
 </g>
 <defs>
  <clipPath id="p4b82bd3a76">
   <rect x="54.912" y="10.8" width="654.288" height="176.489796"/>
  </clipPath>
  <clipPath id="p8aa109d417">
   <rect x="54.912" y="203.404082" width="654.288" height="145.795918"/>
  </clipPath>
 </defs>
</svg>
